<?xml version="1.0" encoding="UTF-8" standalone="no"?><svg xmlns="http://www.w3.org/2000/svg" xmlns:xlink="http://www.w3.org/1999/xlink" contentScriptType="application/ecmascript" contentStyleType="text/css" height="325px" preserveAspectRatio="none" style="width:252px;height:325px;" version="1.1" viewBox="0 0 252 325" width="252px" zoomAndPan="magnify"><defs><filter height="300%" id="fsk3ffq" width="300%" x="-1" y="-1"><feGaussianBlur result="blurOut" stdDeviation="2.0"/><feColorMatrix in="blurOut" result="blurOut2" type="matrix" values="0 0 0 0 0 0 0 0 0 0 0 0 0 0 0 0 0 0 .4 0"/><feOffset dx="4.0" dy="4.0" in="blurOut2" result="blurOut3"/><feBlend in="SourceGraphic" in2="blurOut3" mode="normal"/></filter></defs><g><ellipse cx="135.5" cy="20" fill="#000000" filter="url(#fsk3ffq)" rx="10" ry="10" style="stroke: none; stroke-width: 1.0;"/><rect fill="#FEFECE" filter="url(#fsk3ffq)" height="33.9688" rx="12.5" ry="12.5" style="stroke: #A80036; stroke-width: 1.5;" width="168" x="51.5" y="50"/><text fill="#000000" font-family="sans-serif" font-size="12" lengthAdjust="spacingAndGlyphs" textLength="148" x="61.5" y="71.1387">Selecionar sala de chat</text><rect fill="#FEFECE" filter="url(#fsk3ffq)" height="33.9688" rx="12.5" ry="12.5" style="stroke: #A80036; stroke-width: 1.5;" width="159" x="56" y="159.6792"/><text fill="#000000" font-family="sans-serif" font-size="12" lengthAdjust="spacingAndGlyphs" textLength="139" x="66" y="180.8179">Escrever a mensagem</text><rect fill="#FEFECE" filter="url(#fsk3ffq)" height="33.9688" rx="12.5" ry="12.5" style="stroke: #A80036; stroke-width: 1.5;" width="143" x="64" y="222.7456"/><text fill="#000000" font-family="sans-serif" font-size="12" lengthAdjust="spacingAndGlyphs" textLength="123" x="74" y="243.8843">Enviar a mensagem</text><polygon fill="#FEFECE" filter="url(#fsk3ffq)" points="48,103.9688,223,103.9688,235,115.9688,223,127.9688,48,127.9688,36,115.9688,48,103.9688" style="stroke: #A80036; stroke-width: 1.5;"/><text fill="#000000" font-family="sans-serif" font-size="11" lengthAdjust="spacingAndGlyphs" textLength="22" x="139.5" y="138.1792">Sim</text><text fill="#000000" font-family="sans-serif" font-size="11" lengthAdjust="spacingAndGlyphs" textLength="175" x="48" y="119.7769">Tem mensagens para enviar ?</text><text fill="#000000" font-family="sans-serif" font-size="11" lengthAdjust="spacingAndGlyphs" textLength="22" x="14" y="113.3745">Não</text><ellipse cx="135.5" cy="308.7144" fill="none" filter="url(#fsk3ffq)" rx="10" ry="10" style="stroke: #000000; stroke-width: 1.0;"/><ellipse cx="136" cy="309.2144" fill="#000000" filter="url(#fsk3ffq)" rx="6" ry="6" style="stroke: none; stroke-width: 1.0;"/><line style="stroke: #A80036; stroke-width: 1.5;" x1="135.5" x2="135.5" y1="30" y2="50"/><polygon fill="#A80036" points="131.5,40,135.5,50,139.5,40,135.5,44" style="stroke: #A80036; stroke-width: 1.0;"/><line style="stroke: #A80036; stroke-width: 1.5;" x1="135.5" x2="135.5" y1="193.6479" y2="222.7456"/><polygon fill="#A80036" points="131.5,212.7456,135.5,222.7456,139.5,212.7456,135.5,216.7456" style="stroke: #A80036; stroke-width: 1.0;"/><line style="stroke: #A80036; stroke-width: 1.5;" x1="135.5" x2="135.5" y1="127.9688" y2="159.6792"/><polygon fill="#A80036" points="131.5,149.6792,135.5,159.6792,139.5,149.6792,135.5,153.6792" style="stroke: #A80036; stroke-width: 1.0;"/><line style="stroke: #A80036; stroke-width: 1.5;" x1="135.5" x2="135.5" y1="256.7144" y2="266.7144"/><line style="stroke: #A80036; stroke-width: 1.5;" x1="135.5" x2="247" y1="266.7144" y2="266.7144"/><polygon fill="#A80036" points="243,202.7456,247,192.7456,251,202.7456,247,198.7456" style="stroke: #A80036; stroke-width: 1.5;"/><line style="stroke: #A80036; stroke-width: 1.5;" x1="247" x2="247" y1="115.9688" y2="266.7144"/><line style="stroke: #A80036; stroke-width: 1.5;" x1="247" x2="235" y1="115.9688" y2="115.9688"/><polygon fill="#A80036" points="245,111.9688,235,115.9688,245,119.9688,241,115.9688" style="stroke: #A80036; stroke-width: 1.0;"/><line style="stroke: #A80036; stroke-width: 1.5;" x1="36" x2="24" y1="115.9688" y2="115.9688"/><polygon fill="#A80036" points="20,188.7456,24,198.7456,28,188.7456,24,192.7456" style="stroke: #A80036; stroke-width: 1.5;"/><line style="stroke: #A80036; stroke-width: 1.5;" x1="24" x2="24" y1="115.9688" y2="278.7144"/><line style="stroke: #A80036; stroke-width: 1.5;" x1="24" x2="135.5" y1="278.7144" y2="278.7144"/><line style="stroke: #A80036; stroke-width: 1.5;" x1="135.5" x2="135.5" y1="278.7144" y2="298.7144"/><polygon fill="#A80036" points="131.5,288.7144,135.5,298.7144,139.5,288.7144,135.5,292.7144" style="stroke: #A80036; stroke-width: 1.0;"/><line style="stroke: #A80036; stroke-width: 1.5;" x1="135.5" x2="135.5" y1="83.9688" y2="103.9688"/><polygon fill="#A80036" points="131.5,93.9688,135.5,103.9688,139.5,93.9688,135.5,97.9688" style="stroke: #A80036; stroke-width: 1.0;"/></g></svg>