<?xml version="1.0" encoding="UTF-8" standalone="no"?><svg xmlns="http://www.w3.org/2000/svg" xmlns:xlink="http://www.w3.org/1999/xlink" contentScriptType="application/ecmascript" contentStyleType="text/css" height="378px" preserveAspectRatio="none" style="width:504px;height:378px;" version="1.1" viewBox="0 0 504 378" width="504px" zoomAndPan="magnify"><defs><filter height="300%" id="fvhj8k5" width="300%" x="-1" y="-1"><feGaussianBlur result="blurOut" stdDeviation="2.0"/><feColorMatrix in="blurOut" result="blurOut2" type="matrix" values="0 0 0 0 0 0 0 0 0 0 0 0 0 0 0 0 0 0 .4 0"/><feOffset dx="4.0" dy="4.0" in="blurOut2" result="blurOut3"/><feBlend in="SourceGraphic" in2="blurOut3" mode="normal"/></filter></defs><g><ellipse cx="257.25" cy="20" fill="#000000" filter="url(#fvhj8k5)" rx="10" ry="10" style="stroke: none; stroke-width: 1.0;"/><rect fill="#FEFECE" filter="url(#fvhj8k5)" height="33.9688" rx="12.5" ry="12.5" style="stroke: #A80036; stroke-width: 1.5;" width="121" x="196.75" y="50"/><text fill="#000000" font-family="sans-serif" font-size="12" lengthAdjust="spacingAndGlyphs" textLength="101" x="206.75" y="71.1387">Selecionar ação</text><polygon fill="#FEFECE" filter="url(#fvhj8k5)" points="93,103.9688,140,103.9688,152,115.9688,140,127.9688,93,127.9688,81,115.9688,93,103.9688" style="stroke: #A80036; stroke-width: 1.5;"/><text fill="#000000" font-family="sans-serif" font-size="11" lengthAdjust="spacingAndGlyphs" textLength="22" x="120.5" y="138.1792">Sim</text><text fill="#000000" font-family="sans-serif" font-size="11" lengthAdjust="spacingAndGlyphs" textLength="47" x="93" y="119.7769">Excluir ?</text><rect fill="#FEFECE" filter="url(#fvhj8k5)" height="33.9688" rx="12.5" ry="12.5" style="stroke: #A80036; stroke-width: 1.5;" width="194" x="19.5" y="159.6792"/><text fill="#000000" font-family="sans-serif" font-size="12" lengthAdjust="spacingAndGlyphs" textLength="174" x="29.5" y="180.8179">Confirmar ação de exclusão</text><polygon fill="#FEFECE" filter="url(#fvhj8k5)" points="82,213.6479,151,213.6479,163,225.6479,151,237.6479,82,237.6479,70,225.6479,82,213.6479" style="stroke: #A80036; stroke-width: 1.5;"/><text fill="#000000" font-family="sans-serif" font-size="11" lengthAdjust="spacingAndGlyphs" textLength="69" x="82" y="229.4561">Confirmou ?</text><text fill="#000000" font-family="sans-serif" font-size="11" lengthAdjust="spacingAndGlyphs" textLength="22" x="48" y="223.0537">Sim</text><rect fill="#FEFECE" filter="url(#fvhj8k5)" height="33.9688" rx="12.5" ry="12.5" style="stroke: #A80036; stroke-width: 1.5;" width="100" x="10" y="247.6479"/><text fill="#000000" font-family="sans-serif" font-size="12" lengthAdjust="spacingAndGlyphs" textLength="80" x="20" y="268.7866">Excluir conta</text><polygon fill="#FEFECE" filter="url(#fvhj8k5)" points="116.5,287.6167,128.5,299.6167,116.5,311.6167,104.5,299.6167,116.5,287.6167" style="stroke: #A80036; stroke-width: 1.5;"/><polygon fill="#FEFECE" filter="url(#fvhj8k5)" points="320,103.9688,378,103.9688,390,115.9688,378,127.9688,320,127.9688,308,115.9688,320,103.9688" style="stroke: #A80036; stroke-width: 1.5;"/><text fill="#000000" font-family="sans-serif" font-size="11" lengthAdjust="spacingAndGlyphs" textLength="22" x="353" y="138.1792">Sim</text><text fill="#000000" font-family="sans-serif" font-size="11" lengthAdjust="spacingAndGlyphs" textLength="58" x="320" y="119.7769">Atualizar ?</text><rect fill="#FEFECE" filter="url(#fvhj8k5)" height="33.9688" rx="12.5" ry="12.5" style="stroke: #A80036; stroke-width: 1.5;" width="231" x="233.5" y="159.6792"/><text fill="#000000" font-family="sans-serif" font-size="12" lengthAdjust="spacingAndGlyphs" textLength="211" x="243.5" y="180.8179">Alterar as informações desejadas</text><rect fill="#FEFECE" filter="url(#fvhj8k5)" height="33.9688" rx="12.5" ry="12.5" style="stroke: #A80036; stroke-width: 1.5;" width="129" x="284.5" y="213.6479"/><text fill="#000000" font-family="sans-serif" font-size="12" lengthAdjust="spacingAndGlyphs" textLength="109" x="294.5" y="234.7866">Salvar alterações</text><ellipse cx="257.25" cy="361.6167" fill="none" filter="url(#fvhj8k5)" rx="10" ry="10" style="stroke: #000000; stroke-width: 1.0;"/><ellipse cx="257.75" cy="362.1167" fill="#000000" filter="url(#fvhj8k5)" rx="6" ry="6" style="stroke: none; stroke-width: 1.0;"/><line style="stroke: #A80036; stroke-width: 1.5;" x1="257.25" x2="257.25" y1="30" y2="50"/><polygon fill="#A80036" points="253.25,40,257.25,50,261.25,40,257.25,44" style="stroke: #A80036; stroke-width: 1.0;"/><line style="stroke: #A80036; stroke-width: 1.5;" x1="70" x2="60" y1="225.6479" y2="225.6479"/><line style="stroke: #A80036; stroke-width: 1.5;" x1="60" x2="60" y1="225.6479" y2="247.6479"/><polygon fill="#A80036" points="56,237.6479,60,247.6479,64,237.6479,60,241.6479" style="stroke: #A80036; stroke-width: 1.0;"/><line style="stroke: #A80036; stroke-width: 1.5;" x1="163" x2="173" y1="225.6479" y2="225.6479"/><polygon fill="#A80036" points="169,252.6323,173,262.6323,177,252.6323,173,256.6323" style="stroke: #A80036; stroke-width: 1.5;"/><line style="stroke: #A80036; stroke-width: 1.5;" x1="173" x2="173" y1="225.6479" y2="299.6167"/><line style="stroke: #A80036; stroke-width: 1.5;" x1="173" x2="128.5" y1="299.6167" y2="299.6167"/><polygon fill="#A80036" points="138.5,295.6167,128.5,299.6167,138.5,303.6167,134.5,299.6167" style="stroke: #A80036; stroke-width: 1.0;"/><line style="stroke: #A80036; stroke-width: 1.5;" x1="60" x2="60" y1="281.6167" y2="299.6167"/><line style="stroke: #A80036; stroke-width: 1.5;" x1="60" x2="104.5" y1="299.6167" y2="299.6167"/><polygon fill="#A80036" points="94.5,295.6167,104.5,299.6167,94.5,303.6167,98.5,299.6167" style="stroke: #A80036; stroke-width: 1.0;"/><line style="stroke: #A80036; stroke-width: 1.5;" x1="116.5" x2="116.5" y1="193.6479" y2="213.6479"/><polygon fill="#A80036" points="112.5,203.6479,116.5,213.6479,120.5,203.6479,116.5,207.6479" style="stroke: #A80036; stroke-width: 1.0;"/><line style="stroke: #A80036; stroke-width: 1.5;" x1="349" x2="349" y1="193.6479" y2="213.6479"/><polygon fill="#A80036" points="345,203.6479,349,213.6479,353,203.6479,349,207.6479" style="stroke: #A80036; stroke-width: 1.0;"/><line style="stroke: #A80036; stroke-width: 1.5;" x1="116.5" x2="116.5" y1="127.9688" y2="159.6792"/><polygon fill="#A80036" points="112.5,149.6792,116.5,159.6792,120.5,149.6792,116.5,153.6792" style="stroke: #A80036; stroke-width: 1.0;"/><line style="stroke: #A80036; stroke-width: 1.5;" x1="116.5" x2="116.5" y1="311.6167" y2="331.6167"/><polygon fill="#A80036" points="112.5,321.6167,116.5,331.6167,120.5,321.6167,116.5,325.6167" style="stroke: #A80036; stroke-width: 1.0;"/><line style="stroke: #A80036; stroke-width: 1.5;" x1="349" x2="349" y1="127.9688" y2="159.6792"/><polygon fill="#A80036" points="345,149.6792,349,159.6792,353,149.6792,349,153.6792" style="stroke: #A80036; stroke-width: 1.0;"/><line style="stroke: #A80036; stroke-width: 1.5;" x1="349" x2="349" y1="247.6167" y2="331.6167"/><polygon fill="#A80036" points="345,321.6167,349,331.6167,353,321.6167,349,325.6167" style="stroke: #A80036; stroke-width: 1.0;"/><line style="stroke: #A80036; stroke-width: 1.5;" x1="152" x2="308" y1="115.9688" y2="115.9688"/><polygon fill="#A80036" points="298,111.9688,308,115.9688,298,119.9688,302,115.9688" style="stroke: #A80036; stroke-width: 1.0;"/><line style="stroke: #A80036; stroke-width: 1.5;" x1="257.25" x2="257.25" y1="83.9688" y2="88.9688"/><line style="stroke: #A80036; stroke-width: 1.5;" x1="257.25" x2="116.5" y1="88.9688" y2="88.9688"/><line style="stroke: #A80036; stroke-width: 1.5;" x1="116.5" x2="116.5" y1="88.9688" y2="103.9688"/><polygon fill="#A80036" points="112.5,93.9688,116.5,103.9688,120.5,93.9688,116.5,97.9688" style="stroke: #A80036; stroke-width: 1.0;"/><line style="stroke: #A80036; stroke-width: 1.5;" x1="390" x2="499.5" y1="115.9688" y2="115.9688"/><line style="stroke: #A80036; stroke-width: 1.5;" x1="499.5" x2="499.5" y1="115.9688" y2="331.6167"/><polygon fill="#A80036" points="495.5,321.6167,499.5,331.6167,503.5,321.6167,499.5,325.6167" style="stroke: #A80036; stroke-width: 1.0;"/><line style="stroke: #A80036; stroke-width: 1.5;" x1="116.5" x2="499.5" y1="331.6167" y2="331.6167"/><line style="stroke: #A80036; stroke-width: 1.5;" x1="257.25" x2="257.25" y1="331.6167" y2="351.6167"/><polygon fill="#A80036" points="253.25,341.6167,257.25,351.6167,261.25,341.6167,257.25,345.6167" style="stroke: #A80036; stroke-width: 1.0;"/></g></svg>