<?xml version="1.0" encoding="UTF-8" standalone="no"?><svg xmlns="http://www.w3.org/2000/svg" xmlns:xlink="http://www.w3.org/1999/xlink" contentScriptType="application/ecmascript" contentStyleType="text/css" height="356px" preserveAspectRatio="none" style="width:466px;height:356px;" version="1.1" viewBox="0 0 466 356" width="466px" zoomAndPan="magnify"><defs><filter height="300%" id="ffswyns" width="300%" x="-1" y="-1"><feGaussianBlur result="blurOut" stdDeviation="2.0"/><feColorMatrix in="blurOut" result="blurOut2" type="matrix" values="0 0 0 0 0 0 0 0 0 0 0 0 0 0 0 0 0 0 .4 0"/><feOffset dx="4.0" dy="4.0" in="blurOut2" result="blurOut3"/><feBlend in="SourceGraphic" in2="blurOut3" mode="normal"/></filter></defs><g><ellipse cx="280.75" cy="20" fill="#000000" filter="url(#ffswyns)" rx="10" ry="10" style="stroke: none; stroke-width: 1.0;"/><rect fill="#FEFECE" filter="url(#ffswyns)" height="33.9688" rx="12.5" ry="12.5" style="stroke: #A80036; stroke-width: 1.5;" width="119" x="221.25" y="50"/><text fill="#000000" font-family="sans-serif" font-size="12" lengthAdjust="spacingAndGlyphs" textLength="99" x="231.25" y="71.1387">Seleciona a loja</text><rect fill="#FEFECE" filter="url(#ffswyns)" height="33.9688" rx="12.5" ry="12.5" style="stroke: #A80036; stroke-width: 1.5;" width="184" x="188.75" y="103.9688"/><text fill="#000000" font-family="sans-serif" font-size="12" lengthAdjust="spacingAndGlyphs" textLength="164" x="198.75" y="125.1074">Exibe a lista de feedbacks</text><rect fill="#FEFECE" filter="url(#ffswyns)" height="33.9688" rx="12.5" ry="12.5" style="stroke: #A80036; stroke-width: 1.5;" width="155" x="203.25" y="157.9375"/><text fill="#000000" font-family="sans-serif" font-size="12" lengthAdjust="spacingAndGlyphs" textLength="135" x="213.25" y="179.0762">Seleciona o feedback</text><polygon fill="#FEFECE" filter="url(#ffswyns)" points="203.25,211.9063,358.25,211.9063,370.25,223.9063,358.25,235.9063,203.25,235.9063,191.25,223.9063,203.25,211.9063" style="stroke: #A80036; stroke-width: 1.5;"/><text fill="#000000" font-family="sans-serif" font-size="11" lengthAdjust="spacingAndGlyphs" textLength="155" x="203.25" y="227.7144">Deseja reportar feedback ?</text><text fill="#000000" font-family="sans-serif" font-size="11" lengthAdjust="spacingAndGlyphs" textLength="22" x="169.25" y="221.312">Sim</text><rect fill="#FEFECE" filter="url(#ffswyns)" height="33.9688" rx="12.5" ry="12.5" style="stroke: #A80036; stroke-width: 1.5;" width="307" x="10" y="245.9063"/><text fill="#000000" font-family="sans-serif" font-size="12" lengthAdjust="spacingAndGlyphs" textLength="287" x="20" y="267.0449">Envia o feedback aos administradores do site</text><rect fill="#FEFECE" filter="url(#ffswyns)" height="33.9688" rx="12.5" ry="12.5" style="stroke: #A80036; stroke-width: 1.5;" width="122" x="337" y="245.9063"/><text fill="#000000" font-family="sans-serif" font-size="12" lengthAdjust="spacingAndGlyphs" textLength="102" x="347" y="267.0449">Apenas visualiza</text><polygon fill="#FEFECE" filter="url(#ffswyns)" points="280.75,285.875,292.75,297.875,280.75,309.875,268.75,297.875,280.75,285.875" style="stroke: #A80036; stroke-width: 1.5;"/><ellipse cx="280.75" cy="339.875" fill="none" filter="url(#ffswyns)" rx="10" ry="10" style="stroke: #000000; stroke-width: 1.0;"/><ellipse cx="281.25" cy="340.375" fill="#000000" filter="url(#ffswyns)" rx="6" ry="6" style="stroke: none; stroke-width: 1.0;"/><line style="stroke: #A80036; stroke-width: 1.5;" x1="280.75" x2="280.75" y1="30" y2="50"/><polygon fill="#A80036" points="276.75,40,280.75,50,284.75,40,280.75,44" style="stroke: #A80036; stroke-width: 1.0;"/><line style="stroke: #A80036; stroke-width: 1.5;" x1="280.75" x2="280.75" y1="83.9688" y2="103.9688"/><polygon fill="#A80036" points="276.75,93.9688,280.75,103.9688,284.75,93.9688,280.75,97.9688" style="stroke: #A80036; stroke-width: 1.0;"/><line style="stroke: #A80036; stroke-width: 1.5;" x1="280.75" x2="280.75" y1="137.9375" y2="157.9375"/><polygon fill="#A80036" points="276.75,147.9375,280.75,157.9375,284.75,147.9375,280.75,151.9375" style="stroke: #A80036; stroke-width: 1.0;"/><line style="stroke: #A80036; stroke-width: 1.5;" x1="191.25" x2="163.5" y1="223.9063" y2="223.9063"/><line style="stroke: #A80036; stroke-width: 1.5;" x1="163.5" x2="163.5" y1="223.9063" y2="245.9063"/><polygon fill="#A80036" points="159.5,235.9063,163.5,245.9063,167.5,235.9063,163.5,239.9063" style="stroke: #A80036; stroke-width: 1.0;"/><line style="stroke: #A80036; stroke-width: 1.5;" x1="370.25" x2="398" y1="223.9063" y2="223.9063"/><line style="stroke: #A80036; stroke-width: 1.5;" x1="398" x2="398" y1="223.9063" y2="245.9063"/><polygon fill="#A80036" points="394,235.9063,398,245.9063,402,235.9063,398,239.9063" style="stroke: #A80036; stroke-width: 1.0;"/><line style="stroke: #A80036; stroke-width: 1.5;" x1="163.5" x2="163.5" y1="279.875" y2="297.875"/><line style="stroke: #A80036; stroke-width: 1.5;" x1="163.5" x2="268.75" y1="297.875" y2="297.875"/><polygon fill="#A80036" points="258.75,293.875,268.75,297.875,258.75,301.875,262.75,297.875" style="stroke: #A80036; stroke-width: 1.0;"/><line style="stroke: #A80036; stroke-width: 1.5;" x1="398" x2="398" y1="279.875" y2="297.875"/><line style="stroke: #A80036; stroke-width: 1.5;" x1="398" x2="292.75" y1="297.875" y2="297.875"/><polygon fill="#A80036" points="302.75,293.875,292.75,297.875,302.75,301.875,298.75,297.875" style="stroke: #A80036; stroke-width: 1.0;"/><line style="stroke: #A80036; stroke-width: 1.5;" x1="280.75" x2="280.75" y1="191.9063" y2="211.9063"/><polygon fill="#A80036" points="276.75,201.9063,280.75,211.9063,284.75,201.9063,280.75,205.9063" style="stroke: #A80036; stroke-width: 1.0;"/><line style="stroke: #A80036; stroke-width: 1.5;" x1="280.75" x2="280.75" y1="309.875" y2="329.875"/><polygon fill="#A80036" points="276.75,319.875,280.75,329.875,284.75,319.875,280.75,323.875" style="stroke: #A80036; stroke-width: 1.0;"/></g></svg>