<?xml version="1.0" encoding="UTF-8" standalone="no"?><svg xmlns="http://www.w3.org/2000/svg" xmlns:xlink="http://www.w3.org/1999/xlink" contentScriptType="application/ecmascript" contentStyleType="text/css" height="248px" preserveAspectRatio="none" style="width:257px;height:248px;" version="1.1" viewBox="0 0 257 248" width="257px" zoomAndPan="magnify"><defs><filter height="300%" id="fvpsmf6" width="300%" x="-1" y="-1"><feGaussianBlur result="blurOut" stdDeviation="2.0"/><feColorMatrix in="blurOut" result="blurOut2" type="matrix" values="0 0 0 0 0 0 0 0 0 0 0 0 0 0 0 0 0 0 .4 0"/><feOffset dx="4.0" dy="4.0" in="blurOut2" result="blurOut3"/><feBlend in="SourceGraphic" in2="blurOut3" mode="normal"/></filter></defs><g><ellipse cx="130" cy="20" fill="#000000" filter="url(#fvpsmf6)" rx="10" ry="10" style="stroke: none; stroke-width: 1.0;"/><rect fill="#FEFECE" filter="url(#fvpsmf6)" height="33.9688" rx="12.5" ry="12.5" style="stroke: #A80036; stroke-width: 1.5;" width="148" x="56" y="50"/><text fill="#000000" font-family="sans-serif" font-size="12" lengthAdjust="spacingAndGlyphs" textLength="128" x="66" y="71.1387">Informar credenciais</text><polygon fill="#FEFECE" filter="url(#fvpsmf6)" points="85,103.9688,175,103.9688,187,115.9688,175,127.9688,85,127.9688,73,115.9688,85,103.9688" style="stroke: #A80036; stroke-width: 1.5;"/><text fill="#000000" font-family="sans-serif" font-size="11" lengthAdjust="spacingAndGlyphs" textLength="90" x="85" y="119.7769">Dados válidos ?</text><text fill="#000000" font-family="sans-serif" font-size="11" lengthAdjust="spacingAndGlyphs" textLength="22" x="51" y="113.3745">Sim</text><rect fill="#FEFECE" filter="url(#fvpsmf6)" height="33.9688" rx="12.5" ry="12.5" style="stroke: #A80036; stroke-width: 1.5;" width="106" x="10" y="137.9688"/><text fill="#000000" font-family="sans-serif" font-size="12" lengthAdjust="spacingAndGlyphs" textLength="86" x="20" y="159.1074">Iniciar sessão</text><rect fill="#FEFECE" filter="url(#fvpsmf6)" height="33.9688" rx="12.5" ry="12.5" style="stroke: #A80036; stroke-width: 1.5;" width="107" x="143.5" y="137.9688"/><text fill="#000000" font-family="sans-serif" font-size="12" lengthAdjust="spacingAndGlyphs" textLength="87" x="153.5" y="159.1074">Negar acesso</text><polygon fill="#FEFECE" filter="url(#fvpsmf6)" points="130,177.9375,142,189.9375,130,201.9375,118,189.9375,130,177.9375" style="stroke: #A80036; stroke-width: 1.5;"/><ellipse cx="130" cy="231.9375" fill="none" filter="url(#fvpsmf6)" rx="10" ry="10" style="stroke: #000000; stroke-width: 1.0;"/><ellipse cx="130.5" cy="232.4375" fill="#000000" filter="url(#fvpsmf6)" rx="6" ry="6" style="stroke: none; stroke-width: 1.0;"/><line style="stroke: #A80036; stroke-width: 1.5;" x1="130" x2="130" y1="30" y2="50"/><polygon fill="#A80036" points="126,40,130,50,134,40,130,44" style="stroke: #A80036; stroke-width: 1.0;"/><line style="stroke: #A80036; stroke-width: 1.5;" x1="73" x2="63" y1="115.9688" y2="115.9688"/><line style="stroke: #A80036; stroke-width: 1.5;" x1="63" x2="63" y1="115.9688" y2="137.9688"/><polygon fill="#A80036" points="59,127.9688,63,137.9688,67,127.9688,63,131.9688" style="stroke: #A80036; stroke-width: 1.0;"/><line style="stroke: #A80036; stroke-width: 1.5;" x1="187" x2="197" y1="115.9688" y2="115.9688"/><line style="stroke: #A80036; stroke-width: 1.5;" x1="197" x2="197" y1="115.9688" y2="137.9688"/><polygon fill="#A80036" points="193,127.9688,197,137.9688,201,127.9688,197,131.9688" style="stroke: #A80036; stroke-width: 1.0;"/><line style="stroke: #A80036; stroke-width: 1.5;" x1="63" x2="63" y1="171.9375" y2="189.9375"/><line style="stroke: #A80036; stroke-width: 1.5;" x1="63" x2="118" y1="189.9375" y2="189.9375"/><polygon fill="#A80036" points="108,185.9375,118,189.9375,108,193.9375,112,189.9375" style="stroke: #A80036; stroke-width: 1.0;"/><line style="stroke: #A80036; stroke-width: 1.5;" x1="197" x2="197" y1="171.9375" y2="189.9375"/><line style="stroke: #A80036; stroke-width: 1.5;" x1="197" x2="142" y1="189.9375" y2="189.9375"/><polygon fill="#A80036" points="152,185.9375,142,189.9375,152,193.9375,148,189.9375" style="stroke: #A80036; stroke-width: 1.0;"/><line style="stroke: #A80036; stroke-width: 1.5;" x1="130" x2="130" y1="83.9688" y2="103.9688"/><polygon fill="#A80036" points="126,93.9688,130,103.9688,134,93.9688,130,97.9688" style="stroke: #A80036; stroke-width: 1.0;"/><line style="stroke: #A80036; stroke-width: 1.5;" x1="130" x2="130" y1="201.9375" y2="221.9375"/><polygon fill="#A80036" points="126,211.9375,130,221.9375,134,211.9375,130,215.9375" style="stroke: #A80036; stroke-width: 1.0;"/></g></svg>