<?xml version="1.0" encoding="UTF-8" standalone="no"?><svg xmlns="http://www.w3.org/2000/svg" xmlns:xlink="http://www.w3.org/1999/xlink" contentScriptType="application/ecmascript" contentStyleType="text/css" height="272px" preserveAspectRatio="none" style="width:330px;height:272px;" version="1.1" viewBox="0 0 330 272" width="330px" zoomAndPan="magnify"><defs><filter height="300%" id="fhq8gb8" width="300%" x="-1" y="-1"><feGaussianBlur result="blurOut" stdDeviation="2.0"/><feColorMatrix in="blurOut" result="blurOut2" type="matrix" values="0 0 0 0 0 0 0 0 0 0 0 0 0 0 0 0 0 0 .4 0"/><feOffset dx="4.0" dy="4.0" in="blurOut2" result="blurOut3"/><feBlend in="SourceGraphic" in2="blurOut3" mode="normal"/></filter></defs><g><ellipse cx="206.5" cy="20" fill="#000000" filter="url(#fhq8gb8)" rx="10" ry="10" style="stroke: none; stroke-width: 1.0;"/><rect fill="#FEFECE" filter="url(#fhq8gb8)" height="33.9688" rx="12.5" ry="12.5" style="stroke: #A80036; stroke-width: 1.5;" width="233" x="90" y="50"/><text fill="#000000" font-family="sans-serif" font-size="12" lengthAdjust="spacingAndGlyphs" textLength="213" x="100" y="71.1387">O usuário insere o texto de busca</text><rect fill="#FEFECE" filter="url(#fhq8gb8)" height="33.9688" rx="12.5" ry="12.5" style="stroke: #A80036; stroke-width: 1.5;" width="110" x="151.5" y="103.9688"/><text fill="#000000" font-family="sans-serif" font-size="12" lengthAdjust="spacingAndGlyphs" textLength="90" x="161.5" y="125.1074">Realizar busca</text><polygon fill="#FEFECE" filter="url(#fhq8gb8)" points="132.5,157.9375,280.5,157.9375,292.5,169.9375,280.5,181.9375,132.5,181.9375,120.5,169.9375,132.5,157.9375" style="stroke: #A80036; stroke-width: 1.5;"/><text fill="#000000" font-family="sans-serif" font-size="11" lengthAdjust="spacingAndGlyphs" textLength="148" x="132.5" y="173.7456">Resultados encontrados ?</text><text fill="#000000" font-family="sans-serif" font-size="11" lengthAdjust="spacingAndGlyphs" textLength="22" x="98.5" y="167.3433">Sim</text><rect fill="#FEFECE" filter="url(#fhq8gb8)" height="33.9688" rx="12.5" ry="12.5" style="stroke: #A80036; stroke-width: 1.5;" width="201" x="10" y="191.9375"/><text fill="#000000" font-family="sans-serif" font-size="12" lengthAdjust="spacingAndGlyphs" textLength="181" x="20" y="213.0762">Mostrar a lista de resultados</text><ellipse cx="302.5" cy="201.9375" fill="none" filter="url(#fhq8gb8)" rx="10" ry="10" style="stroke: #000000; stroke-width: 1.0;"/><ellipse cx="303" cy="202.4375" fill="#000000" filter="url(#fhq8gb8)" rx="6" ry="6" style="stroke: none; stroke-width: 1.0;"/><ellipse cx="206.5" cy="255.9063" fill="none" filter="url(#fhq8gb8)" rx="10" ry="10" style="stroke: #000000; stroke-width: 1.0;"/><ellipse cx="207" cy="256.4063" fill="#000000" filter="url(#fhq8gb8)" rx="6" ry="6" style="stroke: none; stroke-width: 1.0;"/><line style="stroke: #A80036; stroke-width: 1.5;" x1="206.5" x2="206.5" y1="30" y2="50"/><polygon fill="#A80036" points="202.5,40,206.5,50,210.5,40,206.5,44" style="stroke: #A80036; stroke-width: 1.0;"/><line style="stroke: #A80036; stroke-width: 1.5;" x1="206.5" x2="206.5" y1="83.9688" y2="103.9688"/><polygon fill="#A80036" points="202.5,93.9688,206.5,103.9688,210.5,93.9688,206.5,97.9688" style="stroke: #A80036; stroke-width: 1.0;"/><line style="stroke: #A80036; stroke-width: 1.5;" x1="120.5" x2="110.5" y1="169.9375" y2="169.9375"/><line style="stroke: #A80036; stroke-width: 1.5;" x1="110.5" x2="110.5" y1="169.9375" y2="191.9375"/><polygon fill="#A80036" points="106.5,181.9375,110.5,191.9375,114.5,181.9375,110.5,185.9375" style="stroke: #A80036; stroke-width: 1.0;"/><line style="stroke: #A80036; stroke-width: 1.5;" x1="292.5" x2="302.5" y1="169.9375" y2="169.9375"/><line style="stroke: #A80036; stroke-width: 1.5;" x1="302.5" x2="302.5" y1="169.9375" y2="191.9375"/><polygon fill="#A80036" points="298.5,181.9375,302.5,191.9375,306.5,181.9375,302.5,185.9375" style="stroke: #A80036; stroke-width: 1.0;"/><line style="stroke: #A80036; stroke-width: 1.5;" x1="110.5" x2="110.5" y1="225.9063" y2="230.9063"/><line style="stroke: #A80036; stroke-width: 1.5;" x1="110.5" x2="206.5" y1="230.9063" y2="230.9063"/><line style="stroke: #A80036; stroke-width: 1.5;" x1="206.5" x2="206.5" y1="230.9063" y2="245.9063"/><polygon fill="#A80036" points="202.5,235.9063,206.5,245.9063,210.5,235.9063,206.5,239.9063" style="stroke: #A80036; stroke-width: 1.0;"/><line style="stroke: #A80036; stroke-width: 1.5;" x1="206.5" x2="206.5" y1="137.9375" y2="157.9375"/><polygon fill="#A80036" points="202.5,147.9375,206.5,157.9375,210.5,147.9375,206.5,151.9375" style="stroke: #A80036; stroke-width: 1.0;"/></g></svg>