<?xml version="1.0" encoding="UTF-8" standalone="no"?><svg xmlns="http://www.w3.org/2000/svg" xmlns:xlink="http://www.w3.org/1999/xlink" contentScriptType="application/ecmascript" contentStyleType="text/css" height="248px" preserveAspectRatio="none" style="width:295px;height:248px;" version="1.1" viewBox="0 0 295 248" width="295px" zoomAndPan="magnify"><defs><filter height="300%" id="fqzc9oi" width="300%" x="-1" y="-1"><feGaussianBlur result="blurOut" stdDeviation="2.0"/><feColorMatrix in="blurOut" result="blurOut2" type="matrix" values="0 0 0 0 0 0 0 0 0 0 0 0 0 0 0 0 0 0 .4 0"/><feOffset dx="4.0" dy="4.0" in="blurOut2" result="blurOut3"/><feBlend in="SourceGraphic" in2="blurOut3" mode="normal"/></filter></defs><g><ellipse cx="154.5" cy="20" fill="#000000" filter="url(#fqzc9oi)" rx="10" ry="10" style="stroke: none; stroke-width: 1.0;"/><rect fill="#FEFECE" filter="url(#fqzc9oi)" height="33.9688" rx="12.5" ry="12.5" style="stroke: #A80036; stroke-width: 1.5;" width="115" x="97" y="50"/><text fill="#000000" font-family="sans-serif" font-size="12" lengthAdjust="spacingAndGlyphs" textLength="95" x="107" y="71.1387">Informar dados</text><polygon fill="#FEFECE" filter="url(#fqzc9oi)" points="109.5,103.9688,199.5,103.9688,211.5,115.9688,199.5,127.9688,109.5,127.9688,97.5,115.9688,109.5,103.9688" style="stroke: #A80036; stroke-width: 1.5;"/><text fill="#000000" font-family="sans-serif" font-size="11" lengthAdjust="spacingAndGlyphs" textLength="90" x="109.5" y="119.7769">Dados válidos ?</text><text fill="#000000" font-family="sans-serif" font-size="11" lengthAdjust="spacingAndGlyphs" textLength="22" x="75.5" y="113.3745">Sim</text><rect fill="#FEFECE" filter="url(#fqzc9oi)" height="33.9688" rx="12.5" ry="12.5" style="stroke: #A80036; stroke-width: 1.5;" width="140" x="10" y="137.9688"/><text fill="#000000" font-family="sans-serif" font-size="12" lengthAdjust="spacingAndGlyphs" textLength="120" x="20" y="159.1074">Confirmar cadastro</text><rect fill="#FEFECE" filter="url(#fqzc9oi)" height="33.9688" rx="12.5" ry="12.5" style="stroke: #A80036; stroke-width: 1.5;" width="118" x="170" y="137.9688"/><text fill="#000000" font-family="sans-serif" font-size="12" lengthAdjust="spacingAndGlyphs" textLength="98" x="180" y="159.1074">Negar cadastro</text><polygon fill="#FEFECE" filter="url(#fqzc9oi)" points="154.5,177.9375,166.5,189.9375,154.5,201.9375,142.5,189.9375,154.5,177.9375" style="stroke: #A80036; stroke-width: 1.5;"/><ellipse cx="154.5" cy="231.9375" fill="none" filter="url(#fqzc9oi)" rx="10" ry="10" style="stroke: #000000; stroke-width: 1.0;"/><ellipse cx="155" cy="232.4375" fill="#000000" filter="url(#fqzc9oi)" rx="6" ry="6" style="stroke: none; stroke-width: 1.0;"/><line style="stroke: #A80036; stroke-width: 1.5;" x1="154.5" x2="154.5" y1="30" y2="50"/><polygon fill="#A80036" points="150.5,40,154.5,50,158.5,40,154.5,44" style="stroke: #A80036; stroke-width: 1.0;"/><line style="stroke: #A80036; stroke-width: 1.5;" x1="97.5" x2="80" y1="115.9688" y2="115.9688"/><line style="stroke: #A80036; stroke-width: 1.5;" x1="80" x2="80" y1="115.9688" y2="137.9688"/><polygon fill="#A80036" points="76,127.9688,80,137.9688,84,127.9688,80,131.9688" style="stroke: #A80036; stroke-width: 1.0;"/><line style="stroke: #A80036; stroke-width: 1.5;" x1="211.5" x2="229" y1="115.9688" y2="115.9688"/><line style="stroke: #A80036; stroke-width: 1.5;" x1="229" x2="229" y1="115.9688" y2="137.9688"/><polygon fill="#A80036" points="225,127.9688,229,137.9688,233,127.9688,229,131.9688" style="stroke: #A80036; stroke-width: 1.0;"/><line style="stroke: #A80036; stroke-width: 1.5;" x1="80" x2="80" y1="171.9375" y2="189.9375"/><line style="stroke: #A80036; stroke-width: 1.5;" x1="80" x2="142.5" y1="189.9375" y2="189.9375"/><polygon fill="#A80036" points="132.5,185.9375,142.5,189.9375,132.5,193.9375,136.5,189.9375" style="stroke: #A80036; stroke-width: 1.0;"/><line style="stroke: #A80036; stroke-width: 1.5;" x1="229" x2="229" y1="171.9375" y2="189.9375"/><line style="stroke: #A80036; stroke-width: 1.5;" x1="229" x2="166.5" y1="189.9375" y2="189.9375"/><polygon fill="#A80036" points="176.5,185.9375,166.5,189.9375,176.5,193.9375,172.5,189.9375" style="stroke: #A80036; stroke-width: 1.0;"/><line style="stroke: #A80036; stroke-width: 1.5;" x1="154.5" x2="154.5" y1="83.9688" y2="103.9688"/><polygon fill="#A80036" points="150.5,93.9688,154.5,103.9688,158.5,93.9688,154.5,97.9688" style="stroke: #A80036; stroke-width: 1.0;"/><line style="stroke: #A80036; stroke-width: 1.5;" x1="154.5" x2="154.5" y1="201.9375" y2="221.9375"/><polygon fill="#A80036" points="150.5,211.9375,154.5,221.9375,158.5,211.9375,154.5,215.9375" style="stroke: #A80036; stroke-width: 1.0;"/></g></svg>