<?xml version="1.0" encoding="UTF-8" standalone="no"?><svg xmlns="http://www.w3.org/2000/svg" xmlns:xlink="http://www.w3.org/1999/xlink" contentScriptType="application/ecmascript" contentStyleType="text/css" height="336px" preserveAspectRatio="none" style="width:351px;height:336px;" version="1.1" viewBox="0 0 351 336" width="351px" zoomAndPan="magnify"><defs><filter height="300%" id="f0risqr" width="300%" x="-1" y="-1"><feGaussianBlur result="blurOut" stdDeviation="2.0"/><feColorMatrix in="blurOut" result="blurOut2" type="matrix" values="0 0 0 0 0 0 0 0 0 0 0 0 0 0 0 0 0 0 .4 0"/><feOffset dx="4.0" dy="4.0" in="blurOut2" result="blurOut3"/><feBlend in="SourceGraphic" in2="blurOut3" mode="normal"/></filter></defs><g><ellipse cx="190.5" cy="20" fill="#000000" filter="url(#f0risqr)" rx="10" ry="10" style="stroke: none; stroke-width: 1.0;"/><rect fill="#FEFECE" filter="url(#f0risqr)" height="33.9688" rx="12.5" ry="12.5" style="stroke: #A80036; stroke-width: 1.5;" width="115" x="133" y="105.7104"/><text fill="#000000" font-family="sans-serif" font-size="12" lengthAdjust="spacingAndGlyphs" textLength="95" x="143" y="126.8491">Informar dados</text><polygon fill="#FEFECE" filter="url(#f0risqr)" points="145.5,159.6792,235.5,159.6792,247.5,171.6792,235.5,183.6792,145.5,183.6792,133.5,171.6792,145.5,159.6792" style="stroke: #A80036; stroke-width: 1.5;"/><text fill="#000000" font-family="sans-serif" font-size="11" lengthAdjust="spacingAndGlyphs" textLength="90" x="145.5" y="175.4873">Dados válidos ?</text><text fill="#000000" font-family="sans-serif" font-size="11" lengthAdjust="spacingAndGlyphs" textLength="22" x="111.5" y="169.085">Sim</text><text fill="#000000" font-family="sans-serif" font-size="11" lengthAdjust="spacingAndGlyphs" textLength="22" x="247.5" y="169.085">Não</text><rect fill="#FEFECE" filter="url(#f0risqr)" height="33.9688" rx="12.5" ry="12.5" style="stroke: #A80036; stroke-width: 1.5;" width="140" x="46" y="193.6792"/><text fill="#000000" font-family="sans-serif" font-size="12" lengthAdjust="spacingAndGlyphs" textLength="120" x="56" y="214.8179">Confirmar cadastro</text><rect fill="#FEFECE" filter="url(#f0risqr)" height="33.9688" rx="12.5" ry="12.5" style="stroke: #A80036; stroke-width: 1.5;" width="118" x="206" y="193.6792"/><text fill="#000000" font-family="sans-serif" font-size="12" lengthAdjust="spacingAndGlyphs" textLength="98" x="216" y="214.8179">Negar cadastro</text><ellipse cx="265" cy="257.6479" fill="none" filter="url(#f0risqr)" rx="10" ry="10" style="stroke: #000000; stroke-width: 1.0;"/><ellipse cx="265.5" cy="258.1479" fill="#000000" filter="url(#f0risqr)" rx="6" ry="6" style="stroke: none; stroke-width: 1.0;"/><polygon fill="#FEFECE" filter="url(#f0risqr)" points="106.5,50,274.5,50,286.5,62,274.5,74,106.5,74,94.5,62,106.5,50" style="stroke: #A80036; stroke-width: 1.5;"/><text fill="#000000" font-family="sans-serif" font-size="11" lengthAdjust="spacingAndGlyphs" textLength="22" x="194.5" y="84.2104">Sim</text><text fill="#000000" font-family="sans-serif" font-size="11" lengthAdjust="spacingAndGlyphs" textLength="168" x="106.5" y="65.8081">Cadastrar mais um usuário ?</text><text fill="#000000" font-family="sans-serif" font-size="11" lengthAdjust="spacingAndGlyphs" textLength="22" x="72.5" y="59.4058">Não</text><ellipse cx="190.5" cy="319.6479" fill="none" filter="url(#f0risqr)" rx="10" ry="10" style="stroke: #000000; stroke-width: 1.0;"/><ellipse cx="191" cy="320.1479" fill="#000000" filter="url(#f0risqr)" rx="6" ry="6" style="stroke: none; stroke-width: 1.0;"/><line style="stroke: #A80036; stroke-width: 1.5;" x1="265" x2="265" y1="227.6479" y2="247.6479"/><polygon fill="#A80036" points="261,237.6479,265,247.6479,269,237.6479,265,241.6479" style="stroke: #A80036; stroke-width: 1.0;"/><line style="stroke: #A80036; stroke-width: 1.5;" x1="133.5" x2="116" y1="171.6792" y2="171.6792"/><line style="stroke: #A80036; stroke-width: 1.5;" x1="116" x2="116" y1="171.6792" y2="193.6792"/><polygon fill="#A80036" points="112,183.6792,116,193.6792,120,183.6792,116,187.6792" style="stroke: #A80036; stroke-width: 1.0;"/><line style="stroke: #A80036; stroke-width: 1.5;" x1="247.5" x2="265" y1="171.6792" y2="171.6792"/><line style="stroke: #A80036; stroke-width: 1.5;" x1="265" x2="265" y1="171.6792" y2="193.6792"/><polygon fill="#A80036" points="261,183.6792,265,193.6792,269,183.6792,265,187.6792" style="stroke: #A80036; stroke-width: 1.0;"/><line style="stroke: #A80036; stroke-width: 1.5;" x1="116" x2="116" y1="227.6479" y2="272.6479"/><line style="stroke: #A80036; stroke-width: 1.5;" x1="116" x2="346" y1="272.6479" y2="272.6479"/><polygon fill="#A80036" points="342,175.2769,346,165.2769,350,175.2769,346,171.2769" style="stroke: #A80036; stroke-width: 1.5;"/><line style="stroke: #A80036; stroke-width: 1.5;" x1="346" x2="346" y1="62" y2="272.6479"/><line style="stroke: #A80036; stroke-width: 1.5;" x1="346" x2="286.5" y1="62" y2="62"/><polygon fill="#A80036" points="296.5,58,286.5,62,296.5,66,292.5,62" style="stroke: #A80036; stroke-width: 1.0;"/><line style="stroke: #A80036; stroke-width: 1.5;" x1="190.5" x2="190.5" y1="139.6792" y2="159.6792"/><polygon fill="#A80036" points="186.5,149.6792,190.5,159.6792,194.5,149.6792,190.5,153.6792" style="stroke: #A80036; stroke-width: 1.0;"/><line style="stroke: #A80036; stroke-width: 1.5;" x1="190.5" x2="190.5" y1="74" y2="105.7104"/><polygon fill="#A80036" points="186.5,95.7104,190.5,105.7104,194.5,95.7104,190.5,99.7104" style="stroke: #A80036; stroke-width: 1.0;"/><line style="stroke: #A80036; stroke-width: 1.5;" x1="94.5" x2="24" y1="62" y2="62"/><polygon fill="#A80036" points="20,167.2769,24,177.2769,28,167.2769,24,171.2769" style="stroke: #A80036; stroke-width: 1.5;"/><line style="stroke: #A80036; stroke-width: 1.5;" x1="24" x2="24" y1="62" y2="289.6479"/><line style="stroke: #A80036; stroke-width: 1.5;" x1="24" x2="190.5" y1="289.6479" y2="289.6479"/><line style="stroke: #A80036; stroke-width: 1.5;" x1="190.5" x2="190.5" y1="289.6479" y2="309.6479"/><polygon fill="#A80036" points="186.5,299.6479,190.5,309.6479,194.5,299.6479,190.5,303.6479" style="stroke: #A80036; stroke-width: 1.0;"/><line style="stroke: #A80036; stroke-width: 1.5;" x1="190.5" x2="190.5" y1="30" y2="50"/><polygon fill="#A80036" points="186.5,40,190.5,50,194.5,40,190.5,44" style="stroke: #A80036; stroke-width: 1.0;"/></g></svg>