<?xml version="1.0" encoding="UTF-8" standalone="no"?><svg xmlns="http://www.w3.org/2000/svg" xmlns:xlink="http://www.w3.org/1999/xlink" contentScriptType="application/ecmascript" contentStyleType="text/css" height="326px" preserveAspectRatio="none" style="width:351px;height:326px;" version="1.1" viewBox="0 0 351 326" width="351px" zoomAndPan="magnify"><defs><filter height="300%" id="f28qmlz" width="300%" x="-1" y="-1"><feGaussianBlur result="blurOut" stdDeviation="2.0"/><feColorMatrix in="blurOut" result="blurOut2" type="matrix" values="0 0 0 0 0 0 0 0 0 0 0 0 0 0 0 0 0 0 .4 0"/><feOffset dx="4.0" dy="4.0" in="blurOut2" result="blurOut3"/><feBlend in="SourceGraphic" in2="blurOut3" mode="normal"/></filter></defs><g><ellipse cx="190.5" cy="20" fill="#000000" filter="url(#f28qmlz)" rx="10" ry="10" style="stroke: none; stroke-width: 1.0;"/><rect fill="#FEFECE" filter="url(#f28qmlz)" height="33.9688" rx="12.5" ry="12.5" style="stroke: #A80036; stroke-width: 1.5;" width="115" x="133" y="105.7104"/><text fill="#000000" font-family="sans-serif" font-size="12" lengthAdjust="spacingAndGlyphs" textLength="95" x="143" y="126.8491">Informar dados</text><polygon fill="#FEFECE" filter="url(#f28qmlz)" points="145.5,159.6792,235.5,159.6792,247.5,171.6792,235.5,183.6792,145.5,183.6792,133.5,171.6792,145.5,159.6792" style="stroke: #A80036; stroke-width: 1.5;"/><text fill="#000000" font-family="sans-serif" font-size="11" lengthAdjust="spacingAndGlyphs" textLength="90" x="145.5" y="175.4873">Dados válidos ?</text><text fill="#000000" font-family="sans-serif" font-size="11" lengthAdjust="spacingAndGlyphs" textLength="22" x="111.5" y="169.085">Sim</text><text fill="#000000" font-family="sans-serif" font-size="11" lengthAdjust="spacingAndGlyphs" textLength="22" x="247.5" y="169.085">Não</text><rect fill="#FEFECE" filter="url(#f28qmlz)" height="33.9688" rx="12.5" ry="12.5" style="stroke: #A80036; stroke-width: 1.5;" width="140" x="46" y="193.6792"/><text fill="#000000" font-family="sans-serif" font-size="12" lengthAdjust="spacingAndGlyphs" textLength="120" x="56" y="214.8179">Confirmar cadastro</text><rect fill="#FEFECE" filter="url(#f28qmlz)" height="33.9688" rx="12.5" ry="12.5" style="stroke: #A80036; stroke-width: 1.5;" width="118" x="206" y="193.6792"/><text fill="#000000" font-family="sans-serif" font-size="12" lengthAdjust="spacingAndGlyphs" textLength="98" x="216" y="214.8179">Negar cadastro</text><polygon fill="#FEFECE" filter="url(#f28qmlz)" points="190.5,233.6479,202.5,245.6479,190.5,257.6479,178.5,245.6479,190.5,233.6479" style="stroke: #A80036; stroke-width: 1.5;"/><polygon fill="#FEFECE" filter="url(#f28qmlz)" points="113,50,268,50,280,62,268,74,113,74,101,62,113,50" style="stroke: #A80036; stroke-width: 1.5;"/><text fill="#000000" font-family="sans-serif" font-size="11" lengthAdjust="spacingAndGlyphs" textLength="22" x="194.5" y="84.2104">Sim</text><text fill="#000000" font-family="sans-serif" font-size="11" lengthAdjust="spacingAndGlyphs" textLength="155" x="113" y="65.8081">Deseja cadastrar usuário ?</text><text fill="#000000" font-family="sans-serif" font-size="11" lengthAdjust="spacingAndGlyphs" textLength="22" x="79" y="59.4058">Não</text><ellipse cx="190.5" cy="309.6479" fill="none" filter="url(#f28qmlz)" rx="10" ry="10" style="stroke: #000000; stroke-width: 1.0;"/><ellipse cx="191" cy="310.1479" fill="#000000" filter="url(#f28qmlz)" rx="6" ry="6" style="stroke: none; stroke-width: 1.0;"/><line style="stroke: #A80036; stroke-width: 1.5;" x1="133.5" x2="116" y1="171.6792" y2="171.6792"/><line style="stroke: #A80036; stroke-width: 1.5;" x1="116" x2="116" y1="171.6792" y2="193.6792"/><polygon fill="#A80036" points="112,183.6792,116,193.6792,120,183.6792,116,187.6792" style="stroke: #A80036; stroke-width: 1.0;"/><line style="stroke: #A80036; stroke-width: 1.5;" x1="247.5" x2="265" y1="171.6792" y2="171.6792"/><line style="stroke: #A80036; stroke-width: 1.5;" x1="265" x2="265" y1="171.6792" y2="193.6792"/><polygon fill="#A80036" points="261,183.6792,265,193.6792,269,183.6792,265,187.6792" style="stroke: #A80036; stroke-width: 1.0;"/><line style="stroke: #A80036; stroke-width: 1.5;" x1="116" x2="116" y1="227.6479" y2="245.6479"/><line style="stroke: #A80036; stroke-width: 1.5;" x1="116" x2="178.5" y1="245.6479" y2="245.6479"/><polygon fill="#A80036" points="168.5,241.6479,178.5,245.6479,168.5,249.6479,172.5,245.6479" style="stroke: #A80036; stroke-width: 1.0;"/><line style="stroke: #A80036; stroke-width: 1.5;" x1="265" x2="265" y1="227.6479" y2="245.6479"/><line style="stroke: #A80036; stroke-width: 1.5;" x1="265" x2="202.5" y1="245.6479" y2="245.6479"/><polygon fill="#A80036" points="212.5,241.6479,202.5,245.6479,212.5,249.6479,208.5,245.6479" style="stroke: #A80036; stroke-width: 1.0;"/><line style="stroke: #A80036; stroke-width: 1.5;" x1="190.5" x2="190.5" y1="139.6792" y2="159.6792"/><polygon fill="#A80036" points="186.5,149.6792,190.5,159.6792,194.5,149.6792,190.5,153.6792" style="stroke: #A80036; stroke-width: 1.0;"/><line style="stroke: #A80036; stroke-width: 1.5;" x1="190.5" x2="190.5" y1="74" y2="105.7104"/><polygon fill="#A80036" points="186.5,95.7104,190.5,105.7104,194.5,95.7104,190.5,99.7104" style="stroke: #A80036; stroke-width: 1.0;"/><line style="stroke: #A80036; stroke-width: 1.5;" x1="190.5" x2="190.5" y1="257.6479" y2="267.6479"/><line style="stroke: #A80036; stroke-width: 1.5;" x1="190.5" x2="346" y1="267.6479" y2="267.6479"/><polygon fill="#A80036" points="342,165.7769,346,155.7769,350,165.7769,346,161.7769" style="stroke: #A80036; stroke-width: 1.5;"/><line style="stroke: #A80036; stroke-width: 1.5;" x1="346" x2="346" y1="62" y2="267.6479"/><line style="stroke: #A80036; stroke-width: 1.5;" x1="346" x2="280" y1="62" y2="62"/><polygon fill="#A80036" points="290,58,280,62,290,66,286,62" style="stroke: #A80036; stroke-width: 1.0;"/><line style="stroke: #A80036; stroke-width: 1.5;" x1="101" x2="24" y1="62" y2="62"/><polygon fill="#A80036" points="20,151.7769,24,161.7769,28,151.7769,24,155.7769" style="stroke: #A80036; stroke-width: 1.5;"/><line style="stroke: #A80036; stroke-width: 1.5;" x1="24" x2="24" y1="62" y2="279.6479"/><line style="stroke: #A80036; stroke-width: 1.5;" x1="24" x2="190.5" y1="279.6479" y2="279.6479"/><line style="stroke: #A80036; stroke-width: 1.5;" x1="190.5" x2="190.5" y1="279.6479" y2="299.6479"/><polygon fill="#A80036" points="186.5,289.6479,190.5,299.6479,194.5,289.6479,190.5,293.6479" style="stroke: #A80036; stroke-width: 1.0;"/><line style="stroke: #A80036; stroke-width: 1.5;" x1="190.5" x2="190.5" y1="30" y2="50"/><polygon fill="#A80036" points="186.5,40,190.5,50,194.5,40,190.5,44" style="stroke: #A80036; stroke-width: 1.0;"/></g></svg>