<?xml version="1.0" encoding="UTF-8" standalone="no"?><svg xmlns="http://www.w3.org/2000/svg" xmlns:xlink="http://www.w3.org/1999/xlink" contentScriptType="application/ecmascript" contentStyleType="text/css" height="491px" preserveAspectRatio="none" style="width:364px;height:491px;" version="1.1" viewBox="0 0 364 491" width="364px" zoomAndPan="magnify"><defs><filter height="300%" id="f0hjqn3" width="300%" x="-1" y="-1"><feGaussianBlur result="blurOut" stdDeviation="2.0"/><feColorMatrix in="blurOut" result="blurOut2" type="matrix" values="0 0 0 0 0 0 0 0 0 0 0 0 0 0 0 0 0 0 .4 0"/><feOffset dx="4.0" dy="4.0" in="blurOut2" result="blurOut3"/><feBlend in="SourceGraphic" in2="blurOut3" mode="normal"/></filter></defs><g><ellipse cx="235.25" cy="20" fill="#000000" filter="url(#f0hjqn3)" rx="10" ry="10" style="stroke: none; stroke-width: 1.0;"/><rect fill="#FEFECE" filter="url(#f0hjqn3)" height="33.9688" rx="12.5" ry="12.5" style="stroke: #A80036; stroke-width: 1.5;" width="161" x="154.75" y="94"/><text fill="#000000" font-family="sans-serif" font-size="12" lengthAdjust="spacingAndGlyphs" textLength="141" x="164.75" y="115.1387">Informar login e senha</text><polygon fill="#FEFECE" filter="url(#f0hjqn3)" points="177.75,147.9688,292.75,147.9688,304.75,159.9688,292.75,171.9688,177.75,171.9688,165.75,159.9688,177.75,147.9688" style="stroke: #A80036; stroke-width: 1.5;"/><text fill="#000000" font-family="sans-serif" font-size="11" lengthAdjust="spacingAndGlyphs" textLength="115" x="177.75" y="163.7769">Esqueceu a senha ?</text><text fill="#000000" font-family="sans-serif" font-size="11" lengthAdjust="spacingAndGlyphs" textLength="22" x="143.75" y="157.3745">Sim</text><rect fill="#FEFECE" filter="url(#f0hjqn3)" height="33.9688" rx="12.5" ry="12.5" style="stroke: #A80036; stroke-width: 1.5;" width="277" x="10" y="181.9688"/><text fill="#000000" font-family="sans-serif" font-size="12" lengthAdjust="spacingAndGlyphs" textLength="257" x="20" y="203.1074">Enviar email de reconfiguração de senha</text><rect fill="#FEFECE" filter="url(#f0hjqn3)" height="33.9688" rx="12.5" ry="12.5" style="stroke: #A80036; stroke-width: 1.5;" width="118" x="89.5" y="250.9375"/><text fill="#000000" font-family="sans-serif" font-size="12" lengthAdjust="spacingAndGlyphs" textLength="98" x="99.5" y="272.0762">Redefinir senha</text><polygon fill="#FEFECE" filter="url(#f0hjqn3)" points="235.25,290.9063,247.25,302.9063,235.25,314.9063,223.25,302.9063,235.25,290.9063" style="stroke: #A80036; stroke-width: 1.5;"/><ellipse cx="235.25" cy="344.9063" fill="none" filter="url(#f0hjqn3)" rx="10" ry="10" style="stroke: #000000; stroke-width: 1.0;"/><ellipse cx="235.75" cy="345.4063" fill="#000000" filter="url(#f0hjqn3)" rx="6" ry="6" style="stroke: none; stroke-width: 1.0;"/><polygon fill="#FEFECE" filter="url(#f0hjqn3)" points="235.25,50,247.25,62,235.25,74,223.25,62,235.25,50" style="stroke: #A80036; stroke-width: 1.5;"/><polygon fill="#FEFECE" filter="url(#f0hjqn3)" points="174.75,366.8052,295.75,366.8052,307.75,378.8052,295.75,390.8052,174.75,390.8052,162.75,378.8052,174.75,366.8052" style="stroke: #A80036; stroke-width: 1.5;"/><text fill="#000000" font-family="sans-serif" font-size="11" lengthAdjust="spacingAndGlyphs" textLength="121" x="174.75" y="382.6133">Autenticação falhou ?</text><text fill="#000000" font-family="sans-serif" font-size="11" lengthAdjust="spacingAndGlyphs" textLength="22" x="307.75" y="376.2109">Sim</text><rect fill="#FEFECE" filter="url(#f0hjqn3)" height="33.9688" rx="12.5" ry="12.5" style="stroke: #A80036; stroke-width: 1.5;" width="106" x="182.25" y="410.8052"/><text fill="#000000" font-family="sans-serif" font-size="12" lengthAdjust="spacingAndGlyphs" textLength="86" x="192.25" y="431.9438">Iniciar sessão</text><ellipse cx="235.25" cy="474.7739" fill="none" filter="url(#f0hjqn3)" rx="10" ry="10" style="stroke: #000000; stroke-width: 1.0;"/><ellipse cx="235.75" cy="475.2739" fill="#000000" filter="url(#f0hjqn3)" rx="6" ry="6" style="stroke: none; stroke-width: 1.0;"/><line style="stroke: #A80036; stroke-width: 1.5;" x1="148.5" x2="148.5" y1="215.9375" y2="250.9375"/><polygon fill="#A80036" points="144.5,240.9375,148.5,250.9375,152.5,240.9375,148.5,244.9375" style="stroke: #A80036; stroke-width: 1.0;"/><line style="stroke: #A80036; stroke-width: 1.5;" x1="165.75" x2="148.5" y1="159.9688" y2="159.9688"/><line style="stroke: #A80036; stroke-width: 1.5;" x1="148.5" x2="148.5" y1="159.9688" y2="181.9688"/><polygon fill="#A80036" points="144.5,171.9688,148.5,181.9688,152.5,171.9688,148.5,175.9688" style="stroke: #A80036; stroke-width: 1.0;"/><line style="stroke: #A80036; stroke-width: 1.5;" x1="304.75" x2="322" y1="159.9688" y2="159.9688"/><polygon fill="#A80036" points="318,221.4375,322,231.4375,326,221.4375,322,225.4375" style="stroke: #A80036; stroke-width: 1.5;"/><line style="stroke: #A80036; stroke-width: 1.5;" x1="322" x2="322" y1="159.9688" y2="302.9063"/><line style="stroke: #A80036; stroke-width: 1.5;" x1="322" x2="247.25" y1="302.9063" y2="302.9063"/><polygon fill="#A80036" points="257.25,298.9063,247.25,302.9063,257.25,306.9063,253.25,302.9063" style="stroke: #A80036; stroke-width: 1.0;"/><line style="stroke: #A80036; stroke-width: 1.5;" x1="148.5" x2="148.5" y1="284.9063" y2="302.9063"/><line style="stroke: #A80036; stroke-width: 1.5;" x1="148.5" x2="223.25" y1="302.9063" y2="302.9063"/><polygon fill="#A80036" points="213.25,298.9063,223.25,302.9063,213.25,306.9063,217.25,302.9063" style="stroke: #A80036; stroke-width: 1.0;"/><line style="stroke: #A80036; stroke-width: 1.5;" x1="235.25" x2="235.25" y1="127.9688" y2="147.9688"/><polygon fill="#A80036" points="231.25,137.9688,235.25,147.9688,239.25,137.9688,235.25,141.9688" style="stroke: #A80036; stroke-width: 1.0;"/><line style="stroke: #A80036; stroke-width: 1.5;" x1="235.25" x2="235.25" y1="314.9063" y2="334.9063"/><polygon fill="#A80036" points="231.25,324.9063,235.25,334.9063,239.25,324.9063,235.25,328.9063" style="stroke: #A80036; stroke-width: 1.0;"/><line style="stroke: #A80036; stroke-width: 1.5;" x1="235.25" x2="235.25" y1="74" y2="94"/><polygon fill="#A80036" points="231.25,84,235.25,94,239.25,84,235.25,88" style="stroke: #A80036; stroke-width: 1.0;"/><line style="stroke: #A80036; stroke-width: 1.5;" x1="307.75" x2="359" y1="378.8052" y2="378.8052"/><polygon fill="#A80036" points="355,258.4531,359,248.4531,363,258.4531,359,254.4531" style="stroke: #A80036; stroke-width: 1.5;"/><line style="stroke: #A80036; stroke-width: 1.5;" x1="359" x2="359" y1="62" y2="378.8052"/><line style="stroke: #A80036; stroke-width: 1.5;" x1="359" x2="247.25" y1="62" y2="62"/><polygon fill="#A80036" points="257.25,58,247.25,62,257.25,66,253.25,62" style="stroke: #A80036; stroke-width: 1.0;"/><line style="stroke: #A80036; stroke-width: 1.5;" x1="235.25" x2="235.25" y1="30" y2="50"/><polygon fill="#A80036" points="231.25,40,235.25,50,239.25,40,235.25,44" style="stroke: #A80036; stroke-width: 1.0;"/><line style="stroke: #A80036; stroke-width: 1.5;" x1="235.25" x2="235.25" y1="390.8052" y2="410.8052"/><polygon fill="#A80036" points="231.25,400.8052,235.25,410.8052,239.25,400.8052,235.25,404.8052" style="stroke: #A80036; stroke-width: 1.0;"/><line style="stroke: #A80036; stroke-width: 1.5;" x1="235.25" x2="235.25" y1="444.7739" y2="464.7739"/><polygon fill="#A80036" points="231.25,454.7739,235.25,464.7739,239.25,454.7739,235.25,458.7739" style="stroke: #A80036; stroke-width: 1.0;"/></g></svg>