<?xml version="1.0" encoding="UTF-8" standalone="no"?><svg xmlns="http://www.w3.org/2000/svg" xmlns:xlink="http://www.w3.org/1999/xlink" contentScriptType="application/ecmascript" contentStyleType="text/css" height="272px" preserveAspectRatio="none" style="width:378px;height:272px;" version="1.1" viewBox="0 0 378 272" width="378px" zoomAndPan="magnify"><defs><filter height="300%" id="fu6k103" width="300%" x="-1" y="-1"><feGaussianBlur result="blurOut" stdDeviation="2.0"/><feColorMatrix in="blurOut" result="blurOut2" type="matrix" values="0 0 0 0 0 0 0 0 0 0 0 0 0 0 0 0 0 0 .4 0"/><feOffset dx="4.0" dy="4.0" in="blurOut2" result="blurOut3"/><feBlend in="SourceGraphic" in2="blurOut3" mode="normal"/></filter></defs><g><ellipse cx="179.5" cy="20" fill="#000000" filter="url(#fu6k103)" rx="10" ry="10" style="stroke: none; stroke-width: 1.0;"/><rect fill="#FEFECE" filter="url(#fu6k103)" height="33.9688" rx="12.5" ry="12.5" style="stroke: #A80036; stroke-width: 1.5;" width="195" x="82" y="50"/><text fill="#000000" font-family="sans-serif" font-size="12" lengthAdjust="spacingAndGlyphs" textLength="175" x="92" y="71.1387">Informar dados necessários</text><rect fill="#FEFECE" filter="url(#fu6k103)" height="33.9688" rx="12.5" ry="12.5" style="stroke: #A80036; stroke-width: 1.5;" width="152" x="103.5" y="103.9688"/><text fill="#000000" font-family="sans-serif" font-size="12" lengthAdjust="spacingAndGlyphs" textLength="132" x="113.5" y="125.1074">Verificar informações</text><polygon fill="#FEFECE" filter="url(#fu6k103)" points="102,157.9375,257,157.9375,269,169.9375,257,181.9375,102,181.9375,90,169.9375,102,157.9375" style="stroke: #A80036; stroke-width: 1.5;"/><text fill="#000000" font-family="sans-serif" font-size="11" lengthAdjust="spacingAndGlyphs" textLength="155" x="102" y="173.7456">Informações verossímias ?</text><text fill="#000000" font-family="sans-serif" font-size="11" lengthAdjust="spacingAndGlyphs" textLength="22" x="68" y="167.3433">Sim</text><text fill="#000000" font-family="sans-serif" font-size="11" lengthAdjust="spacingAndGlyphs" textLength="22" x="269" y="167.3433">Não</text><rect fill="#FEFECE" filter="url(#fu6k103)" height="33.9688" rx="12.5" ry="12.5" style="stroke: #A80036; stroke-width: 1.5;" width="140" x="10" y="191.9375"/><text fill="#000000" font-family="sans-serif" font-size="12" lengthAdjust="spacingAndGlyphs" textLength="120" x="20" y="213.0762">Confirmar cadastro</text><ellipse cx="80" cy="255.9063" fill="none" filter="url(#fu6k103)" rx="10" ry="10" style="stroke: #000000; stroke-width: 1.0;"/><ellipse cx="80.5" cy="256.4063" fill="#000000" filter="url(#fu6k103)" rx="6" ry="6" style="stroke: none; stroke-width: 1.0;"/><rect fill="#FEFECE" filter="url(#fu6k103)" height="33.9688" rx="12.5" ry="12.5" style="stroke: #A80036; stroke-width: 1.5;" width="185" x="186.5" y="191.9375"/><text fill="#000000" font-family="sans-serif" font-size="12" lengthAdjust="spacingAndGlyphs" textLength="165" x="196.5" y="213.0762">Negar pedido de cadastro</text><ellipse cx="279" cy="255.9063" fill="none" filter="url(#fu6k103)" rx="10" ry="10" style="stroke: #000000; stroke-width: 1.0;"/><ellipse cx="279.5" cy="256.4063" fill="#000000" filter="url(#fu6k103)" rx="6" ry="6" style="stroke: none; stroke-width: 1.0;"/><line style="stroke: #A80036; stroke-width: 1.5;" x1="179.5" x2="179.5" y1="30" y2="50"/><polygon fill="#A80036" points="175.5,40,179.5,50,183.5,40,179.5,44" style="stroke: #A80036; stroke-width: 1.0;"/><line style="stroke: #A80036; stroke-width: 1.5;" x1="179.5" x2="179.5" y1="83.9688" y2="103.9688"/><polygon fill="#A80036" points="175.5,93.9688,179.5,103.9688,183.5,93.9688,179.5,97.9688" style="stroke: #A80036; stroke-width: 1.0;"/><line style="stroke: #A80036; stroke-width: 1.5;" x1="80" x2="80" y1="225.9063" y2="245.9063"/><polygon fill="#A80036" points="76,235.9063,80,245.9063,84,235.9063,80,239.9063" style="stroke: #A80036; stroke-width: 1.0;"/><line style="stroke: #A80036; stroke-width: 1.5;" x1="279" x2="279" y1="225.9063" y2="245.9063"/><polygon fill="#A80036" points="275,235.9063,279,245.9063,283,235.9063,279,239.9063" style="stroke: #A80036; stroke-width: 1.0;"/><line style="stroke: #A80036; stroke-width: 1.5;" x1="90" x2="80" y1="169.9375" y2="169.9375"/><line style="stroke: #A80036; stroke-width: 1.5;" x1="80" x2="80" y1="169.9375" y2="191.9375"/><polygon fill="#A80036" points="76,181.9375,80,191.9375,84,181.9375,80,185.9375" style="stroke: #A80036; stroke-width: 1.0;"/><line style="stroke: #A80036; stroke-width: 1.5;" x1="269" x2="279" y1="169.9375" y2="169.9375"/><line style="stroke: #A80036; stroke-width: 1.5;" x1="279" x2="279" y1="169.9375" y2="191.9375"/><polygon fill="#A80036" points="275,181.9375,279,191.9375,283,181.9375,279,185.9375" style="stroke: #A80036; stroke-width: 1.0;"/><line style="stroke: #A80036; stroke-width: 1.5;" x1="179.5" x2="179.5" y1="137.9375" y2="157.9375"/><polygon fill="#A80036" points="175.5,147.9375,179.5,157.9375,183.5,147.9375,179.5,151.9375" style="stroke: #A80036; stroke-width: 1.0;"/></g></svg>