<?xml version="1.0" encoding="UTF-8" standalone="no"?><svg xmlns="http://www.w3.org/2000/svg" xmlns:xlink="http://www.w3.org/1999/xlink" contentScriptType="application/ecmascript" contentStyleType="text/css" height="459px" preserveAspectRatio="none" style="width:924px;height:459px;" version="1.1" viewBox="0 0 924 459" width="924px" zoomAndPan="magnify"><defs><filter height="300%" id="ffmadk5" width="300%" x="-1" y="-1"><feGaussianBlur result="blurOut" stdDeviation="2.0"/><feColorMatrix in="blurOut" result="blurOut2" type="matrix" values="0 0 0 0 0 0 0 0 0 0 0 0 0 0 0 0 0 0 .4 0"/><feOffset dx="4.0" dy="4.0" in="blurOut2" result="blurOut3"/><feBlend in="SourceGraphic" in2="blurOut3" mode="normal"/></filter></defs><g><ellipse cx="397.4375" cy="20" fill="#000000" filter="url(#ffmadk5)" rx="10" ry="10" style="stroke: none; stroke-width: 1.0;"/><rect fill="#FEFECE" filter="url(#ffmadk5)" height="33.9688" rx="12.5" ry="12.5" style="stroke: #A80036; stroke-width: 1.5;" width="206" x="294.4375" y="50"/><text fill="#000000" font-family="sans-serif" font-size="12" lengthAdjust="spacingAndGlyphs" textLength="186" x="304.4375" y="71.1387">Carregar lista de funcionários</text><rect fill="#FEFECE" filter="url(#ffmadk5)" height="33.9688" rx="12.5" ry="12.5" style="stroke: #A80036; stroke-width: 1.5;" width="109" x="342.9375" y="103.9688"/><text fill="#000000" font-family="sans-serif" font-size="12" lengthAdjust="spacingAndGlyphs" textLength="89" x="352.9375" y="125.1074">Escolher ação</text><polygon fill="#FEFECE" filter="url(#ffmadk5)" points="363.9375,157.9375,430.9375,157.9375,442.9375,169.9375,430.9375,181.9375,363.9375,181.9375,351.9375,169.9375,363.9375,157.9375" style="stroke: #A80036; stroke-width: 1.5;"/><text fill="#000000" font-family="sans-serif" font-size="11" lengthAdjust="spacingAndGlyphs" textLength="67" x="363.9375" y="173.7456">Cadastrar ?</text><text fill="#000000" font-family="sans-serif" font-size="11" lengthAdjust="spacingAndGlyphs" textLength="22" x="329.9375" y="167.3433">Sim</text><text fill="#000000" font-family="sans-serif" font-size="11" lengthAdjust="spacingAndGlyphs" textLength="22" x="442.9375" y="167.3433">Não</text><rect fill="#FEFECE" filter="url(#ffmadk5)" height="33.9688" rx="12.5" ry="12.5" style="stroke: #A80036; stroke-width: 1.5;" width="218" x="55.5" y="191.9375"/><text fill="#000000" font-family="sans-serif" font-size="12" lengthAdjust="spacingAndGlyphs" textLength="198" x="65.5" y="213.0762">Preencher campos de cadastro</text><rect fill="#FEFECE" filter="url(#ffmadk5)" height="33.9688" rx="12.5" ry="12.5" style="stroke: #A80036; stroke-width: 1.5;" width="152" x="88.5" y="260.9063"/><text fill="#000000" font-family="sans-serif" font-size="12" lengthAdjust="spacingAndGlyphs" textLength="132" x="98.5" y="282.0449">Verificar informações</text><polygon fill="#FEFECE" filter="url(#ffmadk5)" points="102,329.875,227,329.875,239,341.875,227,353.875,102,353.875,90,341.875,102,329.875" style="stroke: #A80036; stroke-width: 1.5;"/><text fill="#000000" font-family="sans-serif" font-size="11" lengthAdjust="spacingAndGlyphs" textLength="125" x="102" y="345.6831">Informações válidas ?</text><text fill="#000000" font-family="sans-serif" font-size="11" lengthAdjust="spacingAndGlyphs" textLength="22" x="68" y="339.2808">Sim</text><text fill="#000000" font-family="sans-serif" font-size="11" lengthAdjust="spacingAndGlyphs" textLength="22" x="239" y="339.2808">Não</text><rect fill="#FEFECE" filter="url(#ffmadk5)" height="33.9688" rx="12.5" ry="12.5" style="stroke: #A80036; stroke-width: 1.5;" width="140" x="10" y="363.875"/><text fill="#000000" font-family="sans-serif" font-size="12" lengthAdjust="spacingAndGlyphs" textLength="120" x="20" y="385.0137">Confirmar cadastro</text><ellipse cx="80" cy="442.8438" fill="none" filter="url(#ffmadk5)" rx="10" ry="10" style="stroke: #000000; stroke-width: 1.0;"/><ellipse cx="80.5" cy="443.3438" fill="#000000" filter="url(#ffmadk5)" rx="6" ry="6" style="stroke: none; stroke-width: 1.0;"/><ellipse cx="249" cy="373.875" fill="none" filter="url(#ffmadk5)" rx="10" ry="10" style="stroke: #000000; stroke-width: 1.0;"/><ellipse cx="249.5" cy="374.375" fill="#000000" filter="url(#ffmadk5)" rx="6" ry="6" style="stroke: none; stroke-width: 1.0;"/><polygon fill="#FEFECE" filter="url(#ffmadk5)" points="601.375,191.9375,659.375,191.9375,671.375,203.9375,659.375,215.9375,601.375,215.9375,589.375,203.9375,601.375,191.9375" style="stroke: #A80036; stroke-width: 1.5;"/><text fill="#000000" font-family="sans-serif" font-size="11" lengthAdjust="spacingAndGlyphs" textLength="58" x="601.375" y="207.7456">Atualizar ?</text><text fill="#000000" font-family="sans-serif" font-size="11" lengthAdjust="spacingAndGlyphs" textLength="22" x="567.375" y="201.3433">Sim</text><text fill="#000000" font-family="sans-serif" font-size="11" lengthAdjust="spacingAndGlyphs" textLength="22" x="671.375" y="201.3433">Não</text><rect fill="#FEFECE" filter="url(#ffmadk5)" height="33.9688" rx="12.5" ry="12.5" style="stroke: #A80036; stroke-width: 1.5;" width="269" x="304" y="225.9375"/><text fill="#000000" font-family="sans-serif" font-size="12" lengthAdjust="spacingAndGlyphs" textLength="249" x="314" y="247.0762">Preencher campos que deseja atualizar</text><rect fill="#FEFECE" filter="url(#ffmadk5)" height="33.9688" rx="12.5" ry="12.5" style="stroke: #A80036; stroke-width: 1.5;" width="208" x="334.5" y="294.9063"/><text fill="#000000" font-family="sans-serif" font-size="12" lengthAdjust="spacingAndGlyphs" textLength="188" x="344.5" y="316.0449">Validar informações alteradas</text><rect fill="#FEFECE" filter="url(#ffmadk5)" height="33.9688" rx="12.5" ry="12.5" style="stroke: #A80036; stroke-width: 1.5;" width="129" x="374" y="363.875"/><text fill="#000000" font-family="sans-serif" font-size="12" lengthAdjust="spacingAndGlyphs" textLength="109" x="384" y="385.0137">Salvar alterações</text><ellipse cx="438.5" cy="442.8438" fill="none" filter="url(#ffmadk5)" rx="10" ry="10" style="stroke: #000000; stroke-width: 1.0;"/><ellipse cx="439" cy="443.3438" fill="#000000" filter="url(#ffmadk5)" rx="6" ry="6" style="stroke: none; stroke-width: 1.0;"/><polygon fill="#FEFECE" filter="url(#ffmadk5)" points="798.75,225.9375,845.75,225.9375,857.75,237.9375,845.75,249.9375,798.75,249.9375,786.75,237.9375,798.75,225.9375" style="stroke: #A80036; stroke-width: 1.5;"/><text fill="#000000" font-family="sans-serif" font-size="11" lengthAdjust="spacingAndGlyphs" textLength="47" x="798.75" y="241.7456">Excluir ?</text><text fill="#000000" font-family="sans-serif" font-size="11" lengthAdjust="spacingAndGlyphs" textLength="22" x="764.75" y="235.3433">Sim</text><text fill="#000000" font-family="sans-serif" font-size="11" lengthAdjust="spacingAndGlyphs" textLength="22" x="857.75" y="235.3433">Não</text><rect fill="#FEFECE" filter="url(#ffmadk5)" height="33.9688" rx="12.5" ry="12.5" style="stroke: #A80036; stroke-width: 1.5;" width="269" x="603" y="259.9375"/><text fill="#000000" font-family="sans-serif" font-size="12" lengthAdjust="spacingAndGlyphs" textLength="249" x="613" y="281.0762">Selecionar o funcionário a ser removida</text><rect fill="#FEFECE" filter="url(#ffmadk5)" height="33.9688" rx="12.5" ry="12.5" style="stroke: #A80036; stroke-width: 1.5;" width="139" x="668" y="328.9063"/><text fill="#000000" font-family="sans-serif" font-size="12" lengthAdjust="spacingAndGlyphs" textLength="119" x="678" y="350.0449">Confirmar exclusão</text><ellipse cx="737.5" cy="407.875" fill="none" filter="url(#ffmadk5)" rx="10" ry="10" style="stroke: #000000; stroke-width: 1.0;"/><ellipse cx="738" cy="408.375" fill="#000000" filter="url(#ffmadk5)" rx="6" ry="6" style="stroke: none; stroke-width: 1.0;"/><ellipse cx="907" cy="269.9375" fill="none" filter="url(#ffmadk5)" rx="10" ry="10" style="stroke: #000000; stroke-width: 1.0;"/><ellipse cx="907.5" cy="270.4375" fill="#000000" filter="url(#ffmadk5)" rx="6" ry="6" style="stroke: none; stroke-width: 1.0;"/><line style="stroke: #A80036; stroke-width: 1.5;" x1="397.4375" x2="397.4375" y1="30" y2="50"/><polygon fill="#A80036" points="393.4375,40,397.4375,50,401.4375,40,397.4375,44" style="stroke: #A80036; stroke-width: 1.0;"/><line style="stroke: #A80036; stroke-width: 1.5;" x1="397.4375" x2="397.4375" y1="83.9688" y2="103.9688"/><polygon fill="#A80036" points="393.4375,93.9688,397.4375,103.9688,401.4375,93.9688,397.4375,97.9688" style="stroke: #A80036; stroke-width: 1.0;"/><line style="stroke: #A80036; stroke-width: 1.5;" x1="164.5" x2="164.5" y1="225.9063" y2="260.9063"/><polygon fill="#A80036" points="160.5,250.9063,164.5,260.9063,168.5,250.9063,164.5,254.9063" style="stroke: #A80036; stroke-width: 1.0;"/><line style="stroke: #A80036; stroke-width: 1.5;" x1="80" x2="80" y1="397.8438" y2="432.8438"/><polygon fill="#A80036" points="76,422.8438,80,432.8438,84,422.8438,80,426.8438" style="stroke: #A80036; stroke-width: 1.0;"/><line style="stroke: #A80036; stroke-width: 1.5;" x1="90" x2="80" y1="341.875" y2="341.875"/><line style="stroke: #A80036; stroke-width: 1.5;" x1="80" x2="80" y1="341.875" y2="363.875"/><polygon fill="#A80036" points="76,353.875,80,363.875,84,353.875,80,357.875" style="stroke: #A80036; stroke-width: 1.0;"/><line style="stroke: #A80036; stroke-width: 1.5;" x1="239" x2="249" y1="341.875" y2="341.875"/><line style="stroke: #A80036; stroke-width: 1.5;" x1="249" x2="249" y1="341.875" y2="363.875"/><polygon fill="#A80036" points="245,353.875,249,363.875,253,353.875,249,357.875" style="stroke: #A80036; stroke-width: 1.0;"/><line style="stroke: #A80036; stroke-width: 1.5;" x1="164.5" x2="164.5" y1="294.875" y2="329.875"/><polygon fill="#A80036" points="160.5,319.875,164.5,329.875,168.5,319.875,164.5,323.875" style="stroke: #A80036; stroke-width: 1.0;"/><line style="stroke: #A80036; stroke-width: 1.5;" x1="438.5" x2="438.5" y1="259.9063" y2="294.9063"/><polygon fill="#A80036" points="434.5,284.9063,438.5,294.9063,442.5,284.9063,438.5,288.9063" style="stroke: #A80036; stroke-width: 1.0;"/><line style="stroke: #A80036; stroke-width: 1.5;" x1="438.5" x2="438.5" y1="328.875" y2="363.875"/><polygon fill="#A80036" points="434.5,353.875,438.5,363.875,442.5,353.875,438.5,357.875" style="stroke: #A80036; stroke-width: 1.0;"/><line style="stroke: #A80036; stroke-width: 1.5;" x1="438.5" x2="438.5" y1="397.8438" y2="432.8438"/><polygon fill="#A80036" points="434.5,422.8438,438.5,432.8438,442.5,422.8438,438.5,426.8438" style="stroke: #A80036; stroke-width: 1.0;"/><line style="stroke: #A80036; stroke-width: 1.5;" x1="737.5" x2="737.5" y1="293.9063" y2="328.9063"/><polygon fill="#A80036" points="733.5,318.9063,737.5,328.9063,741.5,318.9063,737.5,322.9063" style="stroke: #A80036; stroke-width: 1.0;"/><line style="stroke: #A80036; stroke-width: 1.5;" x1="737.5" x2="737.5" y1="362.875" y2="397.875"/><polygon fill="#A80036" points="733.5,387.875,737.5,397.875,741.5,387.875,737.5,391.875" style="stroke: #A80036; stroke-width: 1.0;"/><line style="stroke: #A80036; stroke-width: 1.5;" x1="786.75" x2="737.5" y1="237.9375" y2="237.9375"/><line style="stroke: #A80036; stroke-width: 1.5;" x1="737.5" x2="737.5" y1="237.9375" y2="259.9375"/><polygon fill="#A80036" points="733.5,249.9375,737.5,259.9375,741.5,249.9375,737.5,253.9375" style="stroke: #A80036; stroke-width: 1.0;"/><line style="stroke: #A80036; stroke-width: 1.5;" x1="857.75" x2="907" y1="237.9375" y2="237.9375"/><line style="stroke: #A80036; stroke-width: 1.5;" x1="907" x2="907" y1="237.9375" y2="259.9375"/><polygon fill="#A80036" points="903,249.9375,907,259.9375,911,249.9375,907,253.9375" style="stroke: #A80036; stroke-width: 1.0;"/><line style="stroke: #A80036; stroke-width: 1.5;" x1="589.375" x2="438.5" y1="203.9375" y2="203.9375"/><line style="stroke: #A80036; stroke-width: 1.5;" x1="438.5" x2="438.5" y1="203.9375" y2="225.9375"/><polygon fill="#A80036" points="434.5,215.9375,438.5,225.9375,442.5,215.9375,438.5,219.9375" style="stroke: #A80036; stroke-width: 1.0;"/><line style="stroke: #A80036; stroke-width: 1.5;" x1="671.375" x2="822.25" y1="203.9375" y2="203.9375"/><line style="stroke: #A80036; stroke-width: 1.5;" x1="822.25" x2="822.25" y1="203.9375" y2="225.9375"/><polygon fill="#A80036" points="818.25,215.9375,822.25,225.9375,826.25,215.9375,822.25,219.9375" style="stroke: #A80036; stroke-width: 1.0;"/><line style="stroke: #A80036; stroke-width: 1.5;" x1="351.9375" x2="164.5" y1="169.9375" y2="169.9375"/><line style="stroke: #A80036; stroke-width: 1.5;" x1="164.5" x2="164.5" y1="169.9375" y2="191.9375"/><polygon fill="#A80036" points="160.5,181.9375,164.5,191.9375,168.5,181.9375,164.5,185.9375" style="stroke: #A80036; stroke-width: 1.0;"/><line style="stroke: #A80036; stroke-width: 1.5;" x1="442.9375" x2="630.375" y1="169.9375" y2="169.9375"/><line style="stroke: #A80036; stroke-width: 1.5;" x1="630.375" x2="630.375" y1="169.9375" y2="191.9375"/><polygon fill="#A80036" points="626.375,181.9375,630.375,191.9375,634.375,181.9375,630.375,185.9375" style="stroke: #A80036; stroke-width: 1.0;"/><line style="stroke: #A80036; stroke-width: 1.5;" x1="397.4375" x2="397.4375" y1="137.9375" y2="157.9375"/><polygon fill="#A80036" points="393.4375,147.9375,397.4375,157.9375,401.4375,147.9375,397.4375,151.9375" style="stroke: #A80036; stroke-width: 1.0;"/></g></svg>