<?xml version="1.0" encoding="UTF-8" standalone="no"?><svg xmlns="http://www.w3.org/2000/svg" xmlns:xlink="http://www.w3.org/1999/xlink" contentScriptType="application/ecmascript" contentStyleType="text/css" height="655px" preserveAspectRatio="none" style="width:1201px;height:655px;" version="1.1" viewBox="0 0 1201 655" width="1201px" zoomAndPan="magnify"><defs><filter height="300%" id="fvpeh12" width="300%" x="-1" y="-1"><feGaussianBlur result="blurOut" stdDeviation="2.0"/><feColorMatrix in="blurOut" result="blurOut2" type="matrix" values="0 0 0 0 0 0 0 0 0 0 0 0 0 0 0 0 0 0 .4 0"/><feOffset dx="4.0" dy="4.0" in="blurOut2" result="blurOut3"/><feBlend in="SourceGraphic" in2="blurOut3" mode="normal"/></filter></defs><g><ellipse cx="451.875" cy="20" fill="#000000" filter="url(#fvpeh12)" rx="10" ry="10" style="stroke: none; stroke-width: 1.0;"/><rect fill="#FEFECE" filter="url(#fvpeh12)" height="33.9688" rx="12.5" ry="12.5" style="stroke: #A80036; stroke-width: 1.5;" width="206" x="348.875" y="50"/><text fill="#000000" font-family="sans-serif" font-size="12" lengthAdjust="spacingAndGlyphs" textLength="186" x="358.875" y="71.1387">Carregar lista de funcionários</text><rect fill="#FEFECE" filter="url(#fvpeh12)" height="33.9688" rx="12.5" ry="12.5" style="stroke: #A80036; stroke-width: 1.5;" width="109" x="397.375" y="103.9688"/><text fill="#000000" font-family="sans-serif" font-size="12" lengthAdjust="spacingAndGlyphs" textLength="89" x="407.375" y="125.1074">Escolher ação</text><polygon fill="#FEFECE" filter="url(#fvpeh12)" points="418.375,157.9375,485.375,157.9375,497.375,169.9375,485.375,181.9375,418.375,181.9375,406.375,169.9375,418.375,157.9375" style="stroke: #A80036; stroke-width: 1.5;"/><text fill="#000000" font-family="sans-serif" font-size="11" lengthAdjust="spacingAndGlyphs" textLength="67" x="418.375" y="173.7456">Cadastrar ?</text><text fill="#000000" font-family="sans-serif" font-size="11" lengthAdjust="spacingAndGlyphs" textLength="22" x="384.375" y="167.3433">Sim</text><text fill="#000000" font-family="sans-serif" font-size="11" lengthAdjust="spacingAndGlyphs" textLength="22" x="497.375" y="167.3433">Não</text><rect fill="#FEFECE" filter="url(#fvpeh12)" height="33.9688" rx="12.5" ry="12.5" style="stroke: #A80036; stroke-width: 1.5;" width="218" x="55.5" y="191.9375"/><text fill="#000000" font-family="sans-serif" font-size="12" lengthAdjust="spacingAndGlyphs" textLength="198" x="65.5" y="213.0762">Preencher campos de cadastro</text><rect fill="#FEFECE" filter="url(#fvpeh12)" height="33.9688" rx="12.5" ry="12.5" style="stroke: #A80036; stroke-width: 1.5;" width="152" x="88.5" y="260.9063"/><text fill="#000000" font-family="sans-serif" font-size="12" lengthAdjust="spacingAndGlyphs" textLength="132" x="98.5" y="282.0449">Verificar informações</text><polygon fill="#FEFECE" filter="url(#fvpeh12)" points="102,329.875,227,329.875,239,341.875,227,353.875,102,353.875,90,341.875,102,329.875" style="stroke: #A80036; stroke-width: 1.5;"/><text fill="#000000" font-family="sans-serif" font-size="11" lengthAdjust="spacingAndGlyphs" textLength="125" x="102" y="345.6831">Informações válidas ?</text><text fill="#000000" font-family="sans-serif" font-size="11" lengthAdjust="spacingAndGlyphs" textLength="22" x="68" y="339.2808">Sim</text><text fill="#000000" font-family="sans-serif" font-size="11" lengthAdjust="spacingAndGlyphs" textLength="22" x="239" y="339.2808">Não</text><rect fill="#FEFECE" filter="url(#fvpeh12)" height="33.9688" rx="12.5" ry="12.5" style="stroke: #A80036; stroke-width: 1.5;" width="140" x="10" y="363.875"/><text fill="#000000" font-family="sans-serif" font-size="12" lengthAdjust="spacingAndGlyphs" textLength="120" x="20" y="385.0137">Confirmar cadastro</text><polygon fill="#FEFECE" filter="url(#fvpeh12)" points="164.5,403.8438,176.5,415.8438,164.5,427.8438,152.5,415.8438,164.5,403.8438" style="stroke: #A80036; stroke-width: 1.5;"/><polygon fill="#FEFECE" filter="url(#fvpeh12)" points="710.25,191.9375,768.25,191.9375,780.25,203.9375,768.25,215.9375,710.25,215.9375,698.25,203.9375,710.25,191.9375" style="stroke: #A80036; stroke-width: 1.5;"/><text fill="#000000" font-family="sans-serif" font-size="11" lengthAdjust="spacingAndGlyphs" textLength="58" x="710.25" y="207.7456">Atualizar ?</text><text fill="#000000" font-family="sans-serif" font-size="11" lengthAdjust="spacingAndGlyphs" textLength="22" x="676.25" y="201.3433">Sim</text><text fill="#000000" font-family="sans-serif" font-size="11" lengthAdjust="spacingAndGlyphs" textLength="22" x="780.25" y="201.3433">Não</text><rect fill="#FEFECE" filter="url(#fvpeh12)" height="33.9688" rx="12.5" ry="12.5" style="stroke: #A80036; stroke-width: 1.5;" width="269" x="304" y="225.9375"/><text fill="#000000" font-family="sans-serif" font-size="12" lengthAdjust="spacingAndGlyphs" textLength="249" x="314" y="247.0762">Preencher campos que deseja atualizar</text><rect fill="#FEFECE" filter="url(#fvpeh12)" height="33.9688" rx="12.5" ry="12.5" style="stroke: #A80036; stroke-width: 1.5;" width="208" x="334.5" y="294.9063"/><text fill="#000000" font-family="sans-serif" font-size="12" lengthAdjust="spacingAndGlyphs" textLength="188" x="344.5" y="316.0449">Validar informações alteradas</text><rect fill="#FEFECE" filter="url(#fvpeh12)" height="33.9688" rx="12.5" ry="12.5" style="stroke: #A80036; stroke-width: 1.5;" width="129" x="374" y="363.875"/><text fill="#000000" font-family="sans-serif" font-size="12" lengthAdjust="spacingAndGlyphs" textLength="109" x="384" y="385.0137">Salvar alterações</text><polygon fill="#FEFECE" filter="url(#fvpeh12)" points="1016.5,225.9375,1063.5,225.9375,1075.5,237.9375,1063.5,249.9375,1016.5,249.9375,1004.5,237.9375,1016.5,225.9375" style="stroke: #A80036; stroke-width: 1.5;"/><text fill="#000000" font-family="sans-serif" font-size="11" lengthAdjust="spacingAndGlyphs" textLength="47" x="1016.5" y="241.7456">Excluir ?</text><text fill="#000000" font-family="sans-serif" font-size="11" lengthAdjust="spacingAndGlyphs" textLength="22" x="982.5" y="235.3433">Sim</text><text fill="#000000" font-family="sans-serif" font-size="11" lengthAdjust="spacingAndGlyphs" textLength="22" x="1075.5" y="235.3433">Não</text><rect fill="#FEFECE" filter="url(#fvpeh12)" height="33.9688" rx="12.5" ry="12.5" style="stroke: #A80036; stroke-width: 1.5;" width="269" x="749.5" y="259.9375"/><text fill="#000000" font-family="sans-serif" font-size="12" lengthAdjust="spacingAndGlyphs" textLength="249" x="759.5" y="281.0762">Selecionar o funcionário a ser removido</text><polygon fill="#FEFECE" filter="url(#fvpeh12)" points="839.5,328.9063,928.5,328.9063,940.5,340.9063,928.5,352.9063,839.5,352.9063,827.5,340.9063,839.5,328.9063" style="stroke: #A80036; stroke-width: 1.5;"/><text fill="#000000" font-family="sans-serif" font-size="11" lengthAdjust="spacingAndGlyphs" textLength="89" x="839.5" y="344.7144">Excluir da loja ?</text><text fill="#000000" font-family="sans-serif" font-size="11" lengthAdjust="spacingAndGlyphs" textLength="22" x="805.5" y="338.312">Sim</text><text fill="#000000" font-family="sans-serif" font-size="11" lengthAdjust="spacingAndGlyphs" textLength="22" x="940.5" y="338.312">Não</text><rect fill="#FEFECE" filter="url(#fvpeh12)" height="33.9688" rx="12.5" ry="12.5" style="stroke: #A80036; stroke-width: 1.5;" width="217" x="613" y="362.9063"/><text fill="#000000" font-family="sans-serif" font-size="12" lengthAdjust="spacingAndGlyphs" textLength="197" x="623" y="384.0449">Desassociar funcionário da loja</text><polygon fill="#FEFECE" filter="url(#fvpeh12)" points="989,362.9063,1104,362.9063,1116,374.9063,1104,386.9063,989,386.9063,977,374.9063,989,362.9063" style="stroke: #A80036; stroke-width: 1.5;"/><text fill="#000000" font-family="sans-serif" font-size="11" lengthAdjust="spacingAndGlyphs" textLength="115" x="989" y="378.7144">Excluir do sistema ?</text><text fill="#000000" font-family="sans-serif" font-size="11" lengthAdjust="spacingAndGlyphs" textLength="22" x="955" y="372.312">Sim</text><text fill="#000000" font-family="sans-serif" font-size="11" lengthAdjust="spacingAndGlyphs" textLength="22" x="1116" y="372.312">Não</text><rect fill="#FEFECE" filter="url(#fvpeh12)" height="33.9688" rx="12.5" ry="12.5" style="stroke: #A80036; stroke-width: 1.5;" width="214" x="860" y="396.9063"/><text fill="#000000" font-family="sans-serif" font-size="12" lengthAdjust="spacingAndGlyphs" textLength="194" x="870" y="418.0449">Remover funcionário do sitema</text><ellipse cx="1126" cy="406.9063" fill="none" filter="url(#fvpeh12)" rx="10" ry="10" style="stroke: #000000; stroke-width: 1.0;"/><ellipse cx="1126.5" cy="407.4063" fill="#000000" filter="url(#fvpeh12)" rx="6" ry="6" style="stroke: none; stroke-width: 1.0;"/><polygon fill="#FEFECE" filter="url(#fvpeh12)" points="884,440.875,896,452.875,884,464.875,872,452.875,884,440.875" style="stroke: #A80036; stroke-width: 1.5;"/><rect fill="#FEFECE" filter="url(#fvpeh12)" height="33.9688" rx="12.5" ry="12.5" style="stroke: #A80036; stroke-width: 1.5;" width="139" x="814.5" y="484.875"/><text fill="#000000" font-family="sans-serif" font-size="12" lengthAdjust="spacingAndGlyphs" textLength="119" x="824.5" y="506.0137">Confirmar exclusão</text><polygon fill="#FEFECE" filter="url(#fvpeh12)" points="1040,524.8438,1052,536.8438,1040,548.8438,1028,536.8438,1040,524.8438" style="stroke: #A80036; stroke-width: 1.5;"/><polygon fill="#FEFECE" filter="url(#fvpeh12)" points="739.25,554.8438,751.25,566.8438,739.25,578.8438,727.25,566.8438,739.25,554.8438" style="stroke: #A80036; stroke-width: 1.5;"/><polygon fill="#FEFECE" filter="url(#fvpeh12)" points="451.875,584.8438,463.875,596.8438,451.875,608.8438,439.875,596.8438,451.875,584.8438" style="stroke: #A80036; stroke-width: 1.5;"/><ellipse cx="451.875" cy="638.8438" fill="none" filter="url(#fvpeh12)" rx="10" ry="10" style="stroke: #000000; stroke-width: 1.0;"/><ellipse cx="452.375" cy="639.3438" fill="#000000" filter="url(#fvpeh12)" rx="6" ry="6" style="stroke: none; stroke-width: 1.0;"/><line style="stroke: #A80036; stroke-width: 1.5;" x1="451.875" x2="451.875" y1="30" y2="50"/><polygon fill="#A80036" points="447.875,40,451.875,50,455.875,40,451.875,44" style="stroke: #A80036; stroke-width: 1.0;"/><line style="stroke: #A80036; stroke-width: 1.5;" x1="451.875" x2="451.875" y1="83.9688" y2="103.9688"/><polygon fill="#A80036" points="447.875,93.9688,451.875,103.9688,455.875,93.9688,451.875,97.9688" style="stroke: #A80036; stroke-width: 1.0;"/><line style="stroke: #A80036; stroke-width: 1.5;" x1="164.5" x2="164.5" y1="225.9063" y2="260.9063"/><polygon fill="#A80036" points="160.5,250.9063,164.5,260.9063,168.5,250.9063,164.5,254.9063" style="stroke: #A80036; stroke-width: 1.0;"/><line style="stroke: #A80036; stroke-width: 1.5;" x1="90" x2="80" y1="341.875" y2="341.875"/><line style="stroke: #A80036; stroke-width: 1.5;" x1="80" x2="80" y1="341.875" y2="363.875"/><polygon fill="#A80036" points="76,353.875,80,363.875,84,353.875,80,357.875" style="stroke: #A80036; stroke-width: 1.0;"/><line style="stroke: #A80036; stroke-width: 1.5;" x1="239" x2="249" y1="341.875" y2="341.875"/><polygon fill="#A80036" points="245,368.8594,249,378.8594,253,368.8594,249,372.8594" style="stroke: #A80036; stroke-width: 1.5;"/><line style="stroke: #A80036; stroke-width: 1.5;" x1="249" x2="249" y1="341.875" y2="415.8438"/><line style="stroke: #A80036; stroke-width: 1.5;" x1="249" x2="176.5" y1="415.8438" y2="415.8438"/><polygon fill="#A80036" points="186.5,411.8438,176.5,415.8438,186.5,419.8438,182.5,415.8438" style="stroke: #A80036; stroke-width: 1.0;"/><line style="stroke: #A80036; stroke-width: 1.5;" x1="80" x2="80" y1="397.8438" y2="415.8438"/><line style="stroke: #A80036; stroke-width: 1.5;" x1="80" x2="152.5" y1="415.8438" y2="415.8438"/><polygon fill="#A80036" points="142.5,411.8438,152.5,415.8438,142.5,419.8438,146.5,415.8438" style="stroke: #A80036; stroke-width: 1.0;"/><line style="stroke: #A80036; stroke-width: 1.5;" x1="164.5" x2="164.5" y1="294.875" y2="329.875"/><polygon fill="#A80036" points="160.5,319.875,164.5,329.875,168.5,319.875,164.5,323.875" style="stroke: #A80036; stroke-width: 1.0;"/><line style="stroke: #A80036; stroke-width: 1.5;" x1="438.5" x2="438.5" y1="259.9063" y2="294.9063"/><polygon fill="#A80036" points="434.5,284.9063,438.5,294.9063,442.5,284.9063,438.5,288.9063" style="stroke: #A80036; stroke-width: 1.0;"/><line style="stroke: #A80036; stroke-width: 1.5;" x1="438.5" x2="438.5" y1="328.875" y2="363.875"/><polygon fill="#A80036" points="434.5,353.875,438.5,363.875,442.5,353.875,438.5,357.875" style="stroke: #A80036; stroke-width: 1.0;"/><line style="stroke: #A80036; stroke-width: 1.5;" x1="977" x2="967" y1="374.9063" y2="374.9063"/><line style="stroke: #A80036; stroke-width: 1.5;" x1="967" x2="967" y1="374.9063" y2="396.9063"/><polygon fill="#A80036" points="963,386.9063,967,396.9063,971,386.9063,967,390.9063" style="stroke: #A80036; stroke-width: 1.0;"/><line style="stroke: #A80036; stroke-width: 1.5;" x1="1116" x2="1126" y1="374.9063" y2="374.9063"/><line style="stroke: #A80036; stroke-width: 1.5;" x1="1126" x2="1126" y1="374.9063" y2="396.9063"/><polygon fill="#A80036" points="1122,386.9063,1126,396.9063,1130,386.9063,1126,390.9063" style="stroke: #A80036; stroke-width: 1.0;"/><line style="stroke: #A80036; stroke-width: 1.5;" x1="967" x2="967" y1="430.875" y2="452.875"/><line style="stroke: #A80036; stroke-width: 1.5;" x1="967" x2="896" y1="452.875" y2="452.875"/><polygon fill="#A80036" points="906,448.875,896,452.875,906,456.875,902,452.875" style="stroke: #A80036; stroke-width: 1.0;"/><line style="stroke: #A80036; stroke-width: 1.5;" x1="827.5" x2="721.5" y1="340.9063" y2="340.9063"/><line style="stroke: #A80036; stroke-width: 1.5;" x1="721.5" x2="721.5" y1="340.9063" y2="362.9063"/><polygon fill="#A80036" points="717.5,352.9063,721.5,362.9063,725.5,352.9063,721.5,356.9063" style="stroke: #A80036; stroke-width: 1.0;"/><line style="stroke: #A80036; stroke-width: 1.5;" x1="940.5" x2="1046.5" y1="340.9063" y2="340.9063"/><line style="stroke: #A80036; stroke-width: 1.5;" x1="1046.5" x2="1046.5" y1="340.9063" y2="362.9063"/><polygon fill="#A80036" points="1042.5,352.9063,1046.5,362.9063,1050.5,352.9063,1046.5,356.9063" style="stroke: #A80036; stroke-width: 1.0;"/><line style="stroke: #A80036; stroke-width: 1.5;" x1="721.5" x2="721.5" y1="396.875" y2="452.875"/><line style="stroke: #A80036; stroke-width: 1.5;" x1="721.5" x2="872" y1="452.875" y2="452.875"/><polygon fill="#A80036" points="862,448.875,872,452.875,862,456.875,866,452.875" style="stroke: #A80036; stroke-width: 1.0;"/><line style="stroke: #A80036; stroke-width: 1.5;" x1="884" x2="884" y1="293.9063" y2="328.9063"/><polygon fill="#A80036" points="880,318.9063,884,328.9063,888,318.9063,884,322.9063" style="stroke: #A80036; stroke-width: 1.0;"/><line style="stroke: #A80036; stroke-width: 1.5;" x1="884" x2="884" y1="464.875" y2="484.875"/><polygon fill="#A80036" points="880,474.875,884,484.875,888,474.875,884,478.875" style="stroke: #A80036; stroke-width: 1.0;"/><line style="stroke: #A80036; stroke-width: 1.5;" x1="1004.5" x2="884" y1="237.9375" y2="237.9375"/><line style="stroke: #A80036; stroke-width: 1.5;" x1="884" x2="884" y1="237.9375" y2="259.9375"/><polygon fill="#A80036" points="880,249.9375,884,259.9375,888,249.9375,884,253.9375" style="stroke: #A80036; stroke-width: 1.0;"/><line style="stroke: #A80036; stroke-width: 1.5;" x1="1075.5" x2="1196" y1="237.9375" y2="237.9375"/><polygon fill="#A80036" points="1192,385.8906,1196,395.8906,1200,385.8906,1196,389.8906" style="stroke: #A80036; stroke-width: 1.5;"/><line style="stroke: #A80036; stroke-width: 1.5;" x1="1196" x2="1196" y1="237.9375" y2="536.8438"/><line style="stroke: #A80036; stroke-width: 1.5;" x1="1196" x2="1052" y1="536.8438" y2="536.8438"/><polygon fill="#A80036" points="1062,532.8438,1052,536.8438,1062,540.8438,1058,536.8438" style="stroke: #A80036; stroke-width: 1.0;"/><line style="stroke: #A80036; stroke-width: 1.5;" x1="884" x2="884" y1="518.8438" y2="536.8438"/><line style="stroke: #A80036; stroke-width: 1.5;" x1="884" x2="1028" y1="536.8438" y2="536.8438"/><polygon fill="#A80036" points="1018,532.8438,1028,536.8438,1018,540.8438,1022,536.8438" style="stroke: #A80036; stroke-width: 1.0;"/><line style="stroke: #A80036; stroke-width: 1.5;" x1="698.25" x2="438.5" y1="203.9375" y2="203.9375"/><line style="stroke: #A80036; stroke-width: 1.5;" x1="438.5" x2="438.5" y1="203.9375" y2="225.9375"/><polygon fill="#A80036" points="434.5,215.9375,438.5,225.9375,442.5,215.9375,438.5,219.9375" style="stroke: #A80036; stroke-width: 1.0;"/><line style="stroke: #A80036; stroke-width: 1.5;" x1="780.25" x2="1040" y1="203.9375" y2="203.9375"/><line style="stroke: #A80036; stroke-width: 1.5;" x1="1040" x2="1040" y1="203.9375" y2="225.9375"/><polygon fill="#A80036" points="1036,215.9375,1040,225.9375,1044,215.9375,1040,219.9375" style="stroke: #A80036; stroke-width: 1.0;"/><line style="stroke: #A80036; stroke-width: 1.5;" x1="438.5" x2="438.5" y1="397.8438" y2="566.8438"/><line style="stroke: #A80036; stroke-width: 1.5;" x1="438.5" x2="727.25" y1="566.8438" y2="566.8438"/><polygon fill="#A80036" points="717.25,562.8438,727.25,566.8438,717.25,570.8438,721.25,566.8438" style="stroke: #A80036; stroke-width: 1.0;"/><line style="stroke: #A80036; stroke-width: 1.5;" x1="1040" x2="1040" y1="548.8438" y2="566.8438"/><line style="stroke: #A80036; stroke-width: 1.5;" x1="1040" x2="751.25" y1="566.8438" y2="566.8438"/><polygon fill="#A80036" points="761.25,562.8438,751.25,566.8438,761.25,570.8438,757.25,566.8438" style="stroke: #A80036; stroke-width: 1.0;"/><line style="stroke: #A80036; stroke-width: 1.5;" x1="406.375" x2="164.5" y1="169.9375" y2="169.9375"/><line style="stroke: #A80036; stroke-width: 1.5;" x1="164.5" x2="164.5" y1="169.9375" y2="191.9375"/><polygon fill="#A80036" points="160.5,181.9375,164.5,191.9375,168.5,181.9375,164.5,185.9375" style="stroke: #A80036; stroke-width: 1.0;"/><line style="stroke: #A80036; stroke-width: 1.5;" x1="497.375" x2="739.25" y1="169.9375" y2="169.9375"/><line style="stroke: #A80036; stroke-width: 1.5;" x1="739.25" x2="739.25" y1="169.9375" y2="191.9375"/><polygon fill="#A80036" points="735.25,181.9375,739.25,191.9375,743.25,181.9375,739.25,185.9375" style="stroke: #A80036; stroke-width: 1.0;"/><line style="stroke: #A80036; stroke-width: 1.5;" x1="164.5" x2="164.5" y1="427.8438" y2="596.8438"/><line style="stroke: #A80036; stroke-width: 1.5;" x1="164.5" x2="439.875" y1="596.8438" y2="596.8438"/><polygon fill="#A80036" points="429.875,592.8438,439.875,596.8438,429.875,600.8438,433.875,596.8438" style="stroke: #A80036; stroke-width: 1.0;"/><line style="stroke: #A80036; stroke-width: 1.5;" x1="739.25" x2="739.25" y1="578.8438" y2="596.8438"/><line style="stroke: #A80036; stroke-width: 1.5;" x1="739.25" x2="463.875" y1="596.8438" y2="596.8438"/><polygon fill="#A80036" points="473.875,592.8438,463.875,596.8438,473.875,600.8438,469.875,596.8438" style="stroke: #A80036; stroke-width: 1.0;"/><line style="stroke: #A80036; stroke-width: 1.5;" x1="451.875" x2="451.875" y1="137.9375" y2="157.9375"/><polygon fill="#A80036" points="447.875,147.9375,451.875,157.9375,455.875,147.9375,451.875,151.9375" style="stroke: #A80036; stroke-width: 1.0;"/><line style="stroke: #A80036; stroke-width: 1.5;" x1="451.875" x2="451.875" y1="608.8438" y2="628.8438"/><polygon fill="#A80036" points="447.875,618.8438,451.875,628.8438,455.875,618.8438,451.875,622.8438" style="stroke: #A80036; stroke-width: 1.0;"/></g></svg>