<?xml version="1.0" encoding="UTF-8" standalone="no"?><svg xmlns="http://www.w3.org/2000/svg" xmlns:xlink="http://www.w3.org/1999/xlink" contentScriptType="application/ecmascript" contentStyleType="text/css" height="422px" preserveAspectRatio="none" style="width:838px;height:422px;" version="1.1" viewBox="0 0 838 422" width="838px" zoomAndPan="magnify"><defs><filter height="300%" id="f9zd5un" width="300%" x="-1" y="-1"><feGaussianBlur result="blurOut" stdDeviation="2.0"/><feColorMatrix in="blurOut" result="blurOut2" type="matrix" values="0 0 0 0 0 0 0 0 0 0 0 0 0 0 0 0 0 0 .4 0"/><feOffset dx="4.0" dy="4.0" in="blurOut2" result="blurOut3"/><feBlend in="SourceGraphic" in2="blurOut3" mode="normal"/></filter></defs><g><ellipse cx="423" cy="20" fill="#000000" filter="url(#f9zd5un)" rx="10" ry="10" style="stroke: none; stroke-width: 1.0;"/><rect fill="#FEFECE" filter="url(#f9zd5un)" height="33.9688" rx="12.5" ry="12.5" style="stroke: #A80036; stroke-width: 1.5;" width="186" x="330" y="50"/><text fill="#000000" font-family="sans-serif" font-size="12" lengthAdjust="spacingAndGlyphs" textLength="166" x="340" y="71.1387">Carregar lista de produtos</text><rect fill="#FEFECE" filter="url(#f9zd5un)" height="33.9688" rx="12.5" ry="12.5" style="stroke: #A80036; stroke-width: 1.5;" width="109" x="368.5" y="103.9688"/><text fill="#000000" font-family="sans-serif" font-size="12" lengthAdjust="spacingAndGlyphs" textLength="89" x="378.5" y="125.1074">Escolher ação</text><polygon fill="#FEFECE" filter="url(#f9zd5un)" points="85.5,157.9375,152.5,157.9375,164.5,169.9375,152.5,181.9375,85.5,181.9375,73.5,169.9375,85.5,157.9375" style="stroke: #A80036; stroke-width: 1.5;"/><text fill="#000000" font-family="sans-serif" font-size="11" lengthAdjust="spacingAndGlyphs" textLength="22" x="123" y="192.1479">Sim</text><text fill="#000000" font-family="sans-serif" font-size="11" lengthAdjust="spacingAndGlyphs" textLength="67" x="85.5" y="173.7456">Cadastrar ?</text><rect fill="#FEFECE" filter="url(#f9zd5un)" height="33.9688" rx="12.5" ry="12.5" style="stroke: #A80036; stroke-width: 1.5;" width="218" x="10" y="213.6479"/><text fill="#000000" font-family="sans-serif" font-size="12" lengthAdjust="spacingAndGlyphs" textLength="198" x="20" y="234.7866">Preencher campos de cadastro</text><polygon fill="#FEFECE" filter="url(#f9zd5un)" points="353.5,157.9375,411.5,157.9375,423.5,169.9375,411.5,181.9375,353.5,181.9375,341.5,169.9375,353.5,157.9375" style="stroke: #A80036; stroke-width: 1.5;"/><text fill="#000000" font-family="sans-serif" font-size="11" lengthAdjust="spacingAndGlyphs" textLength="22" x="386.5" y="192.1479">Sim</text><text fill="#000000" font-family="sans-serif" font-size="11" lengthAdjust="spacingAndGlyphs" textLength="58" x="353.5" y="173.7456">Atualizar ?</text><rect fill="#FEFECE" filter="url(#f9zd5un)" height="33.9688" rx="12.5" ry="12.5" style="stroke: #A80036; stroke-width: 1.5;" width="269" x="248" y="213.6479"/><text fill="#000000" font-family="sans-serif" font-size="12" lengthAdjust="spacingAndGlyphs" textLength="249" x="258" y="234.7866">Preencher campos que deseja atualizar</text><polygon fill="#FEFECE" filter="url(#f9zd5un)" points="638,157.9375,685,157.9375,697,169.9375,685,181.9375,638,181.9375,626,169.9375,638,157.9375" style="stroke: #A80036; stroke-width: 1.5;"/><text fill="#000000" font-family="sans-serif" font-size="11" lengthAdjust="spacingAndGlyphs" textLength="22" x="665.5" y="192.1479">Sim</text><text fill="#000000" font-family="sans-serif" font-size="11" lengthAdjust="spacingAndGlyphs" textLength="47" x="638" y="173.7456">Excluir ?</text><text fill="#000000" font-family="sans-serif" font-size="11" lengthAdjust="spacingAndGlyphs" textLength="22" x="697" y="167.3433">Não</text><rect fill="#FEFECE" filter="url(#f9zd5un)" height="33.9688" rx="12.5" ry="12.5" style="stroke: #A80036; stroke-width: 1.5;" width="249" x="537" y="213.6479"/><text fill="#000000" font-family="sans-serif" font-size="12" lengthAdjust="spacingAndGlyphs" textLength="229" x="547" y="234.7866">Selecionar o produto a ser removido</text><ellipse cx="821" cy="227.23" fill="none" filter="url(#f9zd5un)" rx="10" ry="10" style="stroke: #000000; stroke-width: 1.0;"/><ellipse cx="821.5" cy="227.73" fill="#000000" filter="url(#f9zd5un)" rx="6" ry="6" style="stroke: none; stroke-width: 1.0;"/><rect fill="#FEFECE" filter="url(#f9zd5un)" height="33.9688" rx="12.5" ry="12.5" style="stroke: #A80036; stroke-width: 1.5;" width="208" x="319" y="287.6167"/><text fill="#000000" font-family="sans-serif" font-size="12" lengthAdjust="spacingAndGlyphs" textLength="188" x="329" y="308.7554">Validar informações alteradas</text><rect fill="#FEFECE" filter="url(#f9zd5un)" height="33.9688" rx="12.5" ry="12.5" style="stroke: #A80036; stroke-width: 1.5;" width="129" x="358.5" y="341.5854"/><text fill="#000000" font-family="sans-serif" font-size="12" lengthAdjust="spacingAndGlyphs" textLength="109" x="368.5" y="362.7241">Salvar alterações</text><ellipse cx="423" cy="405.5542" fill="none" filter="url(#f9zd5un)" rx="10" ry="10" style="stroke: #000000; stroke-width: 1.0;"/><ellipse cx="423.5" cy="406.0542" fill="#000000" filter="url(#f9zd5un)" rx="6" ry="6" style="stroke: none; stroke-width: 1.0;"/><line style="stroke: #A80036; stroke-width: 1.5;" x1="423" x2="423" y1="30" y2="50"/><polygon fill="#A80036" points="419,40,423,50,427,40,423,44" style="stroke: #A80036; stroke-width: 1.0;"/><line style="stroke: #A80036; stroke-width: 1.5;" x1="423" x2="423" y1="83.9688" y2="103.9688"/><polygon fill="#A80036" points="419,93.9688,423,103.9688,427,93.9688,423,97.9688" style="stroke: #A80036; stroke-width: 1.0;"/><line style="stroke: #A80036; stroke-width: 1.5;" x1="119" x2="119" y1="181.9375" y2="213.6479"/><polygon fill="#A80036" points="115,203.6479,119,213.6479,123,203.6479,119,207.6479" style="stroke: #A80036; stroke-width: 1.0;"/><line style="stroke: #A80036; stroke-width: 1.5;" x1="119" x2="119" y1="247.6167" y2="267.6167"/><polygon fill="#A80036" points="115,257.6167,119,267.6167,123,257.6167,119,261.6167" style="stroke: #A80036; stroke-width: 1.0;"/><line style="stroke: #A80036; stroke-width: 1.5;" x1="382.5" x2="382.5" y1="181.9375" y2="213.6479"/><polygon fill="#A80036" points="378.5,203.6479,382.5,213.6479,386.5,203.6479,382.5,207.6479" style="stroke: #A80036; stroke-width: 1.0;"/><line style="stroke: #A80036; stroke-width: 1.5;" x1="382.5" x2="382.5" y1="247.6167" y2="267.6167"/><polygon fill="#A80036" points="378.5,257.6167,382.5,267.6167,386.5,257.6167,382.5,261.6167" style="stroke: #A80036; stroke-width: 1.0;"/><line style="stroke: #A80036; stroke-width: 1.5;" x1="661.5" x2="661.5" y1="181.9375" y2="213.6479"/><polygon fill="#A80036" points="657.5,203.6479,661.5,213.6479,665.5,203.6479,661.5,207.6479" style="stroke: #A80036; stroke-width: 1.0;"/><line style="stroke: #A80036; stroke-width: 1.5;" x1="661.5" x2="661.5" y1="247.6167" y2="267.6167"/><polygon fill="#A80036" points="657.5,257.6167,661.5,267.6167,665.5,257.6167,661.5,261.6167" style="stroke: #A80036; stroke-width: 1.0;"/><line style="stroke: #A80036; stroke-width: 1.5;" x1="164.5" x2="341.5" y1="169.9375" y2="169.9375"/><polygon fill="#A80036" points="331.5,165.9375,341.5,169.9375,331.5,173.9375,335.5,169.9375" style="stroke: #A80036; stroke-width: 1.0;"/><line style="stroke: #A80036; stroke-width: 1.5;" x1="423.5" x2="626" y1="169.9375" y2="169.9375"/><polygon fill="#A80036" points="616,165.9375,626,169.9375,616,173.9375,620,169.9375" style="stroke: #A80036; stroke-width: 1.0;"/><line style="stroke: #A80036; stroke-width: 1.5;" x1="423" x2="423" y1="137.9375" y2="142.9375"/><line style="stroke: #A80036; stroke-width: 1.5;" x1="423" x2="119" y1="142.9375" y2="142.9375"/><line style="stroke: #A80036; stroke-width: 1.5;" x1="119" x2="119" y1="142.9375" y2="157.9375"/><polygon fill="#A80036" points="115,147.9375,119,157.9375,123,147.9375,119,151.9375" style="stroke: #A80036; stroke-width: 1.0;"/><line style="stroke: #A80036; stroke-width: 1.5;" x1="697" x2="821" y1="169.9375" y2="169.9375"/><line style="stroke: #A80036; stroke-width: 1.5;" x1="821" x2="821" y1="169.9375" y2="217.23"/><polygon fill="#A80036" points="817,207.23,821,217.23,825,207.23,821,211.23" style="stroke: #A80036; stroke-width: 1.0;"/><line style="stroke: #A80036; stroke-width: 1.5;" x1="119" x2="661.5" y1="267.6167" y2="267.6167"/><line style="stroke: #A80036; stroke-width: 1.5;" x1="423" x2="423" y1="267.6167" y2="287.6167"/><polygon fill="#A80036" points="419,277.6167,423,287.6167,427,277.6167,423,281.6167" style="stroke: #A80036; stroke-width: 1.0;"/><line style="stroke: #A80036; stroke-width: 1.5;" x1="423" x2="423" y1="321.5854" y2="341.5854"/><polygon fill="#A80036" points="419,331.5854,423,341.5854,427,331.5854,423,335.5854" style="stroke: #A80036; stroke-width: 1.0;"/><line style="stroke: #A80036; stroke-width: 1.5;" x1="423" x2="423" y1="375.5542" y2="395.5542"/><polygon fill="#A80036" points="419,385.5542,423,395.5542,427,385.5542,423,389.5542" style="stroke: #A80036; stroke-width: 1.0;"/></g></svg>