<?xml version="1.0" encoding="UTF-8" standalone="no"?><svg xmlns="http://www.w3.org/2000/svg" xmlns:xlink="http://www.w3.org/1999/xlink" contentScriptType="application/ecmascript" contentStyleType="text/css" height="366px" preserveAspectRatio="none" style="width:529px;height:366px;" version="1.1" viewBox="0 0 529 366" width="529px" zoomAndPan="magnify"><defs><filter height="300%" id="f8i2ypb" width="300%" x="-1" y="-1"><feGaussianBlur result="blurOut" stdDeviation="2.0"/><feColorMatrix in="blurOut" result="blurOut2" type="matrix" values="0 0 0 0 0 0 0 0 0 0 0 0 0 0 0 0 0 0 .4 0"/><feOffset dx="4.0" dy="4.0" in="blurOut2" result="blurOut3"/><feBlend in="SourceGraphic" in2="blurOut3" mode="normal"/></filter></defs><g><ellipse cx="290.5" cy="20" fill="#000000" filter="url(#f8i2ypb)" rx="10" ry="10" style="stroke: none; stroke-width: 1.0;"/><polygon fill="#FEFECE" filter="url(#f8i2ypb)" points="226,50,355,50,367,62,355,74,226,74,214,62,226,50" style="stroke: #A80036; stroke-width: 1.5;"/><text fill="#000000" font-family="sans-serif" font-size="11" lengthAdjust="spacingAndGlyphs" textLength="129" x="226" y="65.8081">Feedback de produto ?</text><text fill="#000000" font-family="sans-serif" font-size="11" lengthAdjust="spacingAndGlyphs" textLength="22" x="192" y="59.4058">Sim</text><text fill="#000000" font-family="sans-serif" font-size="11" lengthAdjust="spacingAndGlyphs" textLength="22" x="367" y="59.4058">Não</text><rect fill="#FEFECE" filter="url(#f8i2ypb)" height="33.9688" rx="12.5" ry="12.5" style="stroke: #A80036; stroke-width: 1.5;" width="259" x="10" y="84"/><text fill="#000000" font-family="sans-serif" font-size="12" lengthAdjust="spacingAndGlyphs" textLength="239" x="20" y="105.1387">Avaliar produto (gostei ou não gostei)</text><polygon fill="#FEFECE" filter="url(#f8i2ypb)" points="389,84,494,84,506,96,494,108,389,108,377,96,389,84" style="stroke: #A80036; stroke-width: 1.5;"/><text fill="#000000" font-family="sans-serif" font-size="11" lengthAdjust="spacingAndGlyphs" textLength="105" x="389" y="99.8081">Feedback de loja ?</text><text fill="#000000" font-family="sans-serif" font-size="11" lengthAdjust="spacingAndGlyphs" textLength="22" x="355" y="93.4058">Sim</text><text fill="#000000" font-family="sans-serif" font-size="11" lengthAdjust="spacingAndGlyphs" textLength="22" x="506" y="93.4058">Não</text><rect fill="#FEFECE" filter="url(#f8i2ypb)" height="33.9688" rx="12.5" ry="12.5" style="stroke: #A80036; stroke-width: 1.5;" width="136" x="299" y="118"/><text fill="#000000" font-family="sans-serif" font-size="12" lengthAdjust="spacingAndGlyphs" textLength="116" x="309" y="139.1387">Escrever feedback</text><rect fill="#FEFECE" filter="url(#f8i2ypb)" height="33.9688" rx="12.5" ry="12.5" style="stroke: #A80036; stroke-width: 1.5;" width="113" x="310.5" y="171.9688"/><text fill="#000000" font-family="sans-serif" font-size="12" lengthAdjust="spacingAndGlyphs" textLength="93" x="320.5" y="193.1074">Dar nota à loja</text><rect fill="#FEFECE" filter="url(#f8i2ypb)" height="33.9688" rx="12.5" ry="12.5" style="stroke: #A80036; stroke-width: 1.5;" width="120" x="307" y="225.9375"/><text fill="#000000" font-family="sans-serif" font-size="12" lengthAdjust="spacingAndGlyphs" textLength="100" x="317" y="247.0762">Enviar feedback</text><polygon fill="#FEFECE" filter="url(#f8i2ypb)" points="441.5,265.9063,453.5,277.9063,441.5,289.9063,429.5,277.9063,441.5,265.9063" style="stroke: #A80036; stroke-width: 1.5;"/><polygon fill="#FEFECE" filter="url(#f8i2ypb)" points="290.5,295.9063,302.5,307.9063,290.5,319.9063,278.5,307.9063,290.5,295.9063" style="stroke: #A80036; stroke-width: 1.5;"/><ellipse cx="290.5" cy="349.9063" fill="none" filter="url(#f8i2ypb)" rx="10" ry="10" style="stroke: #000000; stroke-width: 1.0;"/><ellipse cx="291" cy="350.4063" fill="#000000" filter="url(#f8i2ypb)" rx="6" ry="6" style="stroke: none; stroke-width: 1.0;"/><line style="stroke: #A80036; stroke-width: 1.5;" x1="367" x2="367" y1="151.9688" y2="171.9688"/><polygon fill="#A80036" points="363,161.9688,367,171.9688,371,161.9688,367,165.9688" style="stroke: #A80036; stroke-width: 1.0;"/><line style="stroke: #A80036; stroke-width: 1.5;" x1="367" x2="367" y1="205.9375" y2="225.9375"/><polygon fill="#A80036" points="363,215.9375,367,225.9375,371,215.9375,367,219.9375" style="stroke: #A80036; stroke-width: 1.0;"/><line style="stroke: #A80036; stroke-width: 1.5;" x1="377" x2="367" y1="96" y2="96"/><line style="stroke: #A80036; stroke-width: 1.5;" x1="367" x2="367" y1="96" y2="118"/><polygon fill="#A80036" points="363,108,367,118,371,108,367,112" style="stroke: #A80036; stroke-width: 1.0;"/><line style="stroke: #A80036; stroke-width: 1.5;" x1="506" x2="516" y1="96" y2="96"/><polygon fill="#A80036" points="512,176.9531,516,186.9531,520,176.9531,516,180.9531" style="stroke: #A80036; stroke-width: 1.5;"/><line style="stroke: #A80036; stroke-width: 1.5;" x1="516" x2="516" y1="96" y2="277.9063"/><line style="stroke: #A80036; stroke-width: 1.5;" x1="516" x2="453.5" y1="277.9063" y2="277.9063"/><polygon fill="#A80036" points="463.5,273.9063,453.5,277.9063,463.5,281.9063,459.5,277.9063" style="stroke: #A80036; stroke-width: 1.0;"/><line style="stroke: #A80036; stroke-width: 1.5;" x1="367" x2="367" y1="259.9063" y2="277.9063"/><line style="stroke: #A80036; stroke-width: 1.5;" x1="367" x2="429.5" y1="277.9063" y2="277.9063"/><polygon fill="#A80036" points="419.5,273.9063,429.5,277.9063,419.5,281.9063,423.5,277.9063" style="stroke: #A80036; stroke-width: 1.0;"/><line style="stroke: #A80036; stroke-width: 1.5;" x1="214" x2="139.5" y1="62" y2="62"/><line style="stroke: #A80036; stroke-width: 1.5;" x1="139.5" x2="139.5" y1="62" y2="84"/><polygon fill="#A80036" points="135.5,74,139.5,84,143.5,74,139.5,78" style="stroke: #A80036; stroke-width: 1.0;"/><line style="stroke: #A80036; stroke-width: 1.5;" x1="367" x2="441.5" y1="62" y2="62"/><line style="stroke: #A80036; stroke-width: 1.5;" x1="441.5" x2="441.5" y1="62" y2="84"/><polygon fill="#A80036" points="437.5,74,441.5,84,445.5,74,441.5,78" style="stroke: #A80036; stroke-width: 1.0;"/><line style="stroke: #A80036; stroke-width: 1.5;" x1="139.5" x2="139.5" y1="117.9688" y2="307.9063"/><line style="stroke: #A80036; stroke-width: 1.5;" x1="139.5" x2="278.5" y1="307.9063" y2="307.9063"/><polygon fill="#A80036" points="268.5,303.9063,278.5,307.9063,268.5,311.9063,272.5,307.9063" style="stroke: #A80036; stroke-width: 1.0;"/><line style="stroke: #A80036; stroke-width: 1.5;" x1="441.5" x2="441.5" y1="289.9063" y2="307.9063"/><line style="stroke: #A80036; stroke-width: 1.5;" x1="441.5" x2="302.5" y1="307.9063" y2="307.9063"/><polygon fill="#A80036" points="312.5,303.9063,302.5,307.9063,312.5,311.9063,308.5,307.9063" style="stroke: #A80036; stroke-width: 1.0;"/><line style="stroke: #A80036; stroke-width: 1.5;" x1="290.5" x2="290.5" y1="30" y2="50"/><polygon fill="#A80036" points="286.5,40,290.5,50,294.5,40,290.5,44" style="stroke: #A80036; stroke-width: 1.0;"/><line style="stroke: #A80036; stroke-width: 1.5;" x1="290.5" x2="290.5" y1="319.9063" y2="339.9063"/><polygon fill="#A80036" points="286.5,329.9063,290.5,339.9063,294.5,329.9063,290.5,333.9063" style="stroke: #A80036; stroke-width: 1.0;"/></g></svg>