<?xml version="1.0" encoding="UTF-8" standalone="no"?><svg xmlns="http://www.w3.org/2000/svg" xmlns:xlink="http://www.w3.org/1999/xlink" contentScriptType="application/ecmascript" contentStyleType="text/css" height="314px" preserveAspectRatio="none" style="width:477px;height:314px;" version="1.1" viewBox="0 0 477 314" width="477px" zoomAndPan="magnify"><defs><filter height="300%" id="f9qjpc3" width="300%" x="-1" y="-1"><feGaussianBlur result="blurOut" stdDeviation="2.0"/><feColorMatrix in="blurOut" result="blurOut2" type="matrix" values="0 0 0 0 0 0 0 0 0 0 0 0 0 0 0 0 0 0 .4 0"/><feOffset dx="4.0" dy="4.0" in="blurOut2" result="blurOut3"/><feBlend in="SourceGraphic" in2="blurOut3" mode="normal"/></filter></defs><g><ellipse cx="242.5" cy="20" fill="#000000" filter="url(#f9qjpc3)" rx="10" ry="10" style="stroke: none; stroke-width: 1.0;"/><polygon fill="#FEFECE" filter="url(#f9qjpc3)" points="75,50,204,50,216,62,204,74,75,74,63,62,75,50" style="stroke: #A80036; stroke-width: 1.5;"/><text fill="#000000" font-family="sans-serif" font-size="11" lengthAdjust="spacingAndGlyphs" textLength="22" x="143.5" y="84.2104">Sim</text><text fill="#000000" font-family="sans-serif" font-size="11" lengthAdjust="spacingAndGlyphs" textLength="129" x="75" y="65.8081">Feedback de produto ?</text><rect fill="#FEFECE" filter="url(#f9qjpc3)" height="33.9688" rx="12.5" ry="12.5" style="stroke: #A80036; stroke-width: 1.5;" width="259" x="10" y="105.7104"/><text fill="#000000" font-family="sans-serif" font-size="12" lengthAdjust="spacingAndGlyphs" textLength="239" x="20" y="126.8491">Avaliar produto (gostei ou não gostei)</text><polygon fill="#FEFECE" filter="url(#f9qjpc3)" points="304.5,50,409.5,50,421.5,62,409.5,74,304.5,74,292.5,62,304.5,50" style="stroke: #A80036; stroke-width: 1.5;"/><text fill="#000000" font-family="sans-serif" font-size="11" lengthAdjust="spacingAndGlyphs" textLength="22" x="361" y="84.2104">Sim</text><text fill="#000000" font-family="sans-serif" font-size="11" lengthAdjust="spacingAndGlyphs" textLength="105" x="304.5" y="65.8081">Feedback de loja ?</text><rect fill="#FEFECE" filter="url(#f9qjpc3)" height="33.9688" rx="12.5" ry="12.5" style="stroke: #A80036; stroke-width: 1.5;" width="136" x="289" y="105.7104"/><text fill="#000000" font-family="sans-serif" font-size="12" lengthAdjust="spacingAndGlyphs" textLength="116" x="299" y="126.8491">Escrever feedback</text><rect fill="#FEFECE" filter="url(#f9qjpc3)" height="33.9688" rx="12.5" ry="12.5" style="stroke: #A80036; stroke-width: 1.5;" width="113" x="300.5" y="159.6792"/><text fill="#000000" font-family="sans-serif" font-size="12" lengthAdjust="spacingAndGlyphs" textLength="93" x="310.5" y="180.8179">Dar nota à loja</text><rect fill="#FEFECE" filter="url(#f9qjpc3)" height="33.9688" rx="12.5" ry="12.5" style="stroke: #A80036; stroke-width: 1.5;" width="120" x="297" y="213.6479"/><text fill="#000000" font-family="sans-serif" font-size="12" lengthAdjust="spacingAndGlyphs" textLength="100" x="307" y="234.7866">Enviar feedback</text><ellipse cx="460" cy="173.2612" fill="none" filter="url(#f9qjpc3)" rx="10" ry="10" style="stroke: #000000; stroke-width: 1.0;"/><ellipse cx="460.5" cy="173.7612" fill="#000000" filter="url(#f9qjpc3)" rx="6" ry="6" style="stroke: none; stroke-width: 1.0;"/><ellipse cx="242.5" cy="297.6167" fill="none" filter="url(#f9qjpc3)" rx="10" ry="10" style="stroke: #000000; stroke-width: 1.0;"/><ellipse cx="243" cy="298.1167" fill="#000000" filter="url(#f9qjpc3)" rx="6" ry="6" style="stroke: none; stroke-width: 1.0;"/><line style="stroke: #A80036; stroke-width: 1.5;" x1="357" x2="357" y1="139.6792" y2="159.6792"/><polygon fill="#A80036" points="353,149.6792,357,159.6792,361,149.6792,357,153.6792" style="stroke: #A80036; stroke-width: 1.0;"/><line style="stroke: #A80036; stroke-width: 1.5;" x1="357" x2="357" y1="193.6479" y2="213.6479"/><polygon fill="#A80036" points="353,203.6479,357,213.6479,361,203.6479,357,207.6479" style="stroke: #A80036; stroke-width: 1.0;"/><line style="stroke: #A80036; stroke-width: 1.5;" x1="139.5" x2="139.5" y1="74" y2="105.7104"/><polygon fill="#A80036" points="135.5,95.7104,139.5,105.7104,143.5,95.7104,139.5,99.7104" style="stroke: #A80036; stroke-width: 1.0;"/><line style="stroke: #A80036; stroke-width: 1.5;" x1="139.5" x2="139.5" y1="139.6792" y2="267.6167"/><polygon fill="#A80036" points="135.5,257.6167,139.5,267.6167,143.5,257.6167,139.5,261.6167" style="stroke: #A80036; stroke-width: 1.0;"/><line style="stroke: #A80036; stroke-width: 1.5;" x1="357" x2="357" y1="74" y2="105.7104"/><polygon fill="#A80036" points="353,95.7104,357,105.7104,361,95.7104,357,99.7104" style="stroke: #A80036; stroke-width: 1.0;"/><line style="stroke: #A80036; stroke-width: 1.5;" x1="357" x2="357" y1="247.6167" y2="267.6167"/><polygon fill="#A80036" points="353,257.6167,357,267.6167,361,257.6167,357,261.6167" style="stroke: #A80036; stroke-width: 1.0;"/><line style="stroke: #A80036; stroke-width: 1.5;" x1="216" x2="292.5" y1="62" y2="62"/><polygon fill="#A80036" points="282.5,58,292.5,62,282.5,66,286.5,62" style="stroke: #A80036; stroke-width: 1.0;"/><line style="stroke: #A80036; stroke-width: 1.5;" x1="242.5" x2="242.5" y1="30" y2="35"/><line style="stroke: #A80036; stroke-width: 1.5;" x1="242.5" x2="139.5" y1="35" y2="35"/><line style="stroke: #A80036; stroke-width: 1.5;" x1="139.5" x2="139.5" y1="35" y2="50"/><polygon fill="#A80036" points="135.5,40,139.5,50,143.5,40,139.5,44" style="stroke: #A80036; stroke-width: 1.0;"/><line style="stroke: #A80036; stroke-width: 1.5;" x1="421.5" x2="460" y1="62" y2="62"/><line style="stroke: #A80036; stroke-width: 1.5;" x1="460" x2="460" y1="62" y2="163.2612"/><polygon fill="#A80036" points="456,153.2612,460,163.2612,464,153.2612,460,157.2612" style="stroke: #A80036; stroke-width: 1.0;"/><line style="stroke: #A80036; stroke-width: 1.5;" x1="139.5" x2="357" y1="267.6167" y2="267.6167"/><line style="stroke: #A80036; stroke-width: 1.5;" x1="242.5" x2="242.5" y1="267.6167" y2="287.6167"/><polygon fill="#A80036" points="238.5,277.6167,242.5,287.6167,246.5,277.6167,242.5,281.6167" style="stroke: #A80036; stroke-width: 1.0;"/></g></svg>