<?xml version="1.0" encoding="UTF-8" standalone="no"?><svg xmlns="http://www.w3.org/2000/svg" xmlns:xlink="http://www.w3.org/1999/xlink" contentScriptType="application/ecmascript" contentStyleType="text/css" height="422px" preserveAspectRatio="none" style="width:835px;height:422px;" version="1.1" viewBox="0 0 835 422" width="835px" zoomAndPan="magnify"><defs><filter height="300%" id="fdgn6wu" width="300%" x="-1" y="-1"><feGaussianBlur result="blurOut" stdDeviation="2.0"/><feColorMatrix in="blurOut" result="blurOut2" type="matrix" values="0 0 0 0 0 0 0 0 0 0 0 0 0 0 0 0 0 0 .4 0"/><feOffset dx="4.0" dy="4.0" in="blurOut2" result="blurOut3"/><feBlend in="SourceGraphic" in2="blurOut3" mode="normal"/></filter></defs><g><ellipse cx="421.5" cy="20" fill="#000000" filter="url(#fdgn6wu)" rx="10" ry="10" style="stroke: none; stroke-width: 1.0;"/><rect fill="#FEFECE" filter="url(#fdgn6wu)" height="33.9688" rx="12.5" ry="12.5" style="stroke: #A80036; stroke-width: 1.5;" width="206" x="318.5" y="50"/><text fill="#000000" font-family="sans-serif" font-size="12" lengthAdjust="spacingAndGlyphs" textLength="186" x="328.5" y="71.1387">Carregar lista de funcionários</text><rect fill="#FEFECE" filter="url(#fdgn6wu)" height="33.9688" rx="12.5" ry="12.5" style="stroke: #A80036; stroke-width: 1.5;" width="109" x="367" y="103.9688"/><text fill="#000000" font-family="sans-serif" font-size="12" lengthAdjust="spacingAndGlyphs" textLength="89" x="377" y="125.1074">Escolher ação</text><polygon fill="#FEFECE" filter="url(#fdgn6wu)" points="85.5,157.9375,152.5,157.9375,164.5,169.9375,152.5,181.9375,85.5,181.9375,73.5,169.9375,85.5,157.9375" style="stroke: #A80036; stroke-width: 1.5;"/><text fill="#000000" font-family="sans-serif" font-size="11" lengthAdjust="spacingAndGlyphs" textLength="22" x="123" y="192.1479">Sim</text><text fill="#000000" font-family="sans-serif" font-size="11" lengthAdjust="spacingAndGlyphs" textLength="67" x="85.5" y="173.7456">Cadastrar ?</text><rect fill="#FEFECE" filter="url(#fdgn6wu)" height="33.9688" rx="12.5" ry="12.5" style="stroke: #A80036; stroke-width: 1.5;" width="218" x="10" y="213.6479"/><text fill="#000000" font-family="sans-serif" font-size="12" lengthAdjust="spacingAndGlyphs" textLength="198" x="20" y="234.7866">Preencher campos de cadastro</text><polygon fill="#FEFECE" filter="url(#fdgn6wu)" points="353.5,157.9375,411.5,157.9375,423.5,169.9375,411.5,181.9375,353.5,181.9375,341.5,169.9375,353.5,157.9375" style="stroke: #A80036; stroke-width: 1.5;"/><text fill="#000000" font-family="sans-serif" font-size="11" lengthAdjust="spacingAndGlyphs" textLength="22" x="386.5" y="192.1479">Sim</text><text fill="#000000" font-family="sans-serif" font-size="11" lengthAdjust="spacingAndGlyphs" textLength="58" x="353.5" y="173.7456">Atualizar ?</text><rect fill="#FEFECE" filter="url(#fdgn6wu)" height="33.9688" rx="12.5" ry="12.5" style="stroke: #A80036; stroke-width: 1.5;" width="269" x="248" y="213.6479"/><text fill="#000000" font-family="sans-serif" font-size="12" lengthAdjust="spacingAndGlyphs" textLength="249" x="258" y="234.7866">Preencher campos que deseja atualizar</text><polygon fill="#FEFECE" filter="url(#fdgn6wu)" points="636.5,157.9375,683.5,157.9375,695.5,169.9375,683.5,181.9375,636.5,181.9375,624.5,169.9375,636.5,157.9375" style="stroke: #A80036; stroke-width: 1.5;"/><text fill="#000000" font-family="sans-serif" font-size="11" lengthAdjust="spacingAndGlyphs" textLength="22" x="664" y="192.1479">Sim</text><text fill="#000000" font-family="sans-serif" font-size="11" lengthAdjust="spacingAndGlyphs" textLength="47" x="636.5" y="173.7456">Excluir ?</text><text fill="#000000" font-family="sans-serif" font-size="11" lengthAdjust="spacingAndGlyphs" textLength="22" x="695.5" y="167.3433">Não</text><rect fill="#FEFECE" filter="url(#fdgn6wu)" height="33.9688" rx="12.5" ry="12.5" style="stroke: #A80036; stroke-width: 1.5;" width="246" x="537" y="213.6479"/><text fill="#000000" font-family="sans-serif" font-size="12" lengthAdjust="spacingAndGlyphs" textLength="226" x="547" y="234.7866">Selecionar o usuário a ser removido</text><ellipse cx="818" cy="227.23" fill="none" filter="url(#fdgn6wu)" rx="10" ry="10" style="stroke: #000000; stroke-width: 1.0;"/><ellipse cx="818.5" cy="227.73" fill="#000000" filter="url(#fdgn6wu)" rx="6" ry="6" style="stroke: none; stroke-width: 1.0;"/><rect fill="#FEFECE" filter="url(#fdgn6wu)" height="33.9688" rx="12.5" ry="12.5" style="stroke: #A80036; stroke-width: 1.5;" width="208" x="317.5" y="287.6167"/><text fill="#000000" font-family="sans-serif" font-size="12" lengthAdjust="spacingAndGlyphs" textLength="188" x="327.5" y="308.7554">Validar informações alteradas</text><rect fill="#FEFECE" filter="url(#fdgn6wu)" height="33.9688" rx="12.5" ry="12.5" style="stroke: #A80036; stroke-width: 1.5;" width="129" x="357" y="341.5854"/><text fill="#000000" font-family="sans-serif" font-size="12" lengthAdjust="spacingAndGlyphs" textLength="109" x="367" y="362.7241">Salvar alterações</text><ellipse cx="421.5" cy="405.5542" fill="none" filter="url(#fdgn6wu)" rx="10" ry="10" style="stroke: #000000; stroke-width: 1.0;"/><ellipse cx="422" cy="406.0542" fill="#000000" filter="url(#fdgn6wu)" rx="6" ry="6" style="stroke: none; stroke-width: 1.0;"/><line style="stroke: #A80036; stroke-width: 1.5;" x1="421.5" x2="421.5" y1="30" y2="50"/><polygon fill="#A80036" points="417.5,40,421.5,50,425.5,40,421.5,44" style="stroke: #A80036; stroke-width: 1.0;"/><line style="stroke: #A80036; stroke-width: 1.5;" x1="421.5" x2="421.5" y1="83.9688" y2="103.9688"/><polygon fill="#A80036" points="417.5,93.9688,421.5,103.9688,425.5,93.9688,421.5,97.9688" style="stroke: #A80036; stroke-width: 1.0;"/><line style="stroke: #A80036; stroke-width: 1.5;" x1="119" x2="119" y1="181.9375" y2="213.6479"/><polygon fill="#A80036" points="115,203.6479,119,213.6479,123,203.6479,119,207.6479" style="stroke: #A80036; stroke-width: 1.0;"/><line style="stroke: #A80036; stroke-width: 1.5;" x1="119" x2="119" y1="247.6167" y2="267.6167"/><polygon fill="#A80036" points="115,257.6167,119,267.6167,123,257.6167,119,261.6167" style="stroke: #A80036; stroke-width: 1.0;"/><line style="stroke: #A80036; stroke-width: 1.5;" x1="382.5" x2="382.5" y1="181.9375" y2="213.6479"/><polygon fill="#A80036" points="378.5,203.6479,382.5,213.6479,386.5,203.6479,382.5,207.6479" style="stroke: #A80036; stroke-width: 1.0;"/><line style="stroke: #A80036; stroke-width: 1.5;" x1="382.5" x2="382.5" y1="247.6167" y2="267.6167"/><polygon fill="#A80036" points="378.5,257.6167,382.5,267.6167,386.5,257.6167,382.5,261.6167" style="stroke: #A80036; stroke-width: 1.0;"/><line style="stroke: #A80036; stroke-width: 1.5;" x1="660" x2="660" y1="181.9375" y2="213.6479"/><polygon fill="#A80036" points="656,203.6479,660,213.6479,664,203.6479,660,207.6479" style="stroke: #A80036; stroke-width: 1.0;"/><line style="stroke: #A80036; stroke-width: 1.5;" x1="660" x2="660" y1="247.6167" y2="267.6167"/><polygon fill="#A80036" points="656,257.6167,660,267.6167,664,257.6167,660,261.6167" style="stroke: #A80036; stroke-width: 1.0;"/><line style="stroke: #A80036; stroke-width: 1.5;" x1="164.5" x2="341.5" y1="169.9375" y2="169.9375"/><polygon fill="#A80036" points="331.5,165.9375,341.5,169.9375,331.5,173.9375,335.5,169.9375" style="stroke: #A80036; stroke-width: 1.0;"/><line style="stroke: #A80036; stroke-width: 1.5;" x1="423.5" x2="624.5" y1="169.9375" y2="169.9375"/><polygon fill="#A80036" points="614.5,165.9375,624.5,169.9375,614.5,173.9375,618.5,169.9375" style="stroke: #A80036; stroke-width: 1.0;"/><line style="stroke: #A80036; stroke-width: 1.5;" x1="421.5" x2="421.5" y1="137.9375" y2="142.9375"/><line style="stroke: #A80036; stroke-width: 1.5;" x1="421.5" x2="119" y1="142.9375" y2="142.9375"/><line style="stroke: #A80036; stroke-width: 1.5;" x1="119" x2="119" y1="142.9375" y2="157.9375"/><polygon fill="#A80036" points="115,147.9375,119,157.9375,123,147.9375,119,151.9375" style="stroke: #A80036; stroke-width: 1.0;"/><line style="stroke: #A80036; stroke-width: 1.5;" x1="695.5" x2="818" y1="169.9375" y2="169.9375"/><line style="stroke: #A80036; stroke-width: 1.5;" x1="818" x2="818" y1="169.9375" y2="217.23"/><polygon fill="#A80036" points="814,207.23,818,217.23,822,207.23,818,211.23" style="stroke: #A80036; stroke-width: 1.0;"/><line style="stroke: #A80036; stroke-width: 1.5;" x1="119" x2="660" y1="267.6167" y2="267.6167"/><line style="stroke: #A80036; stroke-width: 1.5;" x1="421.5" x2="421.5" y1="267.6167" y2="287.6167"/><polygon fill="#A80036" points="417.5,277.6167,421.5,287.6167,425.5,277.6167,421.5,281.6167" style="stroke: #A80036; stroke-width: 1.0;"/><line style="stroke: #A80036; stroke-width: 1.5;" x1="421.5" x2="421.5" y1="321.5854" y2="341.5854"/><polygon fill="#A80036" points="417.5,331.5854,421.5,341.5854,425.5,331.5854,421.5,335.5854" style="stroke: #A80036; stroke-width: 1.0;"/><line style="stroke: #A80036; stroke-width: 1.5;" x1="421.5" x2="421.5" y1="375.5542" y2="395.5542"/><polygon fill="#A80036" points="417.5,385.5542,421.5,395.5542,425.5,385.5542,421.5,389.5542" style="stroke: #A80036; stroke-width: 1.0;"/></g></svg>