<?xml version="1.0" encoding="UTF-8" standalone="no"?><svg xmlns="http://www.w3.org/2000/svg" xmlns:xlink="http://www.w3.org/1999/xlink" contentScriptType="application/ecmascript" contentStyleType="text/css" height="951px" preserveAspectRatio="none" style="width:1759px;height:951px;" version="1.1" viewBox="0 0 1759 951" width="1759px" zoomAndPan="magnify"><defs><filter height="300%" id="f7dpkxb" width="300%" x="-1" y="-1"><feGaussianBlur result="blurOut" stdDeviation="2.0"/><feColorMatrix in="blurOut" result="blurOut2" type="matrix" values="0 0 0 0 0 0 0 0 0 0 0 0 0 0 0 0 0 0 .4 0"/><feOffset dx="4.0" dy="4.0" in="blurOut2" result="blurOut3"/><feBlend in="SourceGraphic" in2="blurOut3" mode="normal"/></filter></defs><g><!--class SignInScreen--><rect fill="#FEFECE" filter="url(#f7dpkxb)" height="188.8516" style="stroke: #A80036; stroke-width: 1.5;" width="320" x="6" y="285"/><ellipse cx="120.75" cy="301" fill="#ADD1B2" rx="11" ry="11" style="stroke: #A80036; stroke-width: 1.0;"/><path d="M123.7188,306.6406 Q123.1406,306.9375 122.5,307.0859 Q121.8594,307.2344 121.1563,307.2344 Q118.6563,307.2344 117.3359,305.5859 Q116.0156,303.9375 116.0156,300.8125 Q116.0156,297.6875 117.3359,296.0313 Q118.6563,294.375 121.1563,294.375 Q121.8594,294.375 122.5078,294.5313 Q123.1563,294.6875 123.7188,294.9844 L123.7188,297.7031 Q123.0938,297.125 122.5,296.8516 Q121.9063,296.5781 121.2813,296.5781 Q119.9375,296.5781 119.25,297.6484 Q118.5625,298.7188 118.5625,300.8125 Q118.5625,302.9063 119.25,303.9766 Q119.9375,305.0469 121.2813,305.0469 Q121.9063,305.0469 122.5,304.7734 Q123.0938,304.5 123.7188,303.9219 L123.7188,306.6406 Z "/><text fill="#000000" font-family="sans-serif" font-size="12" lengthAdjust="spacingAndGlyphs" textLength="82" x="141.25" y="305.1543">SignInScreen</text><line style="stroke: #A80036; stroke-width: 1.5;" x1="7" x2="325" y1="317" y2="317"/><text fill="#000000" font-family="sans-serif" font-size="11" lengthAdjust="spacingAndGlyphs" textLength="143" x="12" y="331.2104">-InputTextField loginField:</text><text fill="#000000" font-family="sans-serif" font-size="11" lengthAdjust="spacingAndGlyphs" textLength="200" x="12" y="344.0151">-InputPasswordField passwordField</text><text fill="#000000" font-family="sans-serif" font-size="11" lengthAdjust="spacingAndGlyphs" textLength="59" x="12" y="356.8198">-Text login</text><text fill="#000000" font-family="sans-serif" font-size="11" lengthAdjust="spacingAndGlyphs" textLength="88" x="12" y="369.6245">-Text password</text><text fill="#000000" font-family="sans-serif" font-size="11" lengthAdjust="spacingAndGlyphs" textLength="179" x="12" y="382.4292">-Button buttonSignInWithGoogle</text><text fill="#000000" font-family="sans-serif" font-size="11" lengthAdjust="spacingAndGlyphs" textLength="121" x="12" y="395.2339">-Button buttonSignUp</text><text fill="#000000" font-family="sans-serif" font-size="11" lengthAdjust="spacingAndGlyphs" textLength="182" x="12" y="408.0386">-Button buttonRecoverPassword</text><line style="stroke: #A80036; stroke-width: 1.5;" x1="7" x2="325" y1="414.6328" y2="414.6328"/><text fill="#000000" font-family="sans-serif" font-size="11" lengthAdjust="spacingAndGlyphs" textLength="308" x="12" y="428.8433">-void signInWithCredentials(Text login, Text password)</text><text fill="#000000" font-family="sans-serif" font-size="11" lengthAdjust="spacingAndGlyphs" textLength="136" x="12" y="441.6479">-void signInWithGoogle()</text><text fill="#000000" font-family="sans-serif" font-size="11" lengthAdjust="spacingAndGlyphs" textLength="78" x="12" y="454.4526">-void signUp()</text><text fill="#000000" font-family="sans-serif" font-size="11" lengthAdjust="spacingAndGlyphs" textLength="138" x="12" y="467.2573">-void recoverPassword()</text><!--class Activity--><rect fill="#FEFECE" filter="url(#f7dpkxb)" height="48" style="stroke: #A80036; stroke-width: 1.5;" width="75" x="680.5" y="8"/><ellipse cx="695.5" cy="24" fill="#ADD1B2" rx="11" ry="11" style="stroke: #A80036; stroke-width: 1.0;"/><path d="M698.4688,29.6406 Q697.8906,29.9375 697.25,30.0859 Q696.6094,30.2344 695.9063,30.2344 Q693.4063,30.2344 692.0859,28.5859 Q690.7656,26.9375 690.7656,23.8125 Q690.7656,20.6875 692.0859,19.0313 Q693.4063,17.375 695.9063,17.375 Q696.6094,17.375 697.2578,17.5313 Q697.9063,17.6875 698.4688,17.9844 L698.4688,20.7031 Q697.8438,20.125 697.25,19.8516 Q696.6563,19.5781 696.0313,19.5781 Q694.6875,19.5781 694,20.6484 Q693.3125,21.7188 693.3125,23.8125 Q693.3125,25.9063 694,26.9766 Q694.6875,28.0469 696.0313,28.0469 Q696.6563,28.0469 697.25,27.7734 Q697.8438,27.5 698.4688,26.9219 L698.4688,29.6406 Z "/><text fill="#000000" font-family="sans-serif" font-size="12" lengthAdjust="spacingAndGlyphs" textLength="43" x="709.5" y="28.1543">Activity</text><line style="stroke: #A80036; stroke-width: 1.5;" x1="681.5" x2="754.5" y1="40" y2="40"/><line style="stroke: #A80036; stroke-width: 1.5;" x1="681.5" x2="754.5" y1="48" y2="48"/><!--class SignUpScreen--><rect fill="#FEFECE" filter="url(#f7dpkxb)" height="188.8516" style="stroke: #A80036; stroke-width: 1.5;" width="305" x="331.5" y="285"/><ellipse cx="435.75" cy="301" fill="#ADD1B2" rx="11" ry="11" style="stroke: #A80036; stroke-width: 1.0;"/><path d="M438.7188,306.6406 Q438.1406,306.9375 437.5,307.0859 Q436.8594,307.2344 436.1563,307.2344 Q433.6563,307.2344 432.3359,305.5859 Q431.0156,303.9375 431.0156,300.8125 Q431.0156,297.6875 432.3359,296.0313 Q433.6563,294.375 436.1563,294.375 Q436.8594,294.375 437.5078,294.5313 Q438.1563,294.6875 438.7188,294.9844 L438.7188,297.7031 Q438.0938,297.125 437.5,296.8516 Q436.9063,296.5781 436.2813,296.5781 Q434.9375,296.5781 434.25,297.6484 Q433.5625,298.7188 433.5625,300.8125 Q433.5625,302.9063 434.25,303.9766 Q434.9375,305.0469 436.2813,305.0469 Q436.9063,305.0469 437.5,304.7734 Q438.0938,304.5 438.7188,303.9219 L438.7188,306.6406 Z "/><text fill="#000000" font-family="sans-serif" font-size="12" lengthAdjust="spacingAndGlyphs" textLength="88" x="456.25" y="305.1543">SignUpScreen</text><line style="stroke: #A80036; stroke-width: 1.5;" x1="332.5" x2="635.5" y1="317" y2="317"/><text fill="#000000" font-family="sans-serif" font-size="11" lengthAdjust="spacingAndGlyphs" textLength="148" x="337.5" y="331.2104">-InputTextField nameField:</text><text fill="#000000" font-family="sans-serif" font-size="11" lengthAdjust="spacingAndGlyphs" textLength="143" x="337.5" y="344.0151">-InputTextField loginField:</text><text fill="#000000" font-family="sans-serif" font-size="11" lengthAdjust="spacingAndGlyphs" textLength="200" x="337.5" y="356.8198">-InputPasswordField passwordField</text><text fill="#000000" font-family="sans-serif" font-size="11" lengthAdjust="spacingAndGlyphs" textLength="64" x="337.5" y="369.6245">-Text name</text><text fill="#000000" font-family="sans-serif" font-size="11" lengthAdjust="spacingAndGlyphs" textLength="59" x="337.5" y="382.4292">-Text login</text><text fill="#000000" font-family="sans-serif" font-size="11" lengthAdjust="spacingAndGlyphs" textLength="88" x="337.5" y="395.2339">-Text password</text><text fill="#000000" font-family="sans-serif" font-size="11" lengthAdjust="spacingAndGlyphs" textLength="121" x="337.5" y="408.0386">-Button buttonSignUp</text><text fill="#000000" font-family="sans-serif" font-size="11" lengthAdjust="spacingAndGlyphs" textLength="116" x="337.5" y="420.8433">-Button buttonSignIn</text><line style="stroke: #A80036; stroke-width: 1.5;" x1="332.5" x2="635.5" y1="427.4375" y2="427.4375"/><text fill="#000000" font-family="sans-serif" font-size="11" lengthAdjust="spacingAndGlyphs" textLength="141" x="337.5" y="441.6479">-void signUpWithGoogle()</text><text fill="#000000" font-family="sans-serif" font-size="11" lengthAdjust="spacingAndGlyphs" textLength="293" x="337.5" y="454.4526">-void signUp(Text name, Text login, Text password)</text><text fill="#000000" font-family="sans-serif" font-size="11" lengthAdjust="spacingAndGlyphs" textLength="102" x="337.5" y="467.2573">-void goToSignIn()</text><!--class SearchScreen--><rect fill="#FEFECE" filter="url(#f7dpkxb)" height="99.2188" style="stroke: #A80036; stroke-width: 1.5;" width="156" x="530" y="136.5"/><ellipse cx="561.2" cy="152.5" fill="#ADD1B2" rx="11" ry="11" style="stroke: #A80036; stroke-width: 1.0;"/><path d="M564.1688,158.1406 Q563.5906,158.4375 562.95,158.5859 Q562.3094,158.7344 561.6063,158.7344 Q559.1063,158.7344 557.7859,157.0859 Q556.4656,155.4375 556.4656,152.3125 Q556.4656,149.1875 557.7859,147.5313 Q559.1063,145.875 561.6063,145.875 Q562.3094,145.875 562.9578,146.0313 Q563.6063,146.1875 564.1688,146.4844 L564.1688,149.2031 Q563.5438,148.625 562.95,148.3516 Q562.3563,148.0781 561.7313,148.0781 Q560.3875,148.0781 559.7,149.1484 Q559.0125,150.2188 559.0125,152.3125 Q559.0125,154.4063 559.7,155.4766 Q560.3875,156.5469 561.7313,156.5469 Q562.3563,156.5469 562.95,156.2734 Q563.5438,156 564.1688,155.4219 L564.1688,158.1406 Z "/><text fill="#000000" font-family="sans-serif" font-size="12" lengthAdjust="spacingAndGlyphs" textLength="88" x="578.8" y="156.6543">SearchScreen</text><line style="stroke: #A80036; stroke-width: 1.5;" x1="531" x2="685" y1="168.5" y2="168.5"/><text fill="#000000" font-family="sans-serif" font-size="11" lengthAdjust="spacingAndGlyphs" textLength="144" x="536" y="182.7104">-InputTextField queryField</text><text fill="#000000" font-family="sans-serif" font-size="11" lengthAdjust="spacingAndGlyphs" textLength="64" x="536" y="195.5151">-Text query</text><text fill="#000000" font-family="sans-serif" font-size="11" lengthAdjust="spacingAndGlyphs" textLength="68" x="536" y="208.3198">-List results</text><line style="stroke: #A80036; stroke-width: 1.5;" x1="531" x2="685" y1="214.9141" y2="214.9141"/><text fill="#000000" font-family="sans-serif" font-size="11" lengthAdjust="spacingAndGlyphs" textLength="135" x="536" y="229.1245">-List search(Text query)</text><!--class StoreScreen--><rect fill="#FEFECE" filter="url(#f7dpkxb)" height="112.0234" style="stroke: #A80036; stroke-width: 1.5;" width="211" x="969.5" y="130"/><ellipse cx="1031.75" cy="146" fill="#ADD1B2" rx="11" ry="11" style="stroke: #A80036; stroke-width: 1.0;"/><path d="M1034.7188,151.6406 Q1034.1406,151.9375 1033.5,152.0859 Q1032.8594,152.2344 1032.1563,152.2344 Q1029.6563,152.2344 1028.3359,150.5859 Q1027.0156,148.9375 1027.0156,145.8125 Q1027.0156,142.6875 1028.3359,141.0313 Q1029.6563,139.375 1032.1563,139.375 Q1032.8594,139.375 1033.5078,139.5313 Q1034.1563,139.6875 1034.7188,139.9844 L1034.7188,142.7031 Q1034.0938,142.125 1033.5,141.8516 Q1032.9063,141.5781 1032.2813,141.5781 Q1030.9375,141.5781 1030.25,142.6484 Q1029.5625,143.7188 1029.5625,145.8125 Q1029.5625,147.9063 1030.25,148.9766 Q1030.9375,150.0469 1032.2813,150.0469 Q1032.9063,150.0469 1033.5,149.7734 Q1034.0938,149.5 1034.7188,148.9219 L1034.7188,151.6406 Z "/><text fill="#000000" font-family="sans-serif" font-size="12" lengthAdjust="spacingAndGlyphs" textLength="78" x="1052.25" y="150.1543">StoreScreen</text><line style="stroke: #A80036; stroke-width: 1.5;" x1="970.5" x2="1179.5" y1="162" y2="162"/><text fill="#000000" font-family="sans-serif" font-size="11" lengthAdjust="spacingAndGlyphs" textLength="72" x="975.5" y="176.2104">-Text storeId</text><text fill="#000000" font-family="sans-serif" font-size="11" lengthAdjust="spacingAndGlyphs" textLength="83" x="975.5" y="189.0151">-Text feedback</text><text fill="#000000" font-family="sans-serif" font-size="11" lengthAdjust="spacingAndGlyphs" textLength="95" x="975.5" y="201.8198">-Store storeData</text><line style="stroke: #A80036; stroke-width: 1.5;" x1="970.5" x2="1179.5" y1="208.4141" y2="208.4141"/><text fill="#000000" font-family="sans-serif" font-size="11" lengthAdjust="spacingAndGlyphs" textLength="164" x="975.5" y="222.6245">-Store getStore(Text storeId)</text><text fill="#000000" font-family="sans-serif" font-size="11" lengthAdjust="spacingAndGlyphs" textLength="199" x="975.5" y="235.4292">-void sendFeedback(Text feedback)</text><!--class ProductScreen--><rect fill="#FEFECE" filter="url(#f7dpkxb)" height="112.0234" style="stroke: #A80036; stroke-width: 1.5;" width="213" x="721.5" y="130"/><ellipse cx="777.25" cy="146" fill="#ADD1B2" rx="11" ry="11" style="stroke: #A80036; stroke-width: 1.0;"/><path d="M780.2188,151.6406 Q779.6406,151.9375 779,152.0859 Q778.3594,152.2344 777.6563,152.2344 Q775.1563,152.2344 773.8359,150.5859 Q772.5156,148.9375 772.5156,145.8125 Q772.5156,142.6875 773.8359,141.0313 Q775.1563,139.375 777.6563,139.375 Q778.3594,139.375 779.0078,139.5313 Q779.6563,139.6875 780.2188,139.9844 L780.2188,142.7031 Q779.5938,142.125 779,141.8516 Q778.4063,141.5781 777.7813,141.5781 Q776.4375,141.5781 775.75,142.6484 Q775.0625,143.7188 775.0625,145.8125 Q775.0625,147.9063 775.75,148.9766 Q776.4375,150.0469 777.7813,150.0469 Q778.4063,150.0469 779,149.7734 Q779.5938,149.5 780.2188,148.9219 L780.2188,151.6406 Z "/><text fill="#000000" font-family="sans-serif" font-size="12" lengthAdjust="spacingAndGlyphs" textLength="93" x="797.75" y="150.1543">ProductScreen</text><line style="stroke: #A80036; stroke-width: 1.5;" x1="722.5" x2="933.5" y1="162" y2="162"/><text fill="#000000" font-family="sans-serif" font-size="11" lengthAdjust="spacingAndGlyphs" textLength="85" x="727.5" y="176.2104">-Text productId</text><text fill="#000000" font-family="sans-serif" font-size="11" lengthAdjust="spacingAndGlyphs" textLength="120" x="727.5" y="189.0151">-Product productData</text><line style="stroke: #A80036; stroke-width: 1.5;" x1="722.5" x2="933.5" y1="195.6094" y2="195.6094"/><text fill="#000000" font-family="sans-serif" font-size="11" lengthAdjust="spacingAndGlyphs" textLength="201" x="727.5" y="209.8198">-Product getProduct(Text productId)</text><text fill="#000000" font-family="sans-serif" font-size="11" lengthAdjust="spacingAndGlyphs" textLength="78" x="727.5" y="222.6245">-void upVote()</text><text fill="#000000" font-family="sans-serif" font-size="11" lengthAdjust="spacingAndGlyphs" textLength="94" x="727.5" y="235.4292">-void downVote()</text><!--class AccountManagementScreen--><rect fill="#FEFECE" filter="url(#f7dpkxb)" height="99.2188" style="stroke: #A80036; stroke-width: 1.5;" width="289" x="1461.5" y="136.5"/><ellipse cx="1513.25" cy="152.5" fill="#ADD1B2" rx="11" ry="11" style="stroke: #A80036; stroke-width: 1.0;"/><path d="M1516.2188,158.1406 Q1515.6406,158.4375 1515,158.5859 Q1514.3594,158.7344 1513.6563,158.7344 Q1511.1563,158.7344 1509.8359,157.0859 Q1508.5156,155.4375 1508.5156,152.3125 Q1508.5156,149.1875 1509.8359,147.5313 Q1511.1563,145.875 1513.6563,145.875 Q1514.3594,145.875 1515.0078,146.0313 Q1515.6563,146.1875 1516.2188,146.4844 L1516.2188,149.2031 Q1515.5938,148.625 1515,148.3516 Q1514.4063,148.0781 1513.7813,148.0781 Q1512.4375,148.0781 1511.75,149.1484 Q1511.0625,150.2188 1511.0625,152.3125 Q1511.0625,154.4063 1511.75,155.4766 Q1512.4375,156.5469 1513.7813,156.5469 Q1514.4063,156.5469 1515,156.2734 Q1515.5938,156 1516.2188,155.4219 L1516.2188,158.1406 Z "/><text fill="#000000" font-family="sans-serif" font-size="12" lengthAdjust="spacingAndGlyphs" textLength="177" x="1533.75" y="156.6543">AccountManagementScreen</text><line style="stroke: #A80036; stroke-width: 1.5;" x1="1462.5" x2="1749.5" y1="168.5" y2="168.5"/><text fill="#000000" font-family="sans-serif" font-size="11" lengthAdjust="spacingAndGlyphs" textLength="49" x="1467.5" y="182.7104">-Text uid</text><text fill="#000000" font-family="sans-serif" font-size="11" lengthAdjust="spacingAndGlyphs" textLength="87" x="1467.5" y="195.5151">-User userData</text><line style="stroke: #A80036; stroke-width: 1.5;" x1="1462.5" x2="1749.5" y1="202.1094" y2="202.1094"/><text fill="#000000" font-family="sans-serif" font-size="11" lengthAdjust="spacingAndGlyphs" textLength="133" x="1467.5" y="216.3198">-User getUser(Text uid)</text><text fill="#000000" font-family="sans-serif" font-size="11" lengthAdjust="spacingAndGlyphs" textLength="277" x="1467.5" y="229.1245">-User updateAccountInfo(User updatedUserData)</text><!--class Database--><rect fill="#FEFECE" filter="url(#f7dpkxb)" height="163.2422" style="stroke: #A80036; stroke-width: 1.5;" width="411" x="675.5" y="779"/><ellipse cx="846.25" cy="795" fill="#ADD1B2" rx="11" ry="11" style="stroke: #A80036; stroke-width: 1.0;"/><path d="M849.2188,800.6406 Q848.6406,800.9375 848,801.0859 Q847.3594,801.2344 846.6563,801.2344 Q844.1563,801.2344 842.8359,799.5859 Q841.5156,797.9375 841.5156,794.8125 Q841.5156,791.6875 842.8359,790.0313 Q844.1563,788.375 846.6563,788.375 Q847.3594,788.375 848.0078,788.5313 Q848.6563,788.6875 849.2188,788.9844 L849.2188,791.7031 Q848.5938,791.125 848,790.8516 Q847.4063,790.5781 846.7813,790.5781 Q845.4375,790.5781 844.75,791.6484 Q844.0625,792.7188 844.0625,794.8125 Q844.0625,796.9063 844.75,797.9766 Q845.4375,799.0469 846.7813,799.0469 Q847.4063,799.0469 848,798.7734 Q848.5938,798.5 849.2188,797.9219 L849.2188,800.6406 Z "/><text fill="#000000" font-family="sans-serif" font-size="12" lengthAdjust="spacingAndGlyphs" textLength="61" x="866.75" y="799.1543">Database</text><line style="stroke: #A80036; stroke-width: 1.5;" x1="676.5" x2="1085.5" y1="811" y2="811"/><text fill="#000000" font-family="sans-serif" font-size="11" lengthAdjust="spacingAndGlyphs" text-decoration="underline" textLength="262" x="681.5" y="825.2104">-FirebaseConfiguration databaseConfiguration</text><line style="stroke: #000000; stroke-width: 1.0;" x1="681.5" x2="943.5" y1="827.2104" y2="827.2104"/><line style="stroke: #A80036; stroke-width: 1.5;" x1="676.5" x2="1085.5" y1="831.8047" y2="831.8047"/><text fill="#000000" font-family="sans-serif" font-size="11" lengthAdjust="spacingAndGlyphs" text-decoration="underline" textLength="399" x="681.5" y="846.0151">+Object openConnection(FirebaseConfiguration databaseCofiguration)</text><line style="stroke: #000000; stroke-width: 1.0;" x1="681.5" x2="1080.5" y1="848.0151" y2="848.0151"/><text fill="#000000" font-family="sans-serif" font-size="11" lengthAdjust="spacingAndGlyphs" text-decoration="underline" textLength="185" x="681.5" y="858.8198">+Object getData(Object params)</text><line style="stroke: #000000; stroke-width: 1.0;" x1="681.5" x2="866.5" y1="860.8198" y2="860.8198"/><text fill="#000000" font-family="sans-serif" font-size="11" lengthAdjust="spacingAndGlyphs" text-decoration="underline" textLength="168" x="681.5" y="871.6245">+void insertData(Object data)</text><line style="stroke: #000000; stroke-width: 1.0;" x1="681.5" x2="849.5" y1="873.6245" y2="873.6245"/><text fill="#000000" font-family="sans-serif" font-size="11" lengthAdjust="spacingAndGlyphs" text-decoration="underline" textLength="174" x="681.5" y="884.4292">+void updateData(Object data)</text><line style="stroke: #000000; stroke-width: 1.0;" x1="681.5" x2="855.5" y1="886.4292" y2="886.4292"/><text fill="#000000" font-family="sans-serif" font-size="11" lengthAdjust="spacingAndGlyphs" text-decoration="underline" textLength="143" x="681.5" y="897.2339">+void deleteData(Text id)</text><line style="stroke: #000000; stroke-width: 1.0;" x1="681.5" x2="824.5" y1="899.2339" y2="899.2339"/><text fill="#000000" font-family="sans-serif" font-size="11" lengthAdjust="spacingAndGlyphs" text-decoration="underline" textLength="154" x="681.5" y="910.0386">+Object signInWithGoogle()</text><line style="stroke: #000000; stroke-width: 1.0;" x1="681.5" x2="835.5" y1="912.0386" y2="912.0386"/><text fill="#000000" font-family="sans-serif" font-size="11" lengthAdjust="spacingAndGlyphs" text-decoration="underline" textLength="159" x="681.5" y="922.8433">+Object signUpWithGoogle()</text><line style="stroke: #000000; stroke-width: 1.0;" x1="681.5" x2="840.5" y1="924.8433" y2="924.8433"/><text fill="#000000" font-family="sans-serif" font-size="11" lengthAdjust="spacingAndGlyphs" text-decoration="underline" textLength="311" x="681.5" y="935.6479">+Object signUp(Text name. Text login, Text password)</text><line style="stroke: #000000; stroke-width: 1.0;" x1="681.5" x2="992.5" y1="937.6479" y2="937.6479"/><!--class SearchAPI--><rect fill="#FEFECE" filter="url(#f7dpkxb)" height="73.6094" style="stroke: #A80036; stroke-width: 1.5;" width="171" x="597.5" y="574"/><ellipse cx="647.25" cy="590" fill="#ADD1B2" rx="11" ry="11" style="stroke: #A80036; stroke-width: 1.0;"/><path d="M650.2188,595.6406 Q649.6406,595.9375 649,596.0859 Q648.3594,596.2344 647.6563,596.2344 Q645.1563,596.2344 643.8359,594.5859 Q642.5156,592.9375 642.5156,589.8125 Q642.5156,586.6875 643.8359,585.0313 Q645.1563,583.375 647.6563,583.375 Q648.3594,583.375 649.0078,583.5313 Q649.6563,583.6875 650.2188,583.9844 L650.2188,586.7031 Q649.5938,586.125 649,585.8516 Q648.4063,585.5781 647.7813,585.5781 Q646.4375,585.5781 645.75,586.6484 Q645.0625,587.7188 645.0625,589.8125 Q645.0625,591.9063 645.75,592.9766 Q646.4375,594.0469 647.7813,594.0469 Q648.4063,594.0469 649,593.7734 Q649.5938,593.5 650.2188,592.9219 L650.2188,595.6406 Z "/><text fill="#000000" font-family="sans-serif" font-size="12" lengthAdjust="spacingAndGlyphs" textLength="63" x="667.75" y="594.1543">SearchAPI</text><line style="stroke: #A80036; stroke-width: 1.5;" x1="598.5" x2="767.5" y1="606" y2="606"/><text fill="#000000" font-family="sans-serif" font-size="11" lengthAdjust="spacingAndGlyphs" textLength="64" x="603.5" y="620.2104">-Text query</text><line style="stroke: #A80036; stroke-width: 1.5;" x1="598.5" x2="767.5" y1="626.8047" y2="626.8047"/><text fill="#000000" font-family="sans-serif" font-size="11" lengthAdjust="spacingAndGlyphs" textLength="159" x="603.5" y="641.0151">+List queryData(Text query)</text><!--class Store--><rect fill="#FEFECE" filter="url(#f7dpkxb)" height="214.4609" style="stroke: #A80036; stroke-width: 1.5;" width="137" x="1006.5" y="504"/><ellipse cx="1053.75" cy="520" fill="#ADD1B2" rx="11" ry="11" style="stroke: #A80036; stroke-width: 1.0;"/><path d="M1056.7188,525.6406 Q1056.1406,525.9375 1055.5,526.0859 Q1054.8594,526.2344 1054.1563,526.2344 Q1051.6563,526.2344 1050.3359,524.5859 Q1049.0156,522.9375 1049.0156,519.8125 Q1049.0156,516.6875 1050.3359,515.0313 Q1051.6563,513.375 1054.1563,513.375 Q1054.8594,513.375 1055.5078,513.5313 Q1056.1563,513.6875 1056.7188,513.9844 L1056.7188,516.7031 Q1056.0938,516.125 1055.5,515.8516 Q1054.9063,515.5781 1054.2813,515.5781 Q1052.9375,515.5781 1052.25,516.6484 Q1051.5625,517.7188 1051.5625,519.8125 Q1051.5625,521.9063 1052.25,522.9766 Q1052.9375,524.0469 1054.2813,524.0469 Q1054.9063,524.0469 1055.5,523.7734 Q1056.0938,523.5 1056.7188,522.9219 L1056.7188,525.6406 Z "/><text fill="#000000" font-family="sans-serif" font-size="12" lengthAdjust="spacingAndGlyphs" textLength="34" x="1074.25" y="524.1543">Store</text><line style="stroke: #A80036; stroke-width: 1.5;" x1="1007.5" x2="1142.5" y1="536" y2="536"/><text fill="#000000" font-family="sans-serif" font-size="11" lengthAdjust="spacingAndGlyphs" textLength="125" x="1012.5" y="550.2104">-Array businessTimes</text><text fill="#000000" font-family="sans-serif" font-size="11" lengthAdjust="spacingAndGlyphs" textLength="98" x="1012.5" y="563.0151">-Array categories</text><text fill="#000000" font-family="sans-serif" font-size="11" lengthAdjust="spacingAndGlyphs" textLength="86" x="1012.5" y="575.8198">-Text cellphone</text><text fill="#000000" font-family="sans-serif" font-size="11" lengthAdjust="spacingAndGlyphs" textLength="67" x="1012.5" y="588.6245">-Text phone</text><text fill="#000000" font-family="sans-serif" font-size="11" lengthAdjust="spacingAndGlyphs" textLength="55" x="1012.5" y="601.4292">-Text cnpj</text><text fill="#000000" font-family="sans-serif" font-size="11" lengthAdjust="spacingAndGlyphs" textLength="60" x="1012.5" y="614.2339">-Text color</text><text fill="#000000" font-family="sans-serif" font-size="11" lengthAdjust="spacingAndGlyphs" textLength="95" x="1012.5" y="627.0386">-Text description</text><text fill="#000000" font-family="sans-serif" font-size="11" lengthAdjust="spacingAndGlyphs" textLength="102" x="1012.5" y="639.8433">-Object feedbacks</text><text fill="#000000" font-family="sans-serif" font-size="11" lengthAdjust="spacingAndGlyphs" textLength="88" x="1012.5" y="652.6479">-Object location</text><text fill="#000000" font-family="sans-serif" font-size="11" lengthAdjust="spacingAndGlyphs" textLength="64" x="1012.5" y="665.4526">-Text name</text><text fill="#000000" font-family="sans-serif" font-size="11" lengthAdjust="spacingAndGlyphs" textLength="116" x="1012.5" y="678.2573">-Array paymentWays</text><text fill="#000000" font-family="sans-serif" font-size="11" lengthAdjust="spacingAndGlyphs" textLength="84" x="1012.5" y="691.062">-Array pictures</text><text fill="#000000" font-family="sans-serif" font-size="11" lengthAdjust="spacingAndGlyphs" textLength="42" x="1012.5" y="703.8667">-Text id</text><line style="stroke: #A80036; stroke-width: 1.5;" x1="1007.5" x2="1142.5" y1="710.4609" y2="710.4609"/><!--class Product--><rect fill="#FEFECE" filter="url(#f7dpkxb)" height="188.8516" style="stroke: #A80036; stroke-width: 1.5;" width="155" x="803.5" y="516.5"/><ellipse cx="852.25" cy="532.5" fill="#ADD1B2" rx="11" ry="11" style="stroke: #A80036; stroke-width: 1.0;"/><path d="M855.2188,538.1406 Q854.6406,538.4375 854,538.5859 Q853.3594,538.7344 852.6563,538.7344 Q850.1563,538.7344 848.8359,537.0859 Q847.5156,535.4375 847.5156,532.3125 Q847.5156,529.1875 848.8359,527.5313 Q850.1563,525.875 852.6563,525.875 Q853.3594,525.875 854.0078,526.0313 Q854.6563,526.1875 855.2188,526.4844 L855.2188,529.2031 Q854.5938,528.625 854,528.3516 Q853.4063,528.0781 852.7813,528.0781 Q851.4375,528.0781 850.75,529.1484 Q850.0625,530.2188 850.0625,532.3125 Q850.0625,534.4063 850.75,535.4766 Q851.4375,536.5469 852.7813,536.5469 Q853.4063,536.5469 854,536.2734 Q854.5938,536 855.2188,535.4219 L855.2188,538.1406 Z "/><text fill="#000000" font-family="sans-serif" font-size="12" lengthAdjust="spacingAndGlyphs" textLength="49" x="872.75" y="536.6543">Product</text><line style="stroke: #A80036; stroke-width: 1.5;" x1="804.5" x2="957.5" y1="548.5" y2="548.5"/><text fill="#000000" font-family="sans-serif" font-size="11" lengthAdjust="spacingAndGlyphs" textLength="100" x="809.5" y="562.7104">-Array downVotes</text><text fill="#000000" font-family="sans-serif" font-size="11" lengthAdjust="spacingAndGlyphs" textLength="98" x="809.5" y="575.5151">-Array categories</text><text fill="#000000" font-family="sans-serif" font-size="11" lengthAdjust="spacingAndGlyphs" textLength="143" x="809.5" y="588.3198">-Integer downVotesCount</text><text fill="#000000" font-family="sans-serif" font-size="11" lengthAdjust="spacingAndGlyphs" textLength="127" x="809.5" y="601.1245">-Integer upVotesCount</text><text fill="#000000" font-family="sans-serif" font-size="11" lengthAdjust="spacingAndGlyphs" textLength="62" x="809.5" y="613.9292">-Text store</text><text fill="#000000" font-family="sans-serif" font-size="11" lengthAdjust="spacingAndGlyphs" textLength="75" x="809.5" y="626.7339">-Double price</text><text fill="#000000" font-family="sans-serif" font-size="11" lengthAdjust="spacingAndGlyphs" textLength="95" x="809.5" y="639.5386">-Text description</text><text fill="#000000" font-family="sans-serif" font-size="11" lengthAdjust="spacingAndGlyphs" textLength="64" x="809.5" y="652.3433">-Text name</text><text fill="#000000" font-family="sans-serif" font-size="11" lengthAdjust="spacingAndGlyphs" textLength="84" x="809.5" y="665.1479">-Array upVotes</text><text fill="#000000" font-family="sans-serif" font-size="11" lengthAdjust="spacingAndGlyphs" textLength="84" x="809.5" y="677.9526">-Array pictures</text><text fill="#000000" font-family="sans-serif" font-size="11" lengthAdjust="spacingAndGlyphs" textLength="42" x="809.5" y="690.7573">-Text id</text><line style="stroke: #A80036; stroke-width: 1.5;" x1="804.5" x2="957.5" y1="697.3516" y2="697.3516"/><!--class ChatScreen--><rect fill="#FEFECE" filter="url(#f7dpkxb)" height="137.6328" style="stroke: #A80036; stroke-width: 1.5;" width="211" x="1215.5" y="117"/><ellipse cx="1280.25" cy="133" fill="#ADD1B2" rx="11" ry="11" style="stroke: #A80036; stroke-width: 1.0;"/><path d="M1283.2188,138.6406 Q1282.6406,138.9375 1282,139.0859 Q1281.3594,139.2344 1280.6563,139.2344 Q1278.1563,139.2344 1276.8359,137.5859 Q1275.5156,135.9375 1275.5156,132.8125 Q1275.5156,129.6875 1276.8359,128.0313 Q1278.1563,126.375 1280.6563,126.375 Q1281.3594,126.375 1282.0078,126.5313 Q1282.6563,126.6875 1283.2188,126.9844 L1283.2188,129.7031 Q1282.5938,129.125 1282,128.8516 Q1281.4063,128.5781 1280.7813,128.5781 Q1279.4375,128.5781 1278.75,129.6484 Q1278.0625,130.7188 1278.0625,132.8125 Q1278.0625,134.9063 1278.75,135.9766 Q1279.4375,137.0469 1280.7813,137.0469 Q1281.4063,137.0469 1282,136.7734 Q1282.5938,136.5 1283.2188,135.9219 L1283.2188,138.6406 Z "/><text fill="#000000" font-family="sans-serif" font-size="12" lengthAdjust="spacingAndGlyphs" textLength="73" x="1300.75" y="137.1543">ChatScreen</text><line style="stroke: #A80036; stroke-width: 1.5;" x1="1216.5" x2="1425.5" y1="149" y2="149"/><text fill="#000000" font-family="sans-serif" font-size="11" lengthAdjust="spacingAndGlyphs" textLength="62" x="1221.5" y="163.2104">-Text store</text><text fill="#000000" font-family="sans-serif" font-size="11" lengthAdjust="spacingAndGlyphs" textLength="58" x="1221.5" y="176.0151">-Text user</text><text fill="#000000" font-family="sans-serif" font-size="11" lengthAdjust="spacingAndGlyphs" textLength="85" x="1221.5" y="188.8198">-Text message</text><text fill="#000000" font-family="sans-serif" font-size="11" lengthAdjust="spacingAndGlyphs" textLength="88" x="1221.5" y="201.6245">-List messages</text><line style="stroke: #A80036; stroke-width: 1.5;" x1="1216.5" x2="1425.5" y1="208.2188" y2="208.2188"/><text fill="#000000" font-family="sans-serif" font-size="11" lengthAdjust="spacingAndGlyphs" textLength="173" x="1221.5" y="222.4292">-void connectChat(store, user)</text><text fill="#000000" font-family="sans-serif" font-size="11" lengthAdjust="spacingAndGlyphs" textLength="176" x="1221.5" y="235.2339">-List getMessages(store, user)</text><text fill="#000000" font-family="sans-serif" font-size="11" lengthAdjust="spacingAndGlyphs" textLength="199" x="1221.5" y="248.0386">-void sendMessage(Text message)</text><!--class User--><rect fill="#FEFECE" filter="url(#f7dpkxb)" height="86.4141" style="stroke: #A80036; stroke-width: 1.5;" width="76" x="1355" y="568"/><ellipse cx="1376.75" cy="584" fill="#ADD1B2" rx="11" ry="11" style="stroke: #A80036; stroke-width: 1.0;"/><path d="M1379.7188,589.6406 Q1379.1406,589.9375 1378.5,590.0859 Q1377.8594,590.2344 1377.1563,590.2344 Q1374.6563,590.2344 1373.3359,588.5859 Q1372.0156,586.9375 1372.0156,583.8125 Q1372.0156,580.6875 1373.3359,579.0313 Q1374.6563,577.375 1377.1563,577.375 Q1377.8594,577.375 1378.5078,577.5313 Q1379.1563,577.6875 1379.7188,577.9844 L1379.7188,580.7031 Q1379.0938,580.125 1378.5,579.8516 Q1377.9063,579.5781 1377.2813,579.5781 Q1375.9375,579.5781 1375.25,580.6484 Q1374.5625,581.7188 1374.5625,583.8125 Q1374.5625,585.9063 1375.25,586.9766 Q1375.9375,588.0469 1377.2813,588.0469 Q1377.9063,588.0469 1378.5,587.7734 Q1379.0938,587.5 1379.7188,586.9219 L1379.7188,589.6406 Z "/><text fill="#000000" font-family="sans-serif" font-size="12" lengthAdjust="spacingAndGlyphs" textLength="29" x="1392.25" y="588.1543">User</text><line style="stroke: #A80036; stroke-width: 1.5;" x1="1356" x2="1430" y1="600" y2="600"/><text fill="#000000" font-family="sans-serif" font-size="11" lengthAdjust="spacingAndGlyphs" textLength="63" x="1361" y="614.2104">-Text email</text><text fill="#000000" font-family="sans-serif" font-size="11" lengthAdjust="spacingAndGlyphs" textLength="64" x="1361" y="627.0151">-Text name</text><text fill="#000000" font-family="sans-serif" font-size="11" lengthAdjust="spacingAndGlyphs" textLength="49" x="1361" y="639.8198">-Text uid</text><line style="stroke: #A80036; stroke-width: 1.5;" x1="1356" x2="1430" y1="646.4141" y2="646.4141"/><path d="M660.698,47.74 C624.568,57.511 577.131,71.22 536,86 C503.213,97.782 493.455,98.393 464,117 C388.641,164.605 313.268,230.964 257.178,284.92 " fill="none" style="stroke: #A80036; stroke-width: 1.0;"/><polygon fill="none" points="659.144,40.91,680.271,42.532,662.744,54.439,659.144,40.91" style="stroke: #A80036; stroke-width: 1.0;"/><path d="M660.289,40.259 C612.555,49.512 547.1,70.359 512,117 C476.377,164.336 469.671,230.863 471.721,284.969 " fill="none" style="stroke: #A80036; stroke-width: 1.0;"/><polygon fill="none" points="659.268,33.332,680.161,36.867,661.624,47.132,659.268,33.332" style="stroke: #A80036; stroke-width: 1.0;"/><path d="M689.535,72.334 C675.361,91.919 658.095,115.778 643.107,136.488 " fill="none" style="stroke: #A80036; stroke-width: 1.0;"/><polygon fill="none" points="683.897,68.184,701.293,56.086,695.239,76.392,683.897,68.184" style="stroke: #A80036; stroke-width: 1.0;"/><path d="M774.732,50.533 C822.753,66.041 892.986,90.303 952,117 C960.781,120.973 969.781,125.338 978.723,129.881 " fill="none" style="stroke: #A80036; stroke-width: 1.0;"/><polygon fill="none" points="772.541,57.182,755.609,44.441,776.79,43.842,772.541,57.182" style="stroke: #A80036; stroke-width: 1.0;"/><path d="M746.609,72.533 C759.243,89.99 774.311,110.812 788.029,129.767 " fill="none" style="stroke: #A80036; stroke-width: 1.0;"/><polygon fill="none" points="740.761,76.392,734.707,56.086,752.103,68.184,740.761,76.392" style="stroke: #A80036; stroke-width: 1.0;"/><path d="M775.793,34.183 C900.076,37.917 1201.18,53.364 1444,117 C1463.33,122.065 1483.37,128.989 1502.49,136.491 " fill="none" style="stroke: #A80036; stroke-width: 1.0;"/><polygon fill="none" points="775.509,41.178,755.706,33.638,775.889,27.183,775.509,41.178" style="stroke: #A80036; stroke-width: 1.0;"/><path d="M183.389,474.333 C202.456,550.866 240.663,656.098 314,718 C368.204,763.752 532.351,801.739 670.168,826.794 " fill="none" style="stroke: #A80036; stroke-width: 1.0;"/><polygon fill="#A80036" points="675.471,827.754,667.3283,822.2135,670.5511,826.8626,665.9021,830.0854,675.471,827.754" style="stroke: #A80036; stroke-width: 1.0;"/><text fill="#000000" font-family="sans-serif" font-size="13" lengthAdjust="spacingAndGlyphs" textLength="86" x="315" y="615.5669">Autenticar-se</text><polygon fill="#000000" points="404,609.5664,410,612.5664,404,615.5664,404,609.5664" style="stroke: #000000; stroke-width: 1.0;"/><text fill="#000000" font-family="sans-serif" font-size="13" lengthAdjust="spacingAndGlyphs" textLength="8" x="176.3723" y="493.9253">1</text><text fill="#000000" font-family="sans-serif" font-size="13" lengthAdjust="spacingAndGlyphs" textLength="8" x="659.2863" y="823.2466">1</text><path d="M1607.04,240.553 C1606.02,348.271 1587.41,591.613 1448,718 C1394.68,766.339 1226.31,804.559 1086.79,829.029 " fill="none" style="stroke: #A80036; stroke-width: 1.0; stroke-dasharray: 7.0,7.0;"/><polygon fill="#A80036" points="1607.08,235.527,1603.0158,244.4982,1607.0443,240.5269,1611.0156,244.5553,1607.08,235.527" style="stroke: #A80036; stroke-width: 1.0;"/><text fill="#000000" font-family="sans-serif" font-size="13" lengthAdjust="spacingAndGlyphs" textLength="8" x="1598.6511" y="255.9634">1</text><text fill="#000000" font-family="sans-serif" font-size="13" lengthAdjust="spacingAndGlyphs" textLength="8" x="1094.3293" y="824.6934">1</text><path d="M1580.54,235.514 C1572.33,251.269 1563.23,268.85 1555,285 C1504.8,383.55 1447.33,499.652 1416.12,562.972 " fill="none" style="stroke: #A80036; stroke-width: 1.0; stroke-dasharray: 7.0,7.0;"/><polygon fill="#A80036" points="1413.74,567.812,1421.3057,561.5064,1415.9497,563.3268,1414.1294,557.9708,1413.74,567.812" style="stroke: #A80036; stroke-width: 1.0;"/><text fill="#000000" font-family="sans-serif" font-size="13" lengthAdjust="spacingAndGlyphs" textLength="8" x="1568.2131" y="255.9485">1</text><text fill="#000000" font-family="sans-serif" font-size="13" lengthAdjust="spacingAndGlyphs" textLength="8" x="1408.4079" y="556.7781">1</text><path d="M445.072,474.198 C421.428,547.361 404.501,648.014 455,718 C504.697,786.874 589.285,822.751 670.05,841.243 " fill="none" style="stroke: #A80036; stroke-width: 1.0;"/><polygon fill="#A80036" points="675.364,842.4366,667.4595,836.5614,670.4856,841.3408,665.7062,844.3669,675.364,842.4366" style="stroke: #A80036; stroke-width: 1.0;"/><text fill="#000000" font-family="sans-serif" font-size="13" lengthAdjust="spacingAndGlyphs" textLength="110" x="456" y="615.5669">Adicionar usuário</text><polygon fill="#000000" points="506.5,624.6328,509.5,630.6328,512.5,624.6328,506.5,624.6328" style="stroke: #000000; stroke-width: 1.0;"/><text fill="#000000" font-family="sans-serif" font-size="13" lengthAdjust="spacingAndGlyphs" textLength="24" x="417.332" y="493.7804">0..1</text><text fill="#000000" font-family="sans-serif" font-size="13" lengthAdjust="spacingAndGlyphs" textLength="8" x="659.1751" y="838.5032">1</text><path d="M628.41,235.662 C634.235,251.194 640.063,268.609 644,285 C668.077,385.236 677.614,506.603 681.128,568.826 " fill="none" style="stroke: #A80036; stroke-width: 1.0;"/><polygon fill="#A80036" points="681.411,573.931,684.906,564.7231,681.1339,568.9387,676.9183,565.1665,681.411,573.931" style="stroke: #A80036; stroke-width: 1.0;"/><text fill="#000000" font-family="sans-serif" font-size="13" lengthAdjust="spacingAndGlyphs" textLength="84" x="675" y="384.0669">Fazer buscas</text><polygon fill="#000000" points="712.5,393.1328,715.5,399.1328,718.5,393.1328,712.5,393.1328" style="stroke: #000000; stroke-width: 1.0;"/><text fill="#000000" font-family="sans-serif" font-size="13" lengthAdjust="spacingAndGlyphs" textLength="8" x="622.7177" y="255.7613">1</text><text fill="#000000" font-family="sans-serif" font-size="13" lengthAdjust="spacingAndGlyphs" textLength="8" x="672.3805" y="562.8287">1</text><path d="M1075,247.428 C1075,312.724 1075,418.205 1075,498.602 " fill="none" style="stroke: #A80036; stroke-width: 1.0; stroke-dasharray: 7.0,7.0;"/><polygon fill="#A80036" points="1075,503.861,1079,494.861,1075,498.861,1071,494.861,1075,503.861" style="stroke: #A80036; stroke-width: 1.0;"/><polygon fill="#A80036" points="1075,242.3,1071,251.3,1075,247.3,1079,251.3,1075,242.3" style="stroke: #A80036; stroke-width: 1.0;"/><text fill="#000000" font-family="sans-serif" font-size="13" lengthAdjust="spacingAndGlyphs" textLength="8" x="1066.5125" y="262.1492">1</text><text fill="#000000" font-family="sans-serif" font-size="13" lengthAdjust="spacingAndGlyphs" textLength="8" x="1066.7188" y="492.8558">1</text><path d="M1003.245,703.544 C984.996,726.824 965.467,751.739 947.493,774.67 " fill="none" style="stroke: #A80036; stroke-width: 1.0; stroke-dasharray: 7.0,7.0;"/><polygon fill="#A80036" points="944.39,778.629,953.0898,774.0124,947.4741,774.6935,946.793,769.0778,944.39,778.629" style="stroke: #A80036; stroke-width: 1.0;"/><polygon fill="#A80036" points="1006.33,699.608,997.6302,704.2246,1003.2459,703.5435,1003.927,709.1592,1006.33,699.608" style="stroke: #A80036; stroke-width: 1.0;"/><text fill="#000000" font-family="sans-serif" font-size="13" lengthAdjust="spacingAndGlyphs" textLength="8" x="990.3817" y="705.5281">1</text><text fill="#000000" font-family="sans-serif" font-size="13" lengthAdjust="spacingAndGlyphs" textLength="8" x="941.4938" y="768.0109">1</text><path d="M881,710.674 C881,731.502 881,753.319 881,773.629 " fill="none" style="stroke: #A80036; stroke-width: 1.0; stroke-dasharray: 7.0,7.0;"/><polygon fill="#A80036" points="881,778.759,885,769.759,881,773.759,877,769.759,881,778.759" style="stroke: #A80036; stroke-width: 1.0;"/><polygon fill="#A80036" points="881,705.569,877,714.569,881,710.569,885,714.569,881,705.569" style="stroke: #A80036; stroke-width: 1.0;"/><text fill="#000000" font-family="sans-serif" font-size="13" lengthAdjust="spacingAndGlyphs" textLength="8" x="872.6938" y="725.4613">1</text><text fill="#000000" font-family="sans-serif" font-size="13" lengthAdjust="spacingAndGlyphs" textLength="8" x="872.6438" y="767.873">1</text><path d="M835.552,247.272 C844.157,315.952 858.351,429.236 868.589,510.947 " fill="none" style="stroke: #A80036; stroke-width: 1.0; stroke-dasharray: 7.0,7.0;"/><polygon fill="#A80036" points="869.258,516.283,872.1081,506.8556,868.6364,511.3218,864.1702,507.8501,869.258,516.283" style="stroke: #A80036; stroke-width: 1.0;"/><polygon fill="#A80036" points="834.929,242.3,832.0812,251.7282,835.5518,247.2611,840.0189,250.7317,834.929,242.3" style="stroke: #A80036; stroke-width: 1.0;"/><text fill="#000000" font-family="sans-serif" font-size="13" lengthAdjust="spacingAndGlyphs" textLength="8" x="827.286" y="262.1492">1</text><text fill="#000000" font-family="sans-serif" font-size="13" lengthAdjust="spacingAndGlyphs" textLength="8" x="860.0528" y="505.5347">1</text><path d="M1281.2,255.432 C1242.94,321.229 1184.45,421.803 1139.52,499.052 " fill="none" style="stroke: #A80036; stroke-width: 1.0; stroke-dasharray: 7.0,7.0;"/><polygon fill="#A80036" points="1136.85,503.64,1144.8376,497.8782,1139.3676,499.3201,1137.9257,493.8501,1136.85,503.64" style="stroke: #A80036; stroke-width: 1.0;"/><text fill="#000000" font-family="sans-serif" font-size="13" lengthAdjust="spacingAndGlyphs" textLength="8" x="1269.1622" y="274.6141">1</text><text fill="#000000" font-family="sans-serif" font-size="13" lengthAdjust="spacingAndGlyphs" textLength="8" x="1132.7368" y="492.9787">1</text><path d="M1332.65,255.432 C1347.32,341.632 1372.15,487.52 1384.91,562.454 " fill="none" style="stroke: #A80036; stroke-width: 1.0; stroke-dasharray: 7.0,7.0;"/><polygon fill="#A80036" points="1385.8,567.725,1388.2337,558.1816,1384.9613,562.7958,1380.3471,559.5234,1385.8,567.725" style="stroke: #A80036; stroke-width: 1.0;"/><text fill="#000000" font-family="sans-serif" font-size="13" lengthAdjust="spacingAndGlyphs" textLength="8" x="1325.3552" y="274.6141">1</text><text fill="#000000" font-family="sans-serif" font-size="13" lengthAdjust="spacingAndGlyphs" textLength="8" x="1376.085" y="556.9954">1</text></g></svg>