<?xml version="1.0" encoding="UTF-8" standalone="no"?><svg xmlns="http://www.w3.org/2000/svg" xmlns:xlink="http://www.w3.org/1999/xlink" contentScriptType="application/ecmascript" contentStyleType="text/css" height="218px" preserveAspectRatio="none" style="width:438px;height:218px;" version="1.1" viewBox="0 0 438 218" width="438px" zoomAndPan="magnify"><defs><filter height="300%" id="ffcb9bt" width="300%" x="-1" y="-1"><feGaussianBlur result="blurOut" stdDeviation="2.0"/><feColorMatrix in="blurOut" result="blurOut2" type="matrix" values="0 0 0 0 0 0 0 0 0 0 0 0 0 0 0 0 0 0 .4 0"/><feOffset dx="4.0" dy="4.0" in="blurOut2" result="blurOut3"/><feBlend in="SourceGraphic" in2="blurOut3" mode="normal"/></filter></defs><g><ellipse cx="309.5" cy="20" fill="#000000" filter="url(#ffcb9bt)" rx="10" ry="10" style="stroke: none; stroke-width: 1.0;"/><rect fill="#FEFECE" filter="url(#ffcb9bt)" height="33.9688" rx="12.5" ry="12.5" style="stroke: #A80036; stroke-width: 1.5;" width="169" x="225" y="50"/><text fill="#000000" font-family="sans-serif" font-size="12" lengthAdjust="spacingAndGlyphs" textLength="149" x="235" y="71.1387">Informar email da conta</text><polygon fill="#FEFECE" filter="url(#ffcb9bt)" points="255,103.9688,364,103.9688,376,115.9688,364,127.9688,255,127.9688,243,115.9688,255,103.9688" style="stroke: #A80036; stroke-width: 1.5;"/><text fill="#000000" font-family="sans-serif" font-size="11" lengthAdjust="spacingAndGlyphs" textLength="109" x="255" y="119.7769">Email cadastrado ?</text><text fill="#000000" font-family="sans-serif" font-size="11" lengthAdjust="spacingAndGlyphs" textLength="22" x="221" y="113.3745">Sim</text><rect fill="#FEFECE" filter="url(#ffcb9bt)" height="33.9688" rx="12.5" ry="12.5" style="stroke: #A80036; stroke-width: 1.5;" width="376" x="10" y="137.9688"/><text fill="#000000" font-family="sans-serif" font-size="12" lengthAdjust="spacingAndGlyphs" textLength="356" x="20" y="159.1074">Enviar um email com instruções para mudança de senha</text><ellipse cx="421" cy="147.9688" fill="none" filter="url(#ffcb9bt)" rx="10" ry="10" style="stroke: #000000; stroke-width: 1.0;"/><ellipse cx="421.5" cy="148.4688" fill="#000000" filter="url(#ffcb9bt)" rx="6" ry="6" style="stroke: none; stroke-width: 1.0;"/><ellipse cx="309.5" cy="201.9375" fill="none" filter="url(#ffcb9bt)" rx="10" ry="10" style="stroke: #000000; stroke-width: 1.0;"/><ellipse cx="310" cy="202.4375" fill="#000000" filter="url(#ffcb9bt)" rx="6" ry="6" style="stroke: none; stroke-width: 1.0;"/><line style="stroke: #A80036; stroke-width: 1.5;" x1="309.5" x2="309.5" y1="30" y2="50"/><polygon fill="#A80036" points="305.5,40,309.5,50,313.5,40,309.5,44" style="stroke: #A80036; stroke-width: 1.0;"/><line style="stroke: #A80036; stroke-width: 1.5;" x1="243" x2="198" y1="115.9688" y2="115.9688"/><line style="stroke: #A80036; stroke-width: 1.5;" x1="198" x2="198" y1="115.9688" y2="137.9688"/><polygon fill="#A80036" points="194,127.9688,198,137.9688,202,127.9688,198,131.9688" style="stroke: #A80036; stroke-width: 1.0;"/><line style="stroke: #A80036; stroke-width: 1.5;" x1="376" x2="421" y1="115.9688" y2="115.9688"/><line style="stroke: #A80036; stroke-width: 1.5;" x1="421" x2="421" y1="115.9688" y2="137.9688"/><polygon fill="#A80036" points="417,127.9688,421,137.9688,425,127.9688,421,131.9688" style="stroke: #A80036; stroke-width: 1.0;"/><line style="stroke: #A80036; stroke-width: 1.5;" x1="198" x2="198" y1="171.9375" y2="176.9375"/><line style="stroke: #A80036; stroke-width: 1.5;" x1="198" x2="309.5" y1="176.9375" y2="176.9375"/><line style="stroke: #A80036; stroke-width: 1.5;" x1="309.5" x2="309.5" y1="176.9375" y2="191.9375"/><polygon fill="#A80036" points="305.5,181.9375,309.5,191.9375,313.5,181.9375,309.5,185.9375" style="stroke: #A80036; stroke-width: 1.0;"/><line style="stroke: #A80036; stroke-width: 1.5;" x1="309.5" x2="309.5" y1="83.9688" y2="103.9688"/><polygon fill="#A80036" points="305.5,93.9688,309.5,103.9688,313.5,93.9688,309.5,97.9688" style="stroke: #A80036; stroke-width: 1.0;"/></g></svg>