<?xml version="1.0" encoding="UTF-8" standalone="no"?><svg xmlns="http://www.w3.org/2000/svg" xmlns:xlink="http://www.w3.org/1999/xlink" contentScriptType="application/ecmascript" contentStyleType="text/css" height="272px" preserveAspectRatio="none" style="width:340px;height:272px;" version="1.1" viewBox="0 0 340 272" width="340px" zoomAndPan="magnify"><defs><filter height="300%" id="f794nw2" width="300%" x="-1" y="-1"><feGaussianBlur result="blurOut" stdDeviation="2.0"/><feColorMatrix in="blurOut" result="blurOut2" type="matrix" values="0 0 0 0 0 0 0 0 0 0 0 0 0 0 0 0 0 0 .4 0"/><feOffset dx="4.0" dy="4.0" in="blurOut2" result="blurOut3"/><feBlend in="SourceGraphic" in2="blurOut3" mode="normal"/></filter></defs><g><ellipse cx="193.75" cy="20" fill="#000000" filter="url(#f794nw2)" rx="10" ry="10" style="stroke: none; stroke-width: 1.0;"/><rect fill="#FEFECE" filter="url(#f794nw2)" height="33.9688" rx="12.5" ry="12.5" style="stroke: #A80036; stroke-width: 1.5;" width="148" x="119.75" y="50"/><text fill="#000000" font-family="sans-serif" font-size="12" lengthAdjust="spacingAndGlyphs" textLength="128" x="129.75" y="71.1387">Informar credenciais</text><polygon fill="#FEFECE" filter="url(#f794nw2)" points="148.75,103.9688,238.75,103.9688,250.75,115.9688,238.75,127.9688,148.75,127.9688,136.75,115.9688,148.75,103.9688" style="stroke: #A80036; stroke-width: 1.5;"/><text fill="#000000" font-family="sans-serif" font-size="11" lengthAdjust="spacingAndGlyphs" textLength="90" x="148.75" y="119.7769">Dados válidos ?</text><text fill="#000000" font-family="sans-serif" font-size="11" lengthAdjust="spacingAndGlyphs" textLength="22" x="114.75" y="113.3745">Sim</text><text fill="#000000" font-family="sans-serif" font-size="11" lengthAdjust="spacingAndGlyphs" textLength="22" x="250.75" y="113.3745">Não</text><rect fill="#FEFECE" filter="url(#f794nw2)" height="33.9688" rx="12.5" ry="12.5" style="stroke: #A80036; stroke-width: 1.5;" width="106" x="55" y="137.9688"/><text fill="#000000" font-family="sans-serif" font-size="12" lengthAdjust="spacingAndGlyphs" textLength="86" x="65" y="159.1074">Iniciar sessão</text><rect fill="#FEFECE" filter="url(#f794nw2)" height="33.9688" rx="12.5" ry="12.5" style="stroke: #A80036; stroke-width: 1.5;" width="196" x="10" y="191.9375"/><text fill="#000000" font-family="sans-serif" font-size="12" lengthAdjust="spacingAndGlyphs" textLength="176" x="20" y="213.0762">Redirecionar à tela principal</text><ellipse cx="108" cy="255.9063" fill="none" filter="url(#f794nw2)" rx="10" ry="10" style="stroke: #000000; stroke-width: 1.0;"/><ellipse cx="108.5" cy="256.4063" fill="#000000" filter="url(#f794nw2)" rx="6" ry="6" style="stroke: none; stroke-width: 1.0;"/><rect fill="#FEFECE" filter="url(#f794nw2)" height="33.9688" rx="12.5" ry="12.5" style="stroke: #A80036; stroke-width: 1.5;" width="107" x="226" y="137.9688"/><text fill="#000000" font-family="sans-serif" font-size="12" lengthAdjust="spacingAndGlyphs" textLength="87" x="236" y="159.1074">Negar acesso</text><ellipse cx="279.5" cy="201.9375" fill="none" filter="url(#f794nw2)" rx="10" ry="10" style="stroke: #000000; stroke-width: 1.0;"/><ellipse cx="280" cy="202.4375" fill="#000000" filter="url(#f794nw2)" rx="6" ry="6" style="stroke: none; stroke-width: 1.0;"/><line style="stroke: #A80036; stroke-width: 1.5;" x1="193.75" x2="193.75" y1="30" y2="50"/><polygon fill="#A80036" points="189.75,40,193.75,50,197.75,40,193.75,44" style="stroke: #A80036; stroke-width: 1.0;"/><line style="stroke: #A80036; stroke-width: 1.5;" x1="108" x2="108" y1="171.9375" y2="191.9375"/><polygon fill="#A80036" points="104,181.9375,108,191.9375,112,181.9375,108,185.9375" style="stroke: #A80036; stroke-width: 1.0;"/><line style="stroke: #A80036; stroke-width: 1.5;" x1="108" x2="108" y1="225.9063" y2="245.9063"/><polygon fill="#A80036" points="104,235.9063,108,245.9063,112,235.9063,108,239.9063" style="stroke: #A80036; stroke-width: 1.0;"/><line style="stroke: #A80036; stroke-width: 1.5;" x1="279.5" x2="279.5" y1="171.9375" y2="191.9375"/><polygon fill="#A80036" points="275.5,181.9375,279.5,191.9375,283.5,181.9375,279.5,185.9375" style="stroke: #A80036; stroke-width: 1.0;"/><line style="stroke: #A80036; stroke-width: 1.5;" x1="136.75" x2="108" y1="115.9688" y2="115.9688"/><line style="stroke: #A80036; stroke-width: 1.5;" x1="108" x2="108" y1="115.9688" y2="137.9688"/><polygon fill="#A80036" points="104,127.9688,108,137.9688,112,127.9688,108,131.9688" style="stroke: #A80036; stroke-width: 1.0;"/><line style="stroke: #A80036; stroke-width: 1.5;" x1="250.75" x2="279.5" y1="115.9688" y2="115.9688"/><line style="stroke: #A80036; stroke-width: 1.5;" x1="279.5" x2="279.5" y1="115.9688" y2="137.9688"/><polygon fill="#A80036" points="275.5,127.9688,279.5,137.9688,283.5,127.9688,279.5,131.9688" style="stroke: #A80036; stroke-width: 1.0;"/><line style="stroke: #A80036; stroke-width: 1.5;" x1="193.75" x2="193.75" y1="83.9688" y2="103.9688"/><polygon fill="#A80036" points="189.75,93.9688,193.75,103.9688,197.75,93.9688,193.75,97.9688" style="stroke: #A80036; stroke-width: 1.0;"/></g></svg>