<?xml version="1.0" encoding="UTF-8" standalone="no"?><svg xmlns="http://www.w3.org/2000/svg" xmlns:xlink="http://www.w3.org/1999/xlink" contentScriptType="application/ecmascript" contentStyleType="text/css" height="321px" preserveAspectRatio="none" style="width:511px;height:321px;" version="1.1" viewBox="0 0 511 321" width="511px" zoomAndPan="magnify"><defs><filter height="300%" id="fa44hwj" width="300%" x="-1" y="-1"><feGaussianBlur result="blurOut" stdDeviation="2.0"/><feColorMatrix in="blurOut" result="blurOut2" type="matrix" values="0 0 0 0 0 0 0 0 0 0 0 0 0 0 0 0 0 0 .4 0"/><feOffset dx="4.0" dy="4.0" in="blurOut2" result="blurOut3"/><feBlend in="SourceGraphic" in2="blurOut3" mode="normal"/></filter></defs><g><ellipse cx="267.625" cy="20" fill="#000000" filter="url(#fa44hwj)" rx="10" ry="10" style="stroke: none; stroke-width: 1.0;"/><rect fill="#FEFECE" filter="url(#fa44hwj)" height="33.9688" rx="12.5" ry="12.5" style="stroke: #A80036; stroke-width: 1.5;" width="121" x="207.125" y="50"/><text fill="#000000" font-family="sans-serif" font-size="12" lengthAdjust="spacingAndGlyphs" textLength="101" x="217.125" y="71.1387">Selecionar ação</text><polygon fill="#FEFECE" filter="url(#fa44hwj)" points="244.125,103.9688,291.125,103.9688,303.125,115.9688,291.125,127.9688,244.125,127.9688,232.125,115.9688,244.125,103.9688" style="stroke: #A80036; stroke-width: 1.5;"/><text fill="#000000" font-family="sans-serif" font-size="11" lengthAdjust="spacingAndGlyphs" textLength="47" x="244.125" y="119.7769">Excluir ?</text><text fill="#000000" font-family="sans-serif" font-size="11" lengthAdjust="spacingAndGlyphs" textLength="22" x="210.125" y="113.3745">Sim</text><text fill="#000000" font-family="sans-serif" font-size="11" lengthAdjust="spacingAndGlyphs" textLength="22" x="303.125" y="113.3745">Não</text><rect fill="#FEFECE" filter="url(#fa44hwj)" height="33.9688" rx="12.5" ry="12.5" style="stroke: #A80036; stroke-width: 1.5;" width="139" x="47" y="137.9688"/><text fill="#000000" font-family="sans-serif" font-size="12" lengthAdjust="spacingAndGlyphs" textLength="119" x="57" y="159.1074">Confirmar exclusão</text><polygon fill="#FEFECE" filter="url(#fa44hwj)" points="82,206.9375,151,206.9375,163,218.9375,151,230.9375,82,230.9375,70,218.9375,82,206.9375" style="stroke: #A80036; stroke-width: 1.5;"/><text fill="#000000" font-family="sans-serif" font-size="11" lengthAdjust="spacingAndGlyphs" textLength="69" x="82" y="222.7456">Confirmou ?</text><text fill="#000000" font-family="sans-serif" font-size="11" lengthAdjust="spacingAndGlyphs" textLength="22" x="48" y="216.3433">Sim</text><text fill="#000000" font-family="sans-serif" font-size="11" lengthAdjust="spacingAndGlyphs" textLength="22" x="163" y="216.3433">Não</text><rect fill="#FEFECE" filter="url(#fa44hwj)" height="33.9688" rx="12.5" ry="12.5" style="stroke: #A80036; stroke-width: 1.5;" width="100" x="10" y="240.9375"/><text fill="#000000" font-family="sans-serif" font-size="12" lengthAdjust="spacingAndGlyphs" textLength="80" x="20" y="262.0762">Excluir conta</text><ellipse cx="60" cy="304.9063" fill="none" filter="url(#fa44hwj)" rx="10" ry="10" style="stroke: #000000; stroke-width: 1.0;"/><ellipse cx="60.5" cy="305.4063" fill="#000000" filter="url(#fa44hwj)" rx="6" ry="6" style="stroke: none; stroke-width: 1.0;"/><ellipse cx="173" cy="250.9375" fill="none" filter="url(#fa44hwj)" rx="10" ry="10" style="stroke: #000000; stroke-width: 1.0;"/><ellipse cx="173.5" cy="251.4375" fill="#000000" filter="url(#fa44hwj)" rx="6" ry="6" style="stroke: none; stroke-width: 1.0;"/><polygon fill="#FEFECE" filter="url(#fa44hwj)" points="389.75,137.9688,447.75,137.9688,459.75,149.9688,447.75,161.9688,389.75,161.9688,377.75,149.9688,389.75,137.9688" style="stroke: #A80036; stroke-width: 1.5;"/><text fill="#000000" font-family="sans-serif" font-size="11" lengthAdjust="spacingAndGlyphs" textLength="58" x="389.75" y="153.7769">Atualizar ?</text><text fill="#000000" font-family="sans-serif" font-size="11" lengthAdjust="spacingAndGlyphs" textLength="22" x="355.75" y="147.3745">Sim</text><text fill="#000000" font-family="sans-serif" font-size="11" lengthAdjust="spacingAndGlyphs" textLength="22" x="459.75" y="147.3745">Não</text><rect fill="#FEFECE" filter="url(#fa44hwj)" height="33.9688" rx="12.5" ry="12.5" style="stroke: #A80036; stroke-width: 1.5;" width="231" x="228" y="171.9688"/><text fill="#000000" font-family="sans-serif" font-size="12" lengthAdjust="spacingAndGlyphs" textLength="211" x="238" y="193.1074">Alterar as informações desejadas</text><rect fill="#FEFECE" filter="url(#fa44hwj)" height="33.9688" rx="12.5" ry="12.5" style="stroke: #A80036; stroke-width: 1.5;" width="129" x="279" y="240.9375"/><text fill="#000000" font-family="sans-serif" font-size="12" lengthAdjust="spacingAndGlyphs" textLength="109" x="289" y="262.0762">Salvar alterações</text><ellipse cx="343.5" cy="304.9063" fill="none" filter="url(#fa44hwj)" rx="10" ry="10" style="stroke: #000000; stroke-width: 1.0;"/><ellipse cx="344" cy="305.4063" fill="#000000" filter="url(#fa44hwj)" rx="6" ry="6" style="stroke: none; stroke-width: 1.0;"/><ellipse cx="494" cy="181.9688" fill="none" filter="url(#fa44hwj)" rx="10" ry="10" style="stroke: #000000; stroke-width: 1.0;"/><ellipse cx="494.5" cy="182.4688" fill="#000000" filter="url(#fa44hwj)" rx="6" ry="6" style="stroke: none; stroke-width: 1.0;"/><line style="stroke: #A80036; stroke-width: 1.5;" x1="267.625" x2="267.625" y1="30" y2="50"/><polygon fill="#A80036" points="263.625,40,267.625,50,271.625,40,267.625,44" style="stroke: #A80036; stroke-width: 1.0;"/><line style="stroke: #A80036; stroke-width: 1.5;" x1="60" x2="60" y1="274.9063" y2="294.9063"/><polygon fill="#A80036" points="56,284.9063,60,294.9063,64,284.9063,60,288.9063" style="stroke: #A80036; stroke-width: 1.0;"/><line style="stroke: #A80036; stroke-width: 1.5;" x1="70" x2="60" y1="218.9375" y2="218.9375"/><line style="stroke: #A80036; stroke-width: 1.5;" x1="60" x2="60" y1="218.9375" y2="240.9375"/><polygon fill="#A80036" points="56,230.9375,60,240.9375,64,230.9375,60,234.9375" style="stroke: #A80036; stroke-width: 1.0;"/><line style="stroke: #A80036; stroke-width: 1.5;" x1="163" x2="173" y1="218.9375" y2="218.9375"/><line style="stroke: #A80036; stroke-width: 1.5;" x1="173" x2="173" y1="218.9375" y2="240.9375"/><polygon fill="#A80036" points="169,230.9375,173,240.9375,177,230.9375,173,234.9375" style="stroke: #A80036; stroke-width: 1.0;"/><line style="stroke: #A80036; stroke-width: 1.5;" x1="116.5" x2="116.5" y1="171.9375" y2="206.9375"/><polygon fill="#A80036" points="112.5,196.9375,116.5,206.9375,120.5,196.9375,116.5,200.9375" style="stroke: #A80036; stroke-width: 1.0;"/><line style="stroke: #A80036; stroke-width: 1.5;" x1="343.5" x2="343.5" y1="205.9375" y2="240.9375"/><polygon fill="#A80036" points="339.5,230.9375,343.5,240.9375,347.5,230.9375,343.5,234.9375" style="stroke: #A80036; stroke-width: 1.0;"/><line style="stroke: #A80036; stroke-width: 1.5;" x1="343.5" x2="343.5" y1="274.9063" y2="294.9063"/><polygon fill="#A80036" points="339.5,284.9063,343.5,294.9063,347.5,284.9063,343.5,288.9063" style="stroke: #A80036; stroke-width: 1.0;"/><line style="stroke: #A80036; stroke-width: 1.5;" x1="377.75" x2="343.5" y1="149.9688" y2="149.9688"/><line style="stroke: #A80036; stroke-width: 1.5;" x1="343.5" x2="343.5" y1="149.9688" y2="171.9688"/><polygon fill="#A80036" points="339.5,161.9688,343.5,171.9688,347.5,161.9688,343.5,165.9688" style="stroke: #A80036; stroke-width: 1.0;"/><line style="stroke: #A80036; stroke-width: 1.5;" x1="459.75" x2="494" y1="149.9688" y2="149.9688"/><line style="stroke: #A80036; stroke-width: 1.5;" x1="494" x2="494" y1="149.9688" y2="171.9688"/><polygon fill="#A80036" points="490,161.9688,494,171.9688,498,161.9688,494,165.9688" style="stroke: #A80036; stroke-width: 1.0;"/><line style="stroke: #A80036; stroke-width: 1.5;" x1="232.125" x2="116.5" y1="115.9688" y2="115.9688"/><line style="stroke: #A80036; stroke-width: 1.5;" x1="116.5" x2="116.5" y1="115.9688" y2="137.9688"/><polygon fill="#A80036" points="112.5,127.9688,116.5,137.9688,120.5,127.9688,116.5,131.9688" style="stroke: #A80036; stroke-width: 1.0;"/><line style="stroke: #A80036; stroke-width: 1.5;" x1="303.125" x2="418.75" y1="115.9688" y2="115.9688"/><line style="stroke: #A80036; stroke-width: 1.5;" x1="418.75" x2="418.75" y1="115.9688" y2="137.9688"/><polygon fill="#A80036" points="414.75,127.9688,418.75,137.9688,422.75,127.9688,418.75,131.9688" style="stroke: #A80036; stroke-width: 1.0;"/><line style="stroke: #A80036; stroke-width: 1.5;" x1="267.625" x2="267.625" y1="83.9688" y2="103.9688"/><polygon fill="#A80036" points="263.625,93.9688,267.625,103.9688,271.625,93.9688,267.625,97.9688" style="stroke: #A80036; stroke-width: 1.0;"/></g></svg>