<?xml version="1.0" encoding="UTF-8" standalone="no"?><svg xmlns="http://www.w3.org/2000/svg" xmlns:xlink="http://www.w3.org/1999/xlink" contentScriptType="application/ecmascript" contentStyleType="text/css" height="366px" preserveAspectRatio="none" style="width:626px;height:366px;" version="1.1" viewBox="0 0 626 366" width="626px" zoomAndPan="magnify"><defs><filter height="300%" id="fer12ti" width="300%" x="-1" y="-1"><feGaussianBlur result="blurOut" stdDeviation="2.0"/><feColorMatrix in="blurOut" result="blurOut2" type="matrix" values="0 0 0 0 0 0 0 0 0 0 0 0 0 0 0 0 0 0 .4 0"/><feOffset dx="4.0" dy="4.0" in="blurOut2" result="blurOut3"/><feBlend in="SourceGraphic" in2="blurOut3" mode="normal"/></filter></defs><g><ellipse cx="418.875" cy="20" fill="#000000" filter="url(#fer12ti)" rx="10" ry="10" style="stroke: none; stroke-width: 1.0;"/><rect fill="#FEFECE" filter="url(#fer12ti)" height="33.9688" rx="12.5" ry="12.5" style="stroke: #A80036; stroke-width: 1.5;" width="161" x="338.375" y="50"/><text fill="#000000" font-family="sans-serif" font-size="12" lengthAdjust="spacingAndGlyphs" textLength="141" x="348.375" y="71.1387">Informar login e senha</text><polygon fill="#FEFECE" filter="url(#fer12ti)" points="358.375,103.9688,479.375,103.9688,491.375,115.9688,479.375,127.9688,358.375,127.9688,346.375,115.9688,358.375,103.9688" style="stroke: #A80036; stroke-width: 1.5;"/><text fill="#000000" font-family="sans-serif" font-size="11" lengthAdjust="spacingAndGlyphs" textLength="121" x="358.375" y="119.7769">Autenticação falhou ?</text><text fill="#000000" font-family="sans-serif" font-size="11" lengthAdjust="spacingAndGlyphs" textLength="22" x="324.375" y="113.3745">Sim</text><text fill="#000000" font-family="sans-serif" font-size="11" lengthAdjust="spacingAndGlyphs" textLength="22" x="491.375" y="113.3745">Não</text><polygon fill="#FEFECE" filter="url(#fer12ti)" points="214.25,137.9688,329.25,137.9688,341.25,149.9688,329.25,161.9688,214.25,161.9688,202.25,149.9688,214.25,137.9688" style="stroke: #A80036; stroke-width: 1.5;"/><text fill="#000000" font-family="sans-serif" font-size="11" lengthAdjust="spacingAndGlyphs" textLength="115" x="214.25" y="153.7769">Esqueceu a senha ?</text><text fill="#000000" font-family="sans-serif" font-size="11" lengthAdjust="spacingAndGlyphs" textLength="22" x="180.25" y="147.3745">Sim</text><text fill="#000000" font-family="sans-serif" font-size="11" lengthAdjust="spacingAndGlyphs" textLength="22" x="341.25" y="147.3745">Não</text><rect fill="#FEFECE" filter="url(#fer12ti)" height="33.9688" rx="12.5" ry="12.5" style="stroke: #A80036; stroke-width: 1.5;" width="277" x="10" y="171.9688"/><text fill="#000000" font-family="sans-serif" font-size="12" lengthAdjust="spacingAndGlyphs" textLength="257" x="20" y="193.1074">Enviar email de reconfiguração de senha</text><rect fill="#FEFECE" filter="url(#fer12ti)" height="33.9688" rx="12.5" ry="12.5" style="stroke: #A80036; stroke-width: 1.5;" width="118" x="89.5" y="225.9375"/><text fill="#000000" font-family="sans-serif" font-size="12" lengthAdjust="spacingAndGlyphs" textLength="98" x="99.5" y="247.0762">Redefinir senha</text><rect fill="#FEFECE" filter="url(#fer12ti)" height="33.9688" rx="12.5" ry="12.5" style="stroke: #A80036; stroke-width: 1.5;" width="176" x="307" y="171.9688"/><text fill="#000000" font-family="sans-serif" font-size="12" lengthAdjust="spacingAndGlyphs" textLength="156" x="317" y="193.1074">Exibir mensagem de erro</text><polygon fill="#FEFECE" filter="url(#fer12ti)" points="271.75,265.9063,283.75,277.9063,271.75,289.9063,259.75,277.9063,271.75,265.9063" style="stroke: #A80036; stroke-width: 1.5;"/><rect fill="#FEFECE" filter="url(#fer12ti)" height="33.9688" rx="12.5" ry="12.5" style="stroke: #A80036; stroke-width: 1.5;" width="106" x="513" y="137.9688"/><text fill="#000000" font-family="sans-serif" font-size="12" lengthAdjust="spacingAndGlyphs" textLength="86" x="523" y="159.1074">Iniciar sessão</text><polygon fill="#FEFECE" filter="url(#fer12ti)" points="418.875,295.9063,430.875,307.9063,418.875,319.9063,406.875,307.9063,418.875,295.9063" style="stroke: #A80036; stroke-width: 1.5;"/><ellipse cx="418.875" cy="349.9063" fill="none" filter="url(#fer12ti)" rx="10" ry="10" style="stroke: #000000; stroke-width: 1.0;"/><ellipse cx="419.375" cy="350.4063" fill="#000000" filter="url(#fer12ti)" rx="6" ry="6" style="stroke: none; stroke-width: 1.0;"/><line style="stroke: #A80036; stroke-width: 1.5;" x1="418.875" x2="418.875" y1="30" y2="50"/><polygon fill="#A80036" points="414.875,40,418.875,50,422.875,40,418.875,44" style="stroke: #A80036; stroke-width: 1.0;"/><line style="stroke: #A80036; stroke-width: 1.5;" x1="148.5" x2="148.5" y1="205.9375" y2="225.9375"/><polygon fill="#A80036" points="144.5,215.9375,148.5,225.9375,152.5,215.9375,148.5,219.9375" style="stroke: #A80036; stroke-width: 1.0;"/><line style="stroke: #A80036; stroke-width: 1.5;" x1="202.25" x2="148.5" y1="149.9688" y2="149.9688"/><line style="stroke: #A80036; stroke-width: 1.5;" x1="148.5" x2="148.5" y1="149.9688" y2="171.9688"/><polygon fill="#A80036" points="144.5,161.9688,148.5,171.9688,152.5,161.9688,148.5,165.9688" style="stroke: #A80036; stroke-width: 1.0;"/><line style="stroke: #A80036; stroke-width: 1.5;" x1="341.25" x2="395" y1="149.9688" y2="149.9688"/><line style="stroke: #A80036; stroke-width: 1.5;" x1="395" x2="395" y1="149.9688" y2="171.9688"/><polygon fill="#A80036" points="391,161.9688,395,171.9688,399,161.9688,395,165.9688" style="stroke: #A80036; stroke-width: 1.0;"/><line style="stroke: #A80036; stroke-width: 1.5;" x1="148.5" x2="148.5" y1="259.9063" y2="277.9063"/><line style="stroke: #A80036; stroke-width: 1.5;" x1="148.5" x2="259.75" y1="277.9063" y2="277.9063"/><polygon fill="#A80036" points="249.75,273.9063,259.75,277.9063,249.75,281.9063,253.75,277.9063" style="stroke: #A80036; stroke-width: 1.0;"/><line style="stroke: #A80036; stroke-width: 1.5;" x1="395" x2="395" y1="205.9375" y2="277.9063"/><line style="stroke: #A80036; stroke-width: 1.5;" x1="395" x2="283.75" y1="277.9063" y2="277.9063"/><polygon fill="#A80036" points="293.75,273.9063,283.75,277.9063,293.75,281.9063,289.75,277.9063" style="stroke: #A80036; stroke-width: 1.0;"/><line style="stroke: #A80036; stroke-width: 1.5;" x1="346.375" x2="271.75" y1="115.9688" y2="115.9688"/><line style="stroke: #A80036; stroke-width: 1.5;" x1="271.75" x2="271.75" y1="115.9688" y2="137.9688"/><polygon fill="#A80036" points="267.75,127.9688,271.75,137.9688,275.75,127.9688,271.75,131.9688" style="stroke: #A80036; stroke-width: 1.0;"/><line style="stroke: #A80036; stroke-width: 1.5;" x1="491.375" x2="566" y1="115.9688" y2="115.9688"/><line style="stroke: #A80036; stroke-width: 1.5;" x1="566" x2="566" y1="115.9688" y2="137.9688"/><polygon fill="#A80036" points="562,127.9688,566,137.9688,570,127.9688,566,131.9688" style="stroke: #A80036; stroke-width: 1.0;"/><line style="stroke: #A80036; stroke-width: 1.5;" x1="271.75" x2="271.75" y1="289.9063" y2="307.9063"/><line style="stroke: #A80036; stroke-width: 1.5;" x1="271.75" x2="406.875" y1="307.9063" y2="307.9063"/><polygon fill="#A80036" points="396.875,303.9063,406.875,307.9063,396.875,311.9063,400.875,307.9063" style="stroke: #A80036; stroke-width: 1.0;"/><line style="stroke: #A80036; stroke-width: 1.5;" x1="566" x2="566" y1="171.9375" y2="307.9063"/><line style="stroke: #A80036; stroke-width: 1.5;" x1="566" x2="430.875" y1="307.9063" y2="307.9063"/><polygon fill="#A80036" points="440.875,303.9063,430.875,307.9063,440.875,311.9063,436.875,307.9063" style="stroke: #A80036; stroke-width: 1.0;"/><line style="stroke: #A80036; stroke-width: 1.5;" x1="418.875" x2="418.875" y1="83.9688" y2="103.9688"/><polygon fill="#A80036" points="414.875,93.9688,418.875,103.9688,422.875,93.9688,418.875,97.9688" style="stroke: #A80036; stroke-width: 1.0;"/><line style="stroke: #A80036; stroke-width: 1.5;" x1="418.875" x2="418.875" y1="319.9063" y2="339.9063"/><polygon fill="#A80036" points="414.875,329.9063,418.875,339.9063,422.875,329.9063,418.875,333.9063" style="stroke: #A80036; stroke-width: 1.0;"/></g></svg>