<?xml version="1.0" encoding="UTF-8" standalone="no"?><svg xmlns="http://www.w3.org/2000/svg" xmlns:xlink="http://www.w3.org/1999/xlink" contentScriptType="application/ecmascript" contentStyleType="text/css" height="504px" preserveAspectRatio="none" style="width:864px;height:504px;" version="1.1" viewBox="0 0 864 504" width="864px" zoomAndPan="magnify"><defs><filter height="300%" id="faabapd" width="300%" x="-1" y="-1"><feGaussianBlur result="blurOut" stdDeviation="2.0"/><feColorMatrix in="blurOut" result="blurOut2" type="matrix" values="0 0 0 0 0 0 0 0 0 0 0 0 0 0 0 0 0 0 .4 0"/><feOffset dx="4.0" dy="4.0" in="blurOut2" result="blurOut3"/><feBlend in="SourceGraphic" in2="blurOut3" mode="normal"/></filter></defs><g><ellipse cx="388.4375" cy="20" fill="#000000" filter="url(#faabapd)" rx="10" ry="10" style="stroke: none; stroke-width: 1.0;"/><rect fill="#FEFECE" filter="url(#faabapd)" height="33.9688" rx="12.5" ry="12.5" style="stroke: #A80036; stroke-width: 1.5;" width="158" x="309.4375" y="50"/><text fill="#000000" font-family="sans-serif" font-size="12" lengthAdjust="spacingAndGlyphs" textLength="138" x="319.4375" y="71.1387">Carregar lista de lojas</text><rect fill="#FEFECE" filter="url(#faabapd)" height="33.9688" rx="12.5" ry="12.5" style="stroke: #A80036; stroke-width: 1.5;" width="109" x="333.9375" y="103.9688"/><text fill="#000000" font-family="sans-serif" font-size="12" lengthAdjust="spacingAndGlyphs" textLength="89" x="343.9375" y="125.1074">Escolher ação</text><polygon fill="#FEFECE" filter="url(#faabapd)" points="354.9375,157.9375,421.9375,157.9375,433.9375,169.9375,421.9375,181.9375,354.9375,181.9375,342.9375,169.9375,354.9375,157.9375" style="stroke: #A80036; stroke-width: 1.5;"/><text fill="#000000" font-family="sans-serif" font-size="11" lengthAdjust="spacingAndGlyphs" textLength="67" x="354.9375" y="173.7456">Cadastrar ?</text><text fill="#000000" font-family="sans-serif" font-size="11" lengthAdjust="spacingAndGlyphs" textLength="22" x="320.9375" y="167.3433">Sim</text><text fill="#000000" font-family="sans-serif" font-size="11" lengthAdjust="spacingAndGlyphs" textLength="22" x="433.9375" y="167.3433">Não</text><rect fill="#FEFECE" filter="url(#faabapd)" height="33.9688" rx="12.5" ry="12.5" style="stroke: #A80036; stroke-width: 1.5;" width="218" x="55.5" y="191.9375"/><text fill="#000000" font-family="sans-serif" font-size="12" lengthAdjust="spacingAndGlyphs" textLength="198" x="65.5" y="213.0762">Preencher campos de cadastro</text><rect fill="#FEFECE" filter="url(#faabapd)" height="33.9688" rx="12.5" ry="12.5" style="stroke: #A80036; stroke-width: 1.5;" width="152" x="88.5" y="260.9063"/><text fill="#000000" font-family="sans-serif" font-size="12" lengthAdjust="spacingAndGlyphs" textLength="132" x="98.5" y="282.0449">Verificar informações</text><polygon fill="#FEFECE" filter="url(#faabapd)" points="102,329.875,227,329.875,239,341.875,227,353.875,102,353.875,90,341.875,102,329.875" style="stroke: #A80036; stroke-width: 1.5;"/><text fill="#000000" font-family="sans-serif" font-size="11" lengthAdjust="spacingAndGlyphs" textLength="125" x="102" y="345.6831">Informações válidas ?</text><text fill="#000000" font-family="sans-serif" font-size="11" lengthAdjust="spacingAndGlyphs" textLength="22" x="68" y="339.2808">Sim</text><text fill="#000000" font-family="sans-serif" font-size="11" lengthAdjust="spacingAndGlyphs" textLength="22" x="239" y="339.2808">Não</text><rect fill="#FEFECE" filter="url(#faabapd)" height="33.9688" rx="12.5" ry="12.5" style="stroke: #A80036; stroke-width: 1.5;" width="140" x="10" y="363.875"/><text fill="#000000" font-family="sans-serif" font-size="12" lengthAdjust="spacingAndGlyphs" textLength="120" x="20" y="385.0137">Confirmar cadastro</text><polygon fill="#FEFECE" filter="url(#faabapd)" points="164.5,403.8438,176.5,415.8438,164.5,427.8438,152.5,415.8438,164.5,403.8438" style="stroke: #A80036; stroke-width: 1.5;"/><polygon fill="#FEFECE" filter="url(#faabapd)" points="583.375,191.9375,641.375,191.9375,653.375,203.9375,641.375,215.9375,583.375,215.9375,571.375,203.9375,583.375,191.9375" style="stroke: #A80036; stroke-width: 1.5;"/><text fill="#000000" font-family="sans-serif" font-size="11" lengthAdjust="spacingAndGlyphs" textLength="58" x="583.375" y="207.7456">Atualizar ?</text><text fill="#000000" font-family="sans-serif" font-size="11" lengthAdjust="spacingAndGlyphs" textLength="22" x="549.375" y="201.3433">Sim</text><text fill="#000000" font-family="sans-serif" font-size="11" lengthAdjust="spacingAndGlyphs" textLength="22" x="653.375" y="201.3433">Não</text><rect fill="#FEFECE" filter="url(#faabapd)" height="33.9688" rx="12.5" ry="12.5" style="stroke: #A80036; stroke-width: 1.5;" width="269" x="304" y="225.9375"/><text fill="#000000" font-family="sans-serif" font-size="12" lengthAdjust="spacingAndGlyphs" textLength="249" x="314" y="247.0762">Preencher campos que deseja atualizar</text><rect fill="#FEFECE" filter="url(#faabapd)" height="33.9688" rx="12.5" ry="12.5" style="stroke: #A80036; stroke-width: 1.5;" width="208" x="334.5" y="294.9063"/><text fill="#000000" font-family="sans-serif" font-size="12" lengthAdjust="spacingAndGlyphs" textLength="188" x="344.5" y="316.0449">Validar informações alteradas</text><rect fill="#FEFECE" filter="url(#faabapd)" height="33.9688" rx="12.5" ry="12.5" style="stroke: #A80036; stroke-width: 1.5;" width="129" x="374" y="363.875"/><text fill="#000000" font-family="sans-serif" font-size="12" lengthAdjust="spacingAndGlyphs" textLength="109" x="384" y="385.0137">Salvar alterações</text><polygon fill="#FEFECE" filter="url(#faabapd)" points="762.75,225.9375,809.75,225.9375,821.75,237.9375,809.75,249.9375,762.75,249.9375,750.75,237.9375,762.75,225.9375" style="stroke: #A80036; stroke-width: 1.5;"/><text fill="#000000" font-family="sans-serif" font-size="11" lengthAdjust="spacingAndGlyphs" textLength="47" x="762.75" y="241.7456">Excluir ?</text><text fill="#000000" font-family="sans-serif" font-size="11" lengthAdjust="spacingAndGlyphs" textLength="22" x="728.75" y="235.3433">Sim</text><text fill="#000000" font-family="sans-serif" font-size="11" lengthAdjust="spacingAndGlyphs" textLength="22" x="821.75" y="235.3433">Não</text><rect fill="#FEFECE" filter="url(#faabapd)" height="33.9688" rx="12.5" ry="12.5" style="stroke: #A80036; stroke-width: 1.5;" width="221" x="603" y="259.9375"/><text fill="#000000" font-family="sans-serif" font-size="12" lengthAdjust="spacingAndGlyphs" textLength="201" x="613" y="281.0762">Selecionar a loja a ser removida</text><rect fill="#FEFECE" filter="url(#faabapd)" height="33.9688" rx="12.5" ry="12.5" style="stroke: #A80036; stroke-width: 1.5;" width="139" x="644" y="328.9063"/><text fill="#000000" font-family="sans-serif" font-size="12" lengthAdjust="spacingAndGlyphs" textLength="119" x="654" y="350.0449">Confirmar exclusão</text><polygon fill="#FEFECE" filter="url(#faabapd)" points="786.25,368.875,798.25,380.875,786.25,392.875,774.25,380.875,786.25,368.875" style="stroke: #A80036; stroke-width: 1.5;"/><polygon fill="#FEFECE" filter="url(#faabapd)" points="612.375,403.8438,624.375,415.8438,612.375,427.8438,600.375,415.8438,612.375,403.8438" style="stroke: #A80036; stroke-width: 1.5;"/><polygon fill="#FEFECE" filter="url(#faabapd)" points="388.4375,433.8438,400.4375,445.8438,388.4375,457.8438,376.4375,445.8438,388.4375,433.8438" style="stroke: #A80036; stroke-width: 1.5;"/><ellipse cx="388.4375" cy="487.8438" fill="none" filter="url(#faabapd)" rx="10" ry="10" style="stroke: #000000; stroke-width: 1.0;"/><ellipse cx="388.9375" cy="488.3438" fill="#000000" filter="url(#faabapd)" rx="6" ry="6" style="stroke: none; stroke-width: 1.0;"/><line style="stroke: #A80036; stroke-width: 1.5;" x1="388.4375" x2="388.4375" y1="30" y2="50"/><polygon fill="#A80036" points="384.4375,40,388.4375,50,392.4375,40,388.4375,44" style="stroke: #A80036; stroke-width: 1.0;"/><line style="stroke: #A80036; stroke-width: 1.5;" x1="388.4375" x2="388.4375" y1="83.9688" y2="103.9688"/><polygon fill="#A80036" points="384.4375,93.9688,388.4375,103.9688,392.4375,93.9688,388.4375,97.9688" style="stroke: #A80036; stroke-width: 1.0;"/><line style="stroke: #A80036; stroke-width: 1.5;" x1="164.5" x2="164.5" y1="225.9063" y2="260.9063"/><polygon fill="#A80036" points="160.5,250.9063,164.5,260.9063,168.5,250.9063,164.5,254.9063" style="stroke: #A80036; stroke-width: 1.0;"/><line style="stroke: #A80036; stroke-width: 1.5;" x1="90" x2="80" y1="341.875" y2="341.875"/><line style="stroke: #A80036; stroke-width: 1.5;" x1="80" x2="80" y1="341.875" y2="363.875"/><polygon fill="#A80036" points="76,353.875,80,363.875,84,353.875,80,357.875" style="stroke: #A80036; stroke-width: 1.0;"/><line style="stroke: #A80036; stroke-width: 1.5;" x1="239" x2="249" y1="341.875" y2="341.875"/><polygon fill="#A80036" points="245,368.8594,249,378.8594,253,368.8594,249,372.8594" style="stroke: #A80036; stroke-width: 1.5;"/><line style="stroke: #A80036; stroke-width: 1.5;" x1="249" x2="249" y1="341.875" y2="415.8438"/><line style="stroke: #A80036; stroke-width: 1.5;" x1="249" x2="176.5" y1="415.8438" y2="415.8438"/><polygon fill="#A80036" points="186.5,411.8438,176.5,415.8438,186.5,419.8438,182.5,415.8438" style="stroke: #A80036; stroke-width: 1.0;"/><line style="stroke: #A80036; stroke-width: 1.5;" x1="80" x2="80" y1="397.8438" y2="415.8438"/><line style="stroke: #A80036; stroke-width: 1.5;" x1="80" x2="152.5" y1="415.8438" y2="415.8438"/><polygon fill="#A80036" points="142.5,411.8438,152.5,415.8438,142.5,419.8438,146.5,415.8438" style="stroke: #A80036; stroke-width: 1.0;"/><line style="stroke: #A80036; stroke-width: 1.5;" x1="164.5" x2="164.5" y1="294.875" y2="329.875"/><polygon fill="#A80036" points="160.5,319.875,164.5,329.875,168.5,319.875,164.5,323.875" style="stroke: #A80036; stroke-width: 1.0;"/><line style="stroke: #A80036; stroke-width: 1.5;" x1="438.5" x2="438.5" y1="259.9063" y2="294.9063"/><polygon fill="#A80036" points="434.5,284.9063,438.5,294.9063,442.5,284.9063,438.5,288.9063" style="stroke: #A80036; stroke-width: 1.0;"/><line style="stroke: #A80036; stroke-width: 1.5;" x1="438.5" x2="438.5" y1="328.875" y2="363.875"/><polygon fill="#A80036" points="434.5,353.875,438.5,363.875,442.5,353.875,438.5,357.875" style="stroke: #A80036; stroke-width: 1.0;"/><line style="stroke: #A80036; stroke-width: 1.5;" x1="713.5" x2="713.5" y1="293.9063" y2="328.9063"/><polygon fill="#A80036" points="709.5,318.9063,713.5,328.9063,717.5,318.9063,713.5,322.9063" style="stroke: #A80036; stroke-width: 1.0;"/><line style="stroke: #A80036; stroke-width: 1.5;" x1="750.75" x2="713.5" y1="237.9375" y2="237.9375"/><line style="stroke: #A80036; stroke-width: 1.5;" x1="713.5" x2="713.5" y1="237.9375" y2="259.9375"/><polygon fill="#A80036" points="709.5,249.9375,713.5,259.9375,717.5,249.9375,713.5,253.9375" style="stroke: #A80036; stroke-width: 1.0;"/><line style="stroke: #A80036; stroke-width: 1.5;" x1="821.75" x2="859" y1="237.9375" y2="237.9375"/><polygon fill="#A80036" points="855,299.4063,859,309.4063,863,299.4063,859,303.4063" style="stroke: #A80036; stroke-width: 1.5;"/><line style="stroke: #A80036; stroke-width: 1.5;" x1="859" x2="859" y1="237.9375" y2="380.875"/><line style="stroke: #A80036; stroke-width: 1.5;" x1="859" x2="798.25" y1="380.875" y2="380.875"/><polygon fill="#A80036" points="808.25,376.875,798.25,380.875,808.25,384.875,804.25,380.875" style="stroke: #A80036; stroke-width: 1.0;"/><line style="stroke: #A80036; stroke-width: 1.5;" x1="713.5" x2="713.5" y1="362.875" y2="380.875"/><line style="stroke: #A80036; stroke-width: 1.5;" x1="713.5" x2="774.25" y1="380.875" y2="380.875"/><polygon fill="#A80036" points="764.25,376.875,774.25,380.875,764.25,384.875,768.25,380.875" style="stroke: #A80036; stroke-width: 1.0;"/><line style="stroke: #A80036; stroke-width: 1.5;" x1="571.375" x2="438.5" y1="203.9375" y2="203.9375"/><line style="stroke: #A80036; stroke-width: 1.5;" x1="438.5" x2="438.5" y1="203.9375" y2="225.9375"/><polygon fill="#A80036" points="434.5,215.9375,438.5,225.9375,442.5,215.9375,438.5,219.9375" style="stroke: #A80036; stroke-width: 1.0;"/><line style="stroke: #A80036; stroke-width: 1.5;" x1="653.375" x2="786.25" y1="203.9375" y2="203.9375"/><line style="stroke: #A80036; stroke-width: 1.5;" x1="786.25" x2="786.25" y1="203.9375" y2="225.9375"/><polygon fill="#A80036" points="782.25,215.9375,786.25,225.9375,790.25,215.9375,786.25,219.9375" style="stroke: #A80036; stroke-width: 1.0;"/><line style="stroke: #A80036; stroke-width: 1.5;" x1="438.5" x2="438.5" y1="397.8438" y2="415.8438"/><line style="stroke: #A80036; stroke-width: 1.5;" x1="438.5" x2="600.375" y1="415.8438" y2="415.8438"/><polygon fill="#A80036" points="590.375,411.8438,600.375,415.8438,590.375,419.8438,594.375,415.8438" style="stroke: #A80036; stroke-width: 1.0;"/><line style="stroke: #A80036; stroke-width: 1.5;" x1="786.25" x2="786.25" y1="392.875" y2="415.8438"/><line style="stroke: #A80036; stroke-width: 1.5;" x1="786.25" x2="624.375" y1="415.8438" y2="415.8438"/><polygon fill="#A80036" points="634.375,411.8438,624.375,415.8438,634.375,419.8438,630.375,415.8438" style="stroke: #A80036; stroke-width: 1.0;"/><line style="stroke: #A80036; stroke-width: 1.5;" x1="342.9375" x2="164.5" y1="169.9375" y2="169.9375"/><line style="stroke: #A80036; stroke-width: 1.5;" x1="164.5" x2="164.5" y1="169.9375" y2="191.9375"/><polygon fill="#A80036" points="160.5,181.9375,164.5,191.9375,168.5,181.9375,164.5,185.9375" style="stroke: #A80036; stroke-width: 1.0;"/><line style="stroke: #A80036; stroke-width: 1.5;" x1="433.9375" x2="612.375" y1="169.9375" y2="169.9375"/><line style="stroke: #A80036; stroke-width: 1.5;" x1="612.375" x2="612.375" y1="169.9375" y2="191.9375"/><polygon fill="#A80036" points="608.375,181.9375,612.375,191.9375,616.375,181.9375,612.375,185.9375" style="stroke: #A80036; stroke-width: 1.0;"/><line style="stroke: #A80036; stroke-width: 1.5;" x1="164.5" x2="164.5" y1="427.8438" y2="445.8438"/><line style="stroke: #A80036; stroke-width: 1.5;" x1="164.5" x2="376.4375" y1="445.8438" y2="445.8438"/><polygon fill="#A80036" points="366.4375,441.8438,376.4375,445.8438,366.4375,449.8438,370.4375,445.8438" style="stroke: #A80036; stroke-width: 1.0;"/><line style="stroke: #A80036; stroke-width: 1.5;" x1="612.375" x2="612.375" y1="427.8438" y2="445.8438"/><line style="stroke: #A80036; stroke-width: 1.5;" x1="612.375" x2="400.4375" y1="445.8438" y2="445.8438"/><polygon fill="#A80036" points="410.4375,441.8438,400.4375,445.8438,410.4375,449.8438,406.4375,445.8438" style="stroke: #A80036; stroke-width: 1.0;"/><line style="stroke: #A80036; stroke-width: 1.5;" x1="388.4375" x2="388.4375" y1="137.9375" y2="157.9375"/><polygon fill="#A80036" points="384.4375,147.9375,388.4375,157.9375,392.4375,147.9375,388.4375,151.9375" style="stroke: #A80036; stroke-width: 1.0;"/><line style="stroke: #A80036; stroke-width: 1.5;" x1="388.4375" x2="388.4375" y1="457.8438" y2="477.8438"/><polygon fill="#A80036" points="384.4375,467.8438,388.4375,477.8438,392.4375,467.8438,388.4375,471.8438" style="stroke: #A80036; stroke-width: 1.0;"/></g></svg>