<?xml version="1.0" encoding="UTF-8" standalone="no"?><svg xmlns="http://www.w3.org/2000/svg" xmlns:xlink="http://www.w3.org/1999/xlink" contentScriptType="application/ecmascript" contentStyleType="text/css" height="504px" preserveAspectRatio="none" style="width:892px;height:504px;" version="1.1" viewBox="0 0 892 504" width="892px" zoomAndPan="magnify"><defs><filter height="300%" id="fei7ksj" width="300%" x="-1" y="-1"><feGaussianBlur result="blurOut" stdDeviation="2.0"/><feColorMatrix in="blurOut" result="blurOut2" type="matrix" values="0 0 0 0 0 0 0 0 0 0 0 0 0 0 0 0 0 0 .4 0"/><feOffset dx="4.0" dy="4.0" in="blurOut2" result="blurOut3"/><feBlend in="SourceGraphic" in2="blurOut3" mode="normal"/></filter></defs><g><ellipse cx="393.6875" cy="20" fill="#000000" filter="url(#fei7ksj)" rx="10" ry="10" style="stroke: none; stroke-width: 1.0;"/><rect fill="#FEFECE" filter="url(#fei7ksj)" height="33.9688" rx="12.5" ry="12.5" style="stroke: #A80036; stroke-width: 1.5;" width="186" x="300.6875" y="50"/><text fill="#000000" font-family="sans-serif" font-size="12" lengthAdjust="spacingAndGlyphs" textLength="166" x="310.6875" y="71.1387">Carregar lista de produtos</text><rect fill="#FEFECE" filter="url(#fei7ksj)" height="33.9688" rx="12.5" ry="12.5" style="stroke: #A80036; stroke-width: 1.5;" width="109" x="339.1875" y="103.9688"/><text fill="#000000" font-family="sans-serif" font-size="12" lengthAdjust="spacingAndGlyphs" textLength="89" x="349.1875" y="125.1074">Escolher ação</text><polygon fill="#FEFECE" filter="url(#fei7ksj)" points="360.1875,157.9375,427.1875,157.9375,439.1875,169.9375,427.1875,181.9375,360.1875,181.9375,348.1875,169.9375,360.1875,157.9375" style="stroke: #A80036; stroke-width: 1.5;"/><text fill="#000000" font-family="sans-serif" font-size="11" lengthAdjust="spacingAndGlyphs" textLength="67" x="360.1875" y="173.7456">Cadastrar ?</text><text fill="#000000" font-family="sans-serif" font-size="11" lengthAdjust="spacingAndGlyphs" textLength="22" x="326.1875" y="167.3433">Sim</text><text fill="#000000" font-family="sans-serif" font-size="11" lengthAdjust="spacingAndGlyphs" textLength="22" x="439.1875" y="167.3433">Não</text><rect fill="#FEFECE" filter="url(#fei7ksj)" height="33.9688" rx="12.5" ry="12.5" style="stroke: #A80036; stroke-width: 1.5;" width="218" x="55.5" y="191.9375"/><text fill="#000000" font-family="sans-serif" font-size="12" lengthAdjust="spacingAndGlyphs" textLength="198" x="65.5" y="213.0762">Preencher campos de cadastro</text><rect fill="#FEFECE" filter="url(#fei7ksj)" height="33.9688" rx="12.5" ry="12.5" style="stroke: #A80036; stroke-width: 1.5;" width="152" x="88.5" y="260.9063"/><text fill="#000000" font-family="sans-serif" font-size="12" lengthAdjust="spacingAndGlyphs" textLength="132" x="98.5" y="282.0449">Verificar informações</text><polygon fill="#FEFECE" filter="url(#fei7ksj)" points="102,329.875,227,329.875,239,341.875,227,353.875,102,353.875,90,341.875,102,329.875" style="stroke: #A80036; stroke-width: 1.5;"/><text fill="#000000" font-family="sans-serif" font-size="11" lengthAdjust="spacingAndGlyphs" textLength="125" x="102" y="345.6831">Informações válidas ?</text><text fill="#000000" font-family="sans-serif" font-size="11" lengthAdjust="spacingAndGlyphs" textLength="22" x="68" y="339.2808">Sim</text><text fill="#000000" font-family="sans-serif" font-size="11" lengthAdjust="spacingAndGlyphs" textLength="22" x="239" y="339.2808">Não</text><rect fill="#FEFECE" filter="url(#fei7ksj)" height="33.9688" rx="12.5" ry="12.5" style="stroke: #A80036; stroke-width: 1.5;" width="140" x="10" y="363.875"/><text fill="#000000" font-family="sans-serif" font-size="12" lengthAdjust="spacingAndGlyphs" textLength="120" x="20" y="385.0137">Confirmar cadastro</text><polygon fill="#FEFECE" filter="url(#fei7ksj)" points="164.5,403.8438,176.5,415.8438,164.5,427.8438,152.5,415.8438,164.5,403.8438" style="stroke: #A80036; stroke-width: 1.5;"/><polygon fill="#FEFECE" filter="url(#fei7ksj)" points="593.875,191.9375,651.875,191.9375,663.875,203.9375,651.875,215.9375,593.875,215.9375,581.875,203.9375,593.875,191.9375" style="stroke: #A80036; stroke-width: 1.5;"/><text fill="#000000" font-family="sans-serif" font-size="11" lengthAdjust="spacingAndGlyphs" textLength="58" x="593.875" y="207.7456">Atualizar ?</text><text fill="#000000" font-family="sans-serif" font-size="11" lengthAdjust="spacingAndGlyphs" textLength="22" x="559.875" y="201.3433">Sim</text><text fill="#000000" font-family="sans-serif" font-size="11" lengthAdjust="spacingAndGlyphs" textLength="22" x="663.875" y="201.3433">Não</text><rect fill="#FEFECE" filter="url(#fei7ksj)" height="33.9688" rx="12.5" ry="12.5" style="stroke: #A80036; stroke-width: 1.5;" width="269" x="304" y="225.9375"/><text fill="#000000" font-family="sans-serif" font-size="12" lengthAdjust="spacingAndGlyphs" textLength="249" x="314" y="247.0762">Preencher campos que deseja atualizar</text><rect fill="#FEFECE" filter="url(#fei7ksj)" height="33.9688" rx="12.5" ry="12.5" style="stroke: #A80036; stroke-width: 1.5;" width="208" x="334.5" y="294.9063"/><text fill="#000000" font-family="sans-serif" font-size="12" lengthAdjust="spacingAndGlyphs" textLength="188" x="344.5" y="316.0449">Validar informações alteradas</text><rect fill="#FEFECE" filter="url(#fei7ksj)" height="33.9688" rx="12.5" ry="12.5" style="stroke: #A80036; stroke-width: 1.5;" width="129" x="374" y="363.875"/><text fill="#000000" font-family="sans-serif" font-size="12" lengthAdjust="spacingAndGlyphs" textLength="109" x="384" y="385.0137">Salvar alterações</text><polygon fill="#FEFECE" filter="url(#fei7ksj)" points="783.75,225.9375,830.75,225.9375,842.75,237.9375,830.75,249.9375,783.75,249.9375,771.75,237.9375,783.75,225.9375" style="stroke: #A80036; stroke-width: 1.5;"/><text fill="#000000" font-family="sans-serif" font-size="11" lengthAdjust="spacingAndGlyphs" textLength="47" x="783.75" y="241.7456">Excluir ?</text><text fill="#000000" font-family="sans-serif" font-size="11" lengthAdjust="spacingAndGlyphs" textLength="22" x="749.75" y="235.3433">Sim</text><text fill="#000000" font-family="sans-serif" font-size="11" lengthAdjust="spacingAndGlyphs" textLength="22" x="842.75" y="235.3433">Não</text><rect fill="#FEFECE" filter="url(#fei7ksj)" height="33.9688" rx="12.5" ry="12.5" style="stroke: #A80036; stroke-width: 1.5;" width="249" x="603" y="259.9375"/><text fill="#000000" font-family="sans-serif" font-size="12" lengthAdjust="spacingAndGlyphs" textLength="229" x="613" y="281.0762">Selecionar o produto a ser removida</text><rect fill="#FEFECE" filter="url(#fei7ksj)" height="33.9688" rx="12.5" ry="12.5" style="stroke: #A80036; stroke-width: 1.5;" width="139" x="658" y="328.9063"/><text fill="#000000" font-family="sans-serif" font-size="12" lengthAdjust="spacingAndGlyphs" textLength="119" x="668" y="350.0449">Confirmar exclusão</text><polygon fill="#FEFECE" filter="url(#fei7ksj)" points="807.25,368.875,819.25,380.875,807.25,392.875,795.25,380.875,807.25,368.875" style="stroke: #A80036; stroke-width: 1.5;"/><polygon fill="#FEFECE" filter="url(#fei7ksj)" points="622.875,403.8438,634.875,415.8438,622.875,427.8438,610.875,415.8438,622.875,403.8438" style="stroke: #A80036; stroke-width: 1.5;"/><polygon fill="#FEFECE" filter="url(#fei7ksj)" points="393.6875,433.8438,405.6875,445.8438,393.6875,457.8438,381.6875,445.8438,393.6875,433.8438" style="stroke: #A80036; stroke-width: 1.5;"/><ellipse cx="393.6875" cy="487.8438" fill="none" filter="url(#fei7ksj)" rx="10" ry="10" style="stroke: #000000; stroke-width: 1.0;"/><ellipse cx="394.1875" cy="488.3438" fill="#000000" filter="url(#fei7ksj)" rx="6" ry="6" style="stroke: none; stroke-width: 1.0;"/><line style="stroke: #A80036; stroke-width: 1.5;" x1="393.6875" x2="393.6875" y1="30" y2="50"/><polygon fill="#A80036" points="389.6875,40,393.6875,50,397.6875,40,393.6875,44" style="stroke: #A80036; stroke-width: 1.0;"/><line style="stroke: #A80036; stroke-width: 1.5;" x1="393.6875" x2="393.6875" y1="83.9688" y2="103.9688"/><polygon fill="#A80036" points="389.6875,93.9688,393.6875,103.9688,397.6875,93.9688,393.6875,97.9688" style="stroke: #A80036; stroke-width: 1.0;"/><line style="stroke: #A80036; stroke-width: 1.5;" x1="164.5" x2="164.5" y1="225.9063" y2="260.9063"/><polygon fill="#A80036" points="160.5,250.9063,164.5,260.9063,168.5,250.9063,164.5,254.9063" style="stroke: #A80036; stroke-width: 1.0;"/><line style="stroke: #A80036; stroke-width: 1.5;" x1="90" x2="80" y1="341.875" y2="341.875"/><line style="stroke: #A80036; stroke-width: 1.5;" x1="80" x2="80" y1="341.875" y2="363.875"/><polygon fill="#A80036" points="76,353.875,80,363.875,84,353.875,80,357.875" style="stroke: #A80036; stroke-width: 1.0;"/><line style="stroke: #A80036; stroke-width: 1.5;" x1="239" x2="249" y1="341.875" y2="341.875"/><polygon fill="#A80036" points="245,368.8594,249,378.8594,253,368.8594,249,372.8594" style="stroke: #A80036; stroke-width: 1.5;"/><line style="stroke: #A80036; stroke-width: 1.5;" x1="249" x2="249" y1="341.875" y2="415.8438"/><line style="stroke: #A80036; stroke-width: 1.5;" x1="249" x2="176.5" y1="415.8438" y2="415.8438"/><polygon fill="#A80036" points="186.5,411.8438,176.5,415.8438,186.5,419.8438,182.5,415.8438" style="stroke: #A80036; stroke-width: 1.0;"/><line style="stroke: #A80036; stroke-width: 1.5;" x1="80" x2="80" y1="397.8438" y2="415.8438"/><line style="stroke: #A80036; stroke-width: 1.5;" x1="80" x2="152.5" y1="415.8438" y2="415.8438"/><polygon fill="#A80036" points="142.5,411.8438,152.5,415.8438,142.5,419.8438,146.5,415.8438" style="stroke: #A80036; stroke-width: 1.0;"/><line style="stroke: #A80036; stroke-width: 1.5;" x1="164.5" x2="164.5" y1="294.875" y2="329.875"/><polygon fill="#A80036" points="160.5,319.875,164.5,329.875,168.5,319.875,164.5,323.875" style="stroke: #A80036; stroke-width: 1.0;"/><line style="stroke: #A80036; stroke-width: 1.5;" x1="438.5" x2="438.5" y1="259.9063" y2="294.9063"/><polygon fill="#A80036" points="434.5,284.9063,438.5,294.9063,442.5,284.9063,438.5,288.9063" style="stroke: #A80036; stroke-width: 1.0;"/><line style="stroke: #A80036; stroke-width: 1.5;" x1="438.5" x2="438.5" y1="328.875" y2="363.875"/><polygon fill="#A80036" points="434.5,353.875,438.5,363.875,442.5,353.875,438.5,357.875" style="stroke: #A80036; stroke-width: 1.0;"/><line style="stroke: #A80036; stroke-width: 1.5;" x1="727.5" x2="727.5" y1="293.9063" y2="328.9063"/><polygon fill="#A80036" points="723.5,318.9063,727.5,328.9063,731.5,318.9063,727.5,322.9063" style="stroke: #A80036; stroke-width: 1.0;"/><line style="stroke: #A80036; stroke-width: 1.5;" x1="771.75" x2="727.5" y1="237.9375" y2="237.9375"/><line style="stroke: #A80036; stroke-width: 1.5;" x1="727.5" x2="727.5" y1="237.9375" y2="259.9375"/><polygon fill="#A80036" points="723.5,249.9375,727.5,259.9375,731.5,249.9375,727.5,253.9375" style="stroke: #A80036; stroke-width: 1.0;"/><line style="stroke: #A80036; stroke-width: 1.5;" x1="842.75" x2="887" y1="237.9375" y2="237.9375"/><polygon fill="#A80036" points="883,299.4063,887,309.4063,891,299.4063,887,303.4063" style="stroke: #A80036; stroke-width: 1.5;"/><line style="stroke: #A80036; stroke-width: 1.5;" x1="887" x2="887" y1="237.9375" y2="380.875"/><line style="stroke: #A80036; stroke-width: 1.5;" x1="887" x2="819.25" y1="380.875" y2="380.875"/><polygon fill="#A80036" points="829.25,376.875,819.25,380.875,829.25,384.875,825.25,380.875" style="stroke: #A80036; stroke-width: 1.0;"/><line style="stroke: #A80036; stroke-width: 1.5;" x1="727.5" x2="727.5" y1="362.875" y2="380.875"/><line style="stroke: #A80036; stroke-width: 1.5;" x1="727.5" x2="795.25" y1="380.875" y2="380.875"/><polygon fill="#A80036" points="785.25,376.875,795.25,380.875,785.25,384.875,789.25,380.875" style="stroke: #A80036; stroke-width: 1.0;"/><line style="stroke: #A80036; stroke-width: 1.5;" x1="581.875" x2="438.5" y1="203.9375" y2="203.9375"/><line style="stroke: #A80036; stroke-width: 1.5;" x1="438.5" x2="438.5" y1="203.9375" y2="225.9375"/><polygon fill="#A80036" points="434.5,215.9375,438.5,225.9375,442.5,215.9375,438.5,219.9375" style="stroke: #A80036; stroke-width: 1.0;"/><line style="stroke: #A80036; stroke-width: 1.5;" x1="663.875" x2="807.25" y1="203.9375" y2="203.9375"/><line style="stroke: #A80036; stroke-width: 1.5;" x1="807.25" x2="807.25" y1="203.9375" y2="225.9375"/><polygon fill="#A80036" points="803.25,215.9375,807.25,225.9375,811.25,215.9375,807.25,219.9375" style="stroke: #A80036; stroke-width: 1.0;"/><line style="stroke: #A80036; stroke-width: 1.5;" x1="438.5" x2="438.5" y1="397.8438" y2="415.8438"/><line style="stroke: #A80036; stroke-width: 1.5;" x1="438.5" x2="610.875" y1="415.8438" y2="415.8438"/><polygon fill="#A80036" points="600.875,411.8438,610.875,415.8438,600.875,419.8438,604.875,415.8438" style="stroke: #A80036; stroke-width: 1.0;"/><line style="stroke: #A80036; stroke-width: 1.5;" x1="807.25" x2="807.25" y1="392.875" y2="415.8438"/><line style="stroke: #A80036; stroke-width: 1.5;" x1="807.25" x2="634.875" y1="415.8438" y2="415.8438"/><polygon fill="#A80036" points="644.875,411.8438,634.875,415.8438,644.875,419.8438,640.875,415.8438" style="stroke: #A80036; stroke-width: 1.0;"/><line style="stroke: #A80036; stroke-width: 1.5;" x1="348.1875" x2="164.5" y1="169.9375" y2="169.9375"/><line style="stroke: #A80036; stroke-width: 1.5;" x1="164.5" x2="164.5" y1="169.9375" y2="191.9375"/><polygon fill="#A80036" points="160.5,181.9375,164.5,191.9375,168.5,181.9375,164.5,185.9375" style="stroke: #A80036; stroke-width: 1.0;"/><line style="stroke: #A80036; stroke-width: 1.5;" x1="439.1875" x2="622.875" y1="169.9375" y2="169.9375"/><line style="stroke: #A80036; stroke-width: 1.5;" x1="622.875" x2="622.875" y1="169.9375" y2="191.9375"/><polygon fill="#A80036" points="618.875,181.9375,622.875,191.9375,626.875,181.9375,622.875,185.9375" style="stroke: #A80036; stroke-width: 1.0;"/><line style="stroke: #A80036; stroke-width: 1.5;" x1="164.5" x2="164.5" y1="427.8438" y2="445.8438"/><line style="stroke: #A80036; stroke-width: 1.5;" x1="164.5" x2="381.6875" y1="445.8438" y2="445.8438"/><polygon fill="#A80036" points="371.6875,441.8438,381.6875,445.8438,371.6875,449.8438,375.6875,445.8438" style="stroke: #A80036; stroke-width: 1.0;"/><line style="stroke: #A80036; stroke-width: 1.5;" x1="622.875" x2="622.875" y1="427.8438" y2="445.8438"/><line style="stroke: #A80036; stroke-width: 1.5;" x1="622.875" x2="405.6875" y1="445.8438" y2="445.8438"/><polygon fill="#A80036" points="415.6875,441.8438,405.6875,445.8438,415.6875,449.8438,411.6875,445.8438" style="stroke: #A80036; stroke-width: 1.0;"/><line style="stroke: #A80036; stroke-width: 1.5;" x1="393.6875" x2="393.6875" y1="137.9375" y2="157.9375"/><polygon fill="#A80036" points="389.6875,147.9375,393.6875,157.9375,397.6875,147.9375,393.6875,151.9375" style="stroke: #A80036; stroke-width: 1.0;"/><line style="stroke: #A80036; stroke-width: 1.5;" x1="393.6875" x2="393.6875" y1="457.8438" y2="477.8438"/><polygon fill="#A80036" points="389.6875,467.8438,393.6875,477.8438,397.6875,467.8438,393.6875,471.8438" style="stroke: #A80036; stroke-width: 1.0;"/></g></svg>