<?xml version="1.0" encoding="UTF-8" standalone="no"?><svg xmlns="http://www.w3.org/2000/svg" xmlns:xlink="http://www.w3.org/1999/xlink" contentScriptType="application/ecmascript" contentStyleType="text/css" height="512px" preserveAspectRatio="none" style="width:817px;height:512px;" version="1.1" viewBox="0 0 817 512" width="817px" zoomAndPan="magnify"><defs><filter height="300%" id="fmbqgdg" width="300%" x="-1" y="-1"><feGaussianBlur result="blurOut" stdDeviation="2.0"/><feColorMatrix in="blurOut" result="blurOut2" type="matrix" values="0 0 0 0 0 0 0 0 0 0 0 0 0 0 0 0 0 0 .4 0"/><feOffset dx="4.0" dy="4.0" in="blurOut2" result="blurOut3"/><feBlend in="SourceGraphic" in2="blurOut3" mode="normal"/></filter></defs><g><ellipse cx="543.375" cy="20" fill="#000000" filter="url(#fmbqgdg)" rx="10" ry="10" style="stroke: none; stroke-width: 1.0;"/><polygon fill="#FEFECE" filter="url(#fmbqgdg)" points="490.875,50,595.875,50,607.875,62,595.875,74,490.875,74,478.875,62,490.875,50" style="stroke: #A80036; stroke-width: 1.5;"/><text fill="#000000" font-family="sans-serif" font-size="11" lengthAdjust="spacingAndGlyphs" textLength="105" x="490.875" y="65.8081">Feedback de loja ?</text><text fill="#000000" font-family="sans-serif" font-size="11" lengthAdjust="spacingAndGlyphs" textLength="22" x="456.875" y="59.4058">Sim</text><text fill="#000000" font-family="sans-serif" font-size="11" lengthAdjust="spacingAndGlyphs" textLength="22" x="607.875" y="59.4058">Não</text><rect fill="#FEFECE" filter="url(#fmbqgdg)" height="33.9688" rx="12.5" ry="12.5" style="stroke: #A80036; stroke-width: 1.5;" width="124" x="307.25" y="84"/><text fill="#000000" font-family="sans-serif" font-size="12" lengthAdjust="spacingAndGlyphs" textLength="104" x="317.25" y="105.1387">Selecionar a loja</text><polygon fill="#FEFECE" filter="url(#fmbqgdg)" points="312.25,152.9688,426.25,152.9688,438.25,164.9688,426.25,176.9688,312.25,176.9688,300.25,164.9688,312.25,152.9688" style="stroke: #A80036; stroke-width: 1.5;"/><text fill="#000000" font-family="sans-serif" font-size="11" lengthAdjust="spacingAndGlyphs" textLength="114" x="312.25" y="168.7769">Loja tem feebacks ?</text><text fill="#000000" font-family="sans-serif" font-size="11" lengthAdjust="spacingAndGlyphs" textLength="22" x="278.25" y="162.3745">Sim</text><text fill="#000000" font-family="sans-serif" font-size="11" lengthAdjust="spacingAndGlyphs" textLength="22" x="438.25" y="162.3745">Não</text><rect fill="#FEFECE" filter="url(#fmbqgdg)" height="33.9688" rx="12.5" ry="12.5" style="stroke: #A80036; stroke-width: 1.5;" width="164" x="191.5" y="186.9688"/><text fill="#000000" font-family="sans-serif" font-size="12" lengthAdjust="spacingAndGlyphs" textLength="144" x="201.5" y="208.1074">Exibir lista de feebacks</text><rect fill="#FEFECE" filter="url(#fmbqgdg)" height="33.9688" rx="12.5" ry="12.5" style="stroke: #A80036; stroke-width: 1.5;" width="160" x="193.5" y="240.9375"/><text fill="#000000" font-family="sans-serif" font-size="12" lengthAdjust="spacingAndGlyphs" textLength="140" x="203.5" y="262.0762">Selecionar o feedback</text><polygon fill="#FEFECE" filter="url(#fmbqgdg)" points="216.5,307.9219,330.5,307.9219,342.5,319.9219,330.5,331.9219,216.5,331.9219,204.5,319.9219,216.5,307.9219" style="stroke: #A80036; stroke-width: 1.5;"/><text fill="#000000" font-family="sans-serif" font-size="11" lengthAdjust="spacingAndGlyphs" textLength="114" x="216.5" y="323.73">Reportar feedback ?</text><text fill="#000000" font-family="sans-serif" font-size="11" lengthAdjust="spacingAndGlyphs" textLength="22" x="182.5" y="317.3276">Sim</text><text fill="#000000" font-family="sans-serif" font-size="11" lengthAdjust="spacingAndGlyphs" textLength="22" x="342.5" y="317.3276">Não</text><rect fill="#FEFECE" filter="url(#fmbqgdg)" height="33.9688" rx="12.5" ry="12.5" style="stroke: #A80036; stroke-width: 1.5;" width="312" x="10" y="341.9219"/><text fill="#000000" font-family="sans-serif" font-size="12" lengthAdjust="spacingAndGlyphs" textLength="292" x="20" y="363.0605">Enviar o feedback aos administradores do site</text><rect fill="#FEFECE" filter="url(#fmbqgdg)" height="33.9688" rx="12.5" ry="12.5" style="stroke: #A80036; stroke-width: 1.5;" width="78" x="342" y="341.9219"/><text fill="#000000" font-family="sans-serif" font-size="12" lengthAdjust="spacingAndGlyphs" textLength="58" x="352" y="363.0605">Visualizar</text><polygon fill="#FEFECE" filter="url(#fmbqgdg)" points="273.5,381.8906,285.5,393.8906,273.5,405.8906,261.5,393.8906,273.5,381.8906" style="stroke: #A80036; stroke-width: 1.5;"/><polygon fill="#FEFECE" filter="url(#fmbqgdg)" points="369.25,411.8906,381.25,423.8906,369.25,435.8906,357.25,423.8906,369.25,411.8906" style="stroke: #A80036; stroke-width: 1.5;"/><polygon fill="#FEFECE" filter="url(#fmbqgdg)" points="653,84,782,84,794,96,782,108,653,108,641,96,653,84" style="stroke: #A80036; stroke-width: 1.5;"/><text fill="#000000" font-family="sans-serif" font-size="11" lengthAdjust="spacingAndGlyphs" textLength="129" x="653" y="99.8081">Feedback de produto ?</text><text fill="#000000" font-family="sans-serif" font-size="11" lengthAdjust="spacingAndGlyphs" textLength="22" x="619" y="93.4058">Sim</text><text fill="#000000" font-family="sans-serif" font-size="11" lengthAdjust="spacingAndGlyphs" textLength="22" x="794" y="93.4058">Não</text><rect fill="#FEFECE" filter="url(#fmbqgdg)" height="33.9688" rx="12.5" ry="12.5" style="stroke: #A80036; stroke-width: 1.5;" width="222" x="520" y="118"/><text fill="#000000" font-family="sans-serif" font-size="12" lengthAdjust="spacingAndGlyphs" textLength="202" x="530" y="139.1387">Visualizar avaliações do produto</text><polygon fill="#FEFECE" filter="url(#fmbqgdg)" points="717.5,157.9688,729.5,169.9688,717.5,181.9688,705.5,169.9688,717.5,157.9688" style="stroke: #A80036; stroke-width: 1.5;"/><polygon fill="#FEFECE" filter="url(#fmbqgdg)" points="543.375,441.8906,555.375,453.8906,543.375,465.8906,531.375,453.8906,543.375,441.8906" style="stroke: #A80036; stroke-width: 1.5;"/><ellipse cx="543.375" cy="495.8906" fill="none" filter="url(#fmbqgdg)" rx="10" ry="10" style="stroke: #000000; stroke-width: 1.0;"/><ellipse cx="543.875" cy="496.3906" fill="#000000" filter="url(#fmbqgdg)" rx="6" ry="6" style="stroke: none; stroke-width: 1.0;"/><line style="stroke: #A80036; stroke-width: 1.5;" x1="273.5" x2="273.5" y1="220.9375" y2="240.9375"/><polygon fill="#A80036" points="269.5,230.9375,273.5,240.9375,277.5,230.9375,273.5,234.9375" style="stroke: #A80036; stroke-width: 1.0;"/><line style="stroke: #A80036; stroke-width: 1.5;" x1="204.5" x2="166" y1="319.9219" y2="319.9219"/><line style="stroke: #A80036; stroke-width: 1.5;" x1="166" x2="166" y1="319.9219" y2="341.9219"/><polygon fill="#A80036" points="162,331.9219,166,341.9219,170,331.9219,166,335.9219" style="stroke: #A80036; stroke-width: 1.0;"/><line style="stroke: #A80036; stroke-width: 1.5;" x1="342.5" x2="381" y1="319.9219" y2="319.9219"/><line style="stroke: #A80036; stroke-width: 1.5;" x1="381" x2="381" y1="319.9219" y2="341.9219"/><polygon fill="#A80036" points="377,331.9219,381,341.9219,385,331.9219,381,335.9219" style="stroke: #A80036; stroke-width: 1.0;"/><line style="stroke: #A80036; stroke-width: 1.5;" x1="166" x2="166" y1="375.8906" y2="393.8906"/><line style="stroke: #A80036; stroke-width: 1.5;" x1="166" x2="261.5" y1="393.8906" y2="393.8906"/><polygon fill="#A80036" points="251.5,389.8906,261.5,393.8906,251.5,397.8906,255.5,393.8906" style="stroke: #A80036; stroke-width: 1.0;"/><line style="stroke: #A80036; stroke-width: 1.5;" x1="381" x2="381" y1="375.8906" y2="393.8906"/><line style="stroke: #A80036; stroke-width: 1.5;" x1="381" x2="285.5" y1="393.8906" y2="393.8906"/><polygon fill="#A80036" points="295.5,389.8906,285.5,393.8906,295.5,397.8906,291.5,393.8906" style="stroke: #A80036; stroke-width: 1.0;"/><line style="stroke: #A80036; stroke-width: 1.5;" x1="273.5" x2="273.5" y1="274.9063" y2="307.9219"/><polygon fill="#A80036" points="269.5,297.9219,273.5,307.9219,277.5,297.9219,273.5,301.9219" style="stroke: #A80036; stroke-width: 1.0;"/><line style="stroke: #A80036; stroke-width: 1.5;" x1="300.25" x2="273.5" y1="164.9688" y2="164.9688"/><line style="stroke: #A80036; stroke-width: 1.5;" x1="273.5" x2="273.5" y1="164.9688" y2="186.9688"/><polygon fill="#A80036" points="269.5,176.9688,273.5,186.9688,277.5,176.9688,273.5,180.9688" style="stroke: #A80036; stroke-width: 1.0;"/><line style="stroke: #A80036; stroke-width: 1.5;" x1="438.25" x2="465" y1="164.9688" y2="164.9688"/><polygon fill="#A80036" points="461,277.9219,465,287.9219,469,277.9219,465,281.9219" style="stroke: #A80036; stroke-width: 1.5;"/><line style="stroke: #A80036; stroke-width: 1.5;" x1="465" x2="465" y1="164.9688" y2="423.8906"/><line style="stroke: #A80036; stroke-width: 1.5;" x1="465" x2="381.25" y1="423.8906" y2="423.8906"/><polygon fill="#A80036" points="391.25,419.8906,381.25,423.8906,391.25,427.8906,387.25,423.8906" style="stroke: #A80036; stroke-width: 1.0;"/><line style="stroke: #A80036; stroke-width: 1.5;" x1="273.5" x2="273.5" y1="405.8906" y2="423.8906"/><line style="stroke: #A80036; stroke-width: 1.5;" x1="273.5" x2="357.25" y1="423.8906" y2="423.8906"/><polygon fill="#A80036" points="347.25,419.8906,357.25,423.8906,347.25,427.8906,351.25,423.8906" style="stroke: #A80036; stroke-width: 1.0;"/><line style="stroke: #A80036; stroke-width: 1.5;" x1="369.25" x2="369.25" y1="117.9688" y2="152.9688"/><polygon fill="#A80036" points="365.25,142.9688,369.25,152.9688,373.25,142.9688,369.25,146.9688" style="stroke: #A80036; stroke-width: 1.0;"/><line style="stroke: #A80036; stroke-width: 1.5;" x1="641" x2="631" y1="96" y2="96"/><line style="stroke: #A80036; stroke-width: 1.5;" x1="631" x2="631" y1="96" y2="118"/><polygon fill="#A80036" points="627,108,631,118,635,108,631,112" style="stroke: #A80036; stroke-width: 1.0;"/><line style="stroke: #A80036; stroke-width: 1.5;" x1="794" x2="804" y1="96" y2="96"/><polygon fill="#A80036" points="800,122.9844,804,132.9844,808,122.9844,804,126.9844" style="stroke: #A80036; stroke-width: 1.5;"/><line style="stroke: #A80036; stroke-width: 1.5;" x1="804" x2="804" y1="96" y2="169.9688"/><line style="stroke: #A80036; stroke-width: 1.5;" x1="804" x2="729.5" y1="169.9688" y2="169.9688"/><polygon fill="#A80036" points="739.5,165.9688,729.5,169.9688,739.5,173.9688,735.5,169.9688" style="stroke: #A80036; stroke-width: 1.0;"/><line style="stroke: #A80036; stroke-width: 1.5;" x1="631" x2="631" y1="151.9688" y2="169.9688"/><line style="stroke: #A80036; stroke-width: 1.5;" x1="631" x2="705.5" y1="169.9688" y2="169.9688"/><polygon fill="#A80036" points="695.5,165.9688,705.5,169.9688,695.5,173.9688,699.5,169.9688" style="stroke: #A80036; stroke-width: 1.0;"/><line style="stroke: #A80036; stroke-width: 1.5;" x1="478.875" x2="369.25" y1="62" y2="62"/><line style="stroke: #A80036; stroke-width: 1.5;" x1="369.25" x2="369.25" y1="62" y2="84"/><polygon fill="#A80036" points="365.25,74,369.25,84,373.25,74,369.25,78" style="stroke: #A80036; stroke-width: 1.0;"/><line style="stroke: #A80036; stroke-width: 1.5;" x1="607.875" x2="717.5" y1="62" y2="62"/><line style="stroke: #A80036; stroke-width: 1.5;" x1="717.5" x2="717.5" y1="62" y2="84"/><polygon fill="#A80036" points="713.5,74,717.5,84,721.5,74,717.5,78" style="stroke: #A80036; stroke-width: 1.0;"/><line style="stroke: #A80036; stroke-width: 1.5;" x1="369.25" x2="369.25" y1="435.8906" y2="453.8906"/><line style="stroke: #A80036; stroke-width: 1.5;" x1="369.25" x2="531.375" y1="453.8906" y2="453.8906"/><polygon fill="#A80036" points="521.375,449.8906,531.375,453.8906,521.375,457.8906,525.375,453.8906" style="stroke: #A80036; stroke-width: 1.0;"/><line style="stroke: #A80036; stroke-width: 1.5;" x1="717.5" x2="717.5" y1="181.9688" y2="453.8906"/><line style="stroke: #A80036; stroke-width: 1.5;" x1="717.5" x2="555.375" y1="453.8906" y2="453.8906"/><polygon fill="#A80036" points="565.375,449.8906,555.375,453.8906,565.375,457.8906,561.375,453.8906" style="stroke: #A80036; stroke-width: 1.0;"/><line style="stroke: #A80036; stroke-width: 1.5;" x1="543.375" x2="543.375" y1="30" y2="50"/><polygon fill="#A80036" points="539.375,40,543.375,50,547.375,40,543.375,44" style="stroke: #A80036; stroke-width: 1.0;"/><line style="stroke: #A80036; stroke-width: 1.5;" x1="543.375" x2="543.375" y1="465.8906" y2="485.8906"/><polygon fill="#A80036" points="539.375,475.8906,543.375,485.8906,547.375,475.8906,543.375,479.8906" style="stroke: #A80036; stroke-width: 1.0;"/></g></svg>