<?xml version="1.0" encoding="UTF-8" standalone="no"?><svg xmlns="http://www.w3.org/2000/svg" xmlns:xlink="http://www.w3.org/1999/xlink" contentScriptType="application/ecmascript" contentStyleType="text/css" height="238px" preserveAspectRatio="none" style="width:185px;height:238px;" version="1.1" viewBox="0 0 185 238" width="185px" zoomAndPan="magnify"><defs><filter height="300%" id="fv99300" width="300%" x="-1" y="-1"><feGaussianBlur result="blurOut" stdDeviation="2.0"/><feColorMatrix in="blurOut" result="blurOut2" type="matrix" values="0 0 0 0 0 0 0 0 0 0 0 0 0 0 0 0 0 0 .4 0"/><feOffset dx="4.0" dy="4.0" in="blurOut2" result="blurOut3"/><feBlend in="SourceGraphic" in2="blurOut3" mode="normal"/></filter></defs><g><ellipse cx="94" cy="20" fill="#000000" filter="url(#fv99300)" rx="10" ry="10" style="stroke: none; stroke-width: 1.0;"/><rect fill="#FEFECE" filter="url(#fv99300)" height="33.9688" rx="12.5" ry="12.5" style="stroke: #A80036; stroke-width: 1.5;" width="168" x="10" y="50"/><text fill="#000000" font-family="sans-serif" font-size="12" lengthAdjust="spacingAndGlyphs" textLength="148" x="20" y="71.1387">Selecionar sala de chat</text><rect fill="#FEFECE" filter="url(#fv99300)" height="33.9688" rx="12.5" ry="12.5" style="stroke: #A80036; stroke-width: 1.5;" width="159" x="14.5" y="103.9688"/><text fill="#000000" font-family="sans-serif" font-size="12" lengthAdjust="spacingAndGlyphs" textLength="139" x="24.5" y="125.1074">Escrever a mensagem</text><rect fill="#FEFECE" filter="url(#fv99300)" height="33.9688" rx="12.5" ry="12.5" style="stroke: #A80036; stroke-width: 1.5;" width="143" x="22.5" y="157.9375"/><text fill="#000000" font-family="sans-serif" font-size="12" lengthAdjust="spacingAndGlyphs" textLength="123" x="32.5" y="179.0762">Enviar a mensagem</text><ellipse cx="94" cy="221.9063" fill="none" filter="url(#fv99300)" rx="10" ry="10" style="stroke: #000000; stroke-width: 1.0;"/><ellipse cx="94.5" cy="222.4063" fill="#000000" filter="url(#fv99300)" rx="6" ry="6" style="stroke: none; stroke-width: 1.0;"/><line style="stroke: #A80036; stroke-width: 1.5;" x1="94" x2="94" y1="30" y2="50"/><polygon fill="#A80036" points="90,40,94,50,98,40,94,44" style="stroke: #A80036; stroke-width: 1.0;"/><line style="stroke: #A80036; stroke-width: 1.5;" x1="94" x2="94" y1="83.9688" y2="103.9688"/><polygon fill="#A80036" points="90,93.9688,94,103.9688,98,93.9688,94,97.9688" style="stroke: #A80036; stroke-width: 1.0;"/><line style="stroke: #A80036; stroke-width: 1.5;" x1="94" x2="94" y1="137.9375" y2="157.9375"/><polygon fill="#A80036" points="90,147.9375,94,157.9375,98,147.9375,94,151.9375" style="stroke: #A80036; stroke-width: 1.0;"/><line style="stroke: #A80036; stroke-width: 1.5;" x1="94" x2="94" y1="191.9063" y2="211.9063"/><polygon fill="#A80036" points="90,201.9063,94,211.9063,98,201.9063,94,205.9063" style="stroke: #A80036; stroke-width: 1.0;"/></g></svg>